SplineFontDB: 3.0
FontName: HiTall
FullName: Hi. Tall
FamilyName: Hi.
Weight: Tall Regular
Copyright: Copyright (c) 2015, Mew Too/Cannot Into Space Fonts, All Rights Reserved.
Version: 1.996
ItalicAngle: 0
UnderlinePosition: -100
UnderlineWidth: 50
Ascent: 800
Descent: 200
InvalidEm: 0
sfntRevision: 0x0001fefa
LayerCount: 2
Layer: 0 0 "Back" 1
Layer: 1 0 "Fore" 0
XUID: [1021 604 120746000 5336]
StyleMap: 0x0000
FSType: 0
OS2Version: 4
OS2_WeightWidthSlopeOnly: 0
OS2_UseTypoMetrics: 1
CreationTime: 1421008990
ModificationTime: 1428970907
PfmFamily: 17
TTFWeight: 400
TTFWidth: 5
LineGap: 90
VLineGap: 0
Panose: 2 0 5 3 0 0 0 0 0 0
OS2TypoAscent: 800
OS2TypoAOffset: 0
OS2TypoDescent: -200
OS2TypoDOffset: 0
OS2TypoLinegap: 90
OS2WinAscent: 813
OS2WinAOffset: 0
OS2WinDescent: 184
OS2WinDOffset: 0
HheadAscent: 813
HheadAOffset: 0
HheadDescent: -184
HheadDOffset: 0
OS2SubXSize: 650
OS2SubYSize: 699
OS2SubXOff: 0
OS2SubYOff: 140
OS2SupXSize: 650
OS2SupYSize: 699
OS2SupXOff: 0
OS2SupYOff: 479
OS2StrikeYSize: 49
OS2StrikeYPos: 258
OS2CapHeight: 590
OS2XHeight: 590
OS2FamilyClass: 2063
OS2Vendor: 'CiSf'
OS2CodePages: 00000001.00000000
OS2UnicodeRanges: 0000002f.10000000.00000000.00000000
Lookup: 3 0 0 "'salt' Stylistic Alternatives in Latin lookup 0" { "'salt' Stylistic Alternatives in Latin lookup 0 subtable"  } ['salt' ('DFLT' <'dflt' > 'latn' <'dflt' > ) ]
Lookup: 4 0 1 "'liga' Standard Ligatures lookup 1" { "'liga' Standard Ligatures lookup 1 subtable"  } ['liga' ('DFLT' <'dflt' > ) ]
Lookup: 258 0 0 "'kern' Horizontal Kerning lookup 0" { "'kern' Horizontal Kerning lookup 0 subtable"  } ['kern' ('DFLT' <'dflt' > 'arab' <'dflt' > 'latn' <'dflt' > ) ]
MarkAttachClasses: 1
DEI: 91125

StartChar: .notdef
Encoding: 65536 -1 0
Width: 540
Flags: MW
HStem: 0 50<115.038 432.297 115.038 482.297> 517 50<115.038 432.297 115.038 115.038>
VStem: 65.0381 50 432.297 50
LayerCount: 2
Back
Fore
SplineSet
65.0380859375 0 m 1
 65.0380859375 567 l 1
 482.296875 567 l 1
 482.296875 0 l 1
 65.0380859375 0 l 1
115.038085938 50 m 1
 432.296875 50 l 1
 432.296875 517 l 1
 115.038085938 517 l 1
 115.038085938 50 l 1
EndSplineSet
EndChar

StartChar: space
Encoding: 32 32 1
Width: 141
GlyphClass: 2
Flags: W
LayerCount: 2
Back
Fore
SplineSet
905.5 402 m 1024,0,0
EndSplineSet
EndChar

StartChar: exclam
Encoding: 33 33 2
Width: 198
GlyphClass: 2
Flags: MW
HStem: -0.25 92.5<85.875 110.875>
VStem: 54.625 88.75<33.5 58.5> 61.9961 74.0996<160.443 584.048>
LayerCount: 2
Back
Fore
SplineSet
54.625 46 m 0xc0
 54.625 71 73.375 92.25 98.375 92.25 c 0
 123.375 92.25 143.375 71 143.375 46 c 0
 143.375 21 123.375 -0.25 98.375 -0.25 c 0
 73.375 -0.25 54.625 21 54.625 46 c 0xc0
136.095703125 584.047851562 m 2xa0
 136.095703125 160.443359375 l 2
 136.095703125 144.397460938 119.9453125 130.491210938 99.0458984375 130.491210938 c 0
 78.1455078125 130.491210938 61.9951171875 144.619140625 61.99609375 160.443359375 c 2
 61.99609375 160.443359375 61.7880859375 583.879882812 61.99609375 584.047851562 c 0
 61.99609375 600.09375 78.1455078125 614 99.0458984375 614 c 0
 119.9453125 614 135.669921875 600.09375 136.095703125 584.047851562 c 2xa0
EndSplineSet
EndChar

StartChar: quotedbl
Encoding: 34 34 3
Width: 320
GlyphClass: 2
Flags: MW
HStem: 557.5 21G 607.5 92.5<83.3379 99.6987 205.689 222.05>
VStem: 52.0875 88.75 117.13 32.457 174.439 88.75 239.482 32.457
LayerCount: 2
Back
Fore
SplineSet
174.439453125 653.75 m 0xc8
 174.439453125 678.75 193.189453125 700 218.189453125 700 c 0
 243.189453125 700 263.189453125 678.75 263.189453125 653.75 c 1xc8
 268.190429688 633.318359375 278.189453125 600 271.939453125 583.75 c 0
 268.189453125 572.5 221.938476562 562.083984375 186.939453125 557.5 c 1
 215.11328125 571.014648438 239.801757812 577.020507812 239.482421875 613.06640625 c 1xc4
 233.15625 609.52734375 225.911132812 607.5 218.189453125 607.5 c 0
 193.189453125 607.5 174.439453125 628.75 174.439453125 653.75 c 0xc8
52.087890625 653.75 m 0xe0
 52.087890625 678.75 70.837890625 700 95.837890625 700 c 0
 120.837890625 700 140.837890625 678.75 140.837890625 653.75 c 1
 145.838867188 633.318359375 155.837890625 600 149.587890625 583.75 c 0
 145.837890625 572.5 99.5869140625 562.083984375 64.587890625 557.5 c 1
 92.76171875 571.014648438 117.450195312 577.020507812 117.130859375 613.06640625 c 1xd0
 110.8046875 609.52734375 103.559570312 607.5 95.837890625 607.5 c 0
 70.837890625 607.5 52.087890625 628.75 52.087890625 653.75 c 0xe0
EndSplineSet
EndChar

StartChar: numbersign
Encoding: 35 35 4
Width: 831
GlyphClass: 2
Flags: MW
HStem: 183.323 69.5689 363.39 69.5306
LayerCount: 2
Back
Fore
SplineSet
686.482421875 622.012695312 m 2
 617.653320312 432.63671875 l 1
 745.999023438 432.200195312 l 2
 762.90234375 432.142578125 783.39453125 416.908203125 790.953125 397.2578125 c 0
 798.512695312 377.606445312 789.471679688 362.470703125 772.80078125 362.528320312 c 2
 772.80078125 362.528320312 693.28515625 362.791992188 590.60546875 363.141601562 c 1
 550.4140625 252.626953125 l 1
 697.01171875 252.126953125 l 2
 713.915039062 252.069335938 734.407226562 236.818359375 741.965820312 217.147460938 c 0
 749.525390625 197.475585938 740.484375 182.323242188 723.813476562 182.380859375 c 2
 723.813476562 182.380859375 634.71875 182.67578125 523.36328125 183.055664062 c 1
 467.735351562 29.9892578125 l 2
 461.897460938 13.9248046875 439.758789062 0.001953125 417.657226562 0.001953125 c 0
 395.5546875 0.001953125 383.615234375 14.146484375 389.374023438 29.9892578125 c 2
 389.374023438 29.9892578125 413.163085938 95.513671875 445.05078125 183.32421875 c 1
 393.930664062 183.500976562 341.473632812 183.68359375 293.11328125 183.857421875 c 1
 237.194335938 29.9892578125 l 2
 231.356445312 13.9248046875 209.217773438 0.001953125 187.116210938 0.001953125 c 0
 165.013671875 0.001953125 153.07421875 14.146484375 158.833007812 29.9892578125 c 2
 158.833007812 29.9892578125 182.76953125 95.921875 214.807617188 184.143554688 c 1
 141.674804688 184.3984375 90.5830078125 184.596679688 90.51171875 184.65234375 c 0
 73.6083984375 184.709960938 53.1181640625 199.944335938 45.55859375 219.595703125 c 0
 37.9990234375 239.247070312 46.9609375 253.982421875 63.7099609375 254.325195312 c 2
 241.852539062 253.67578125 l 1
 254.97265625 289.775390625 268.629882812 327.3515625 282.006835938 364.15234375 c 1
 199.28515625 364.4375 139.577148438 364.6640625 139.5 364.724609375 c 0
 122.596679688 364.782226562 102.106445312 380.033203125 94.546875 399.70703125 c 0
 86.9873046875 419.380859375 95.94921875 434.1328125 112.698242188 434.4765625 c 2
 309.064453125 433.760742188 l 1
 347.123046875 538.499023438 377.47265625 621.951171875 377.578125 622.013671875 c 0
 383.416015625 638.078125 405.553710938 652.000976562 427.65625 652.000976562 c 0
 449.7578125 652.000976562 461.328125 638.078125 455.940429688 622.013671875 c 2
 387.420898438 433.475585938 l 1
 539.301757812 432.921875 l 1
 577.502929688 538.052734375 608.014648438 621.950195312 608.120117188 622.012695312 c 0
 613.958007812 638.077148438 636.095703125 652 658.198242188 652 c 0
 680.299804688 652 691.870117188 638.077148438 686.482421875 622.012695312 c 2
360.353515625 363.887695312 m 1
 320.176757812 253.41015625 l 1
 472.086914062 252.892578125 l 1
 485.203125 288.982421875 498.86328125 326.56640625 512.25 363.391601562 c 1
 461.798828125 363.553710938 409.384765625 363.724609375 360.353515625 363.887695312 c 1
EndSplineSet
AlternateSubs2: "'salt' Stylistic Alternatives in Latin lookup 0 subtable" uniE008
EndChar

StartChar: dollar
Encoding: 36 36 5
Width: 554
GlyphClass: 2
Flags: MW
HStem: 83.7067 55.5742 282.94 56.1412 482.2 55.5757
VStem: 50.2853 61.8535 238.525 74.1357 447.545 61.8535
LayerCount: 2
Back
Fore
SplineSet
238.466796875 480.700195312 m 1
 167.879882812 474.995117188 112.138671875 452.10546875 112.138671875 393.337890625 c 0
 112.138671875 391.80078125 95.189453125 338.27734375 174.899414062 338.49609375 c 2
 174.899414062 338.49609375 198.15234375 338.654296875 238.474609375 338.805664062 c 1
 238.466796875 389.413085938 238.466796875 438.81640625 238.466796875 480.700195312 c 1
312.66015625 140.173828125 m 1
 387.245117188 144.704101562 447.543945312 167.008789062 447.543945312 228.112304688 c 0
 447.543945312 229.649414062 464.494140625 283.056640625 384.783203125 282.938476562 c 0
 384.563476562 282.999023438 358.08203125 282.826171875 312.66015625 282.659179688 c 1
 312.66015625 140.173828125 l 1
312.659179688 593.743164062 m 2
 312.66015625 538.301757812 l 1
 417.557617188 538.211914062 485.625976562 537.775390625 485.625976562 537.775390625 c 2
 497.31640625 537.775390625 507.448242188 525.663085938 507.448242188 509.98828125 c 0
 507.448242188 494.313476562 497.31640625 482.201171875 485.625976562 482.201171875 c 2
 485.625976562 482.201171875 393.706054688 482.216796875 312.66015625 482.220703125 c 1
 312.66015625 339.01953125 l 1
 334.350585938 339.057617188 358.083984375 339.08203125 383.501953125 339.08203125 c 0
 440.762695312 339.08203125 509.397460938 352.124023438 509.397460938 227.55078125 c 0
 509.397460938 115.611328125 423.729492188 87.58203125 312.659179688 83.6572265625 c 1
 312.659179688 30.2548828125 l 2
 312.659179688 14.046875 296.508789062 0 275.609375 0 c 0
 254.708984375 0 238.55859375 14.2705078125 238.559570312 30.2548828125 c 2
 238.559570312 30.2548828125 238.552734375 50.39453125 238.541992188 83.1474609375 c 1
 138.465820312 83.2607421875 74.0380859375 83.70703125 74.0380859375 83.70703125 c 2
 62.357421875 83.70703125 52.2333984375 95.8193359375 52.2333984375 111.494140625 c 0
 52.2333984375 127.168945312 62.357421875 139.28125 74.0380859375 139.28125 c 2
 74.0380859375 139.28125 159.709960938 139.267578125 238.5234375 139.262695312 c 1
 238.510742188 181.2421875 238.49609375 231.168945312 238.484375 282.452148438 c 1
 219.131835938 282.419921875 198.251953125 282.399414062 176.077148438 282.399414062 c 0
 118.862304688 282.399414062 50.2822265625 269.356445312 50.2822265625 393.935546875 c 0
 50.2822265625 503.044921875 131.598632812 532.4375 238.477539062 537.490234375 c 1
 238.491210938 572.20703125 238.515625 593.734375 238.555664062 593.766601562 c 0
 238.555664062 609.961914062 254.706054688 623.998046875 275.607421875 623.998046875 c 0
 296.5078125 623.998046875 312.233398438 609.951171875 312.659179688 593.743164062 c 2
EndSplineSet
EndChar

StartChar: percent
Encoding: 37 37 6
Width: 627
GlyphClass: 2
Flags: MW
HStem: -0.44043 58.2041<445.347 482.407 445.347 498.597> 185.811 58.2041 407.545 58.2041 593.796 58.2041<149.17 186.23>
VStem: 41.7383 58.7363 234.923 58.7363 337.917 58.7363 531.102 58.7363
LayerCount: 2
Back
Fore
SplineSet
234.923828125 529.772460938 m 0
 234.923828125 563.750976562 204.759765625 593.795898438 167.700195312 593.795898438 c 0
 130.640625 593.795898438 100.4765625 563.750976562 100.4765625 529.772460938 c 0
 100.4765625 495.793945312 130.640625 465.749023438 167.700195312 465.749023438 c 0
 204.759765625 465.749023438 234.923828125 495.793945312 234.923828125 529.772460938 c 0
293.66015625 529.772460938 m 0
 293.66015625 462.309570312 237.139648438 407.544921875 167.700195312 407.544921875 c 0
 98.2607421875 407.544921875 41.740234375 462.309570312 41.740234375 529.772460938 c 0
 41.740234375 597.235351562 98.2607421875 652 167.700195312 652 c 0
 237.139648438 652 293.66015625 597.235351562 293.66015625 529.772460938 c 0
396.653320312 121.787109375 m 0
 396.653320312 87.80859375 426.817382812 57.763671875 463.876953125 57.763671875 c 0
 500.936523438 57.763671875 531.100585938 87.80859375 531.100585938 121.787109375 c 0
 531.100585938 155.765625 500.936523438 185.810546875 463.876953125 185.810546875 c 0
 426.817382812 185.810546875 396.653320312 155.765625 396.653320312 121.787109375 c 0
337.916992188 121.787109375 m 0
 337.916992188 189.25 394.4375 244.014648438 463.876953125 244.014648438 c 0
 533.31640625 244.014648438 589.836914062 189.25 589.836914062 121.787109375 c 0
 589.836914062 54.32421875 533.31640625 -0.4404296875 463.876953125 -0.4404296875 c 0
 394.4375 -0.4404296875 337.916992188 54.32421875 337.916992188 121.787109375 c 0
536.225585938 622.459960938 m 2
 171.8125 29.541015625 l 2
 162.0859375 13.7158203125 136.858398438 0.0009765625 115.120117188 0.0009765625 c 0
 93.380859375 0.0009765625 85.1455078125 13.9345703125 94.7392578125 29.541015625 c 2
 94.7392578125 29.541015625 458.833007812 622.293945312 459.15234375 622.459960938 c 0
 468.87890625 638.28515625 494.10546875 652 515.844726562 652 c 0
 537.583007812 652 545.509765625 638.28515625 536.225585938 622.459960938 c 2
EndSplineSet
EndChar

StartChar: ampersand
Encoding: 38 38 7
Width: 826
GlyphClass: 2
Flags: MW
HStem: 0 74.0996<140.55 588.94 140.55 633.654 72.793 588.94> 252.633 74.167 364 74.0996<389.909 390.202 758.188 758.188> 505.426 74.7959<355.845 467.411>
VStem: 588.941 74.123
LayerCount: 2
Back
Fore
SplineSet
389.909179688 438.099609375 m 2
 611.262695312 438.099609375 l 2
 615.643554688 439.354492188 620.439453125 440.049804688 625.500976562 440.049804688 c 0
 630.5625 440.049804688 635.333984375 439.354492188 639.685546875 438.099609375 c 2
 758.479492188 438.099609375 l 2
 774.185546875 438.099609375 787.797851562 421.94921875 787.797851562 401.049804688 c 0
 787.797851562 380.149414062 773.831054688 363.999023438 758.1875 364 c 2
 663.063476562 363.931640625 l 1
 663.063476562 37.0498046875 l 2
 663.063476562 16.1494140625 649.409179688 0 633.654296875 0 c 0
 633.48828125 -0.2080078125 72.79296875 0 72.79296875 0 c 2
 57.255859375 -0.0009765625 43.384765625 16.1494140625 43.384765625 37.0498046875 c 0
 43.384765625 130.59375 58.576171875 213.970703125 105.260742188 267.137695312 c 1
 101.379882812 273.337890625 99.0107421875 281.140625 99.0107421875 289.75 c 0
 99.0107421875 449.881835938 237.65234375 580.221679688 408.443359375 580.221679688 c 0
 579.234375 580.221679688 554.3828125 579.5 554.3828125 579.5 c 2
 570.24609375 579.5 583.994140625 563.349609375 583.994140625 542.450195312 c 0
 583.994140625 521.549804688 570.24609375 505.400390625 554.3828125 505.400390625 c 2
 554.3828125 505.400390625 526.37890625 505.42578125 408.443359375 505.42578125 c 0
 303.24609375 505.42578125 228.7109375 426.551757812 196.17578125 326.799804688 c 1
 237.262695312 326.799804688 l 2
 244.17578125 327.278320312 251.3203125 327.521484375 258.698242188 327.521484375 c 0
 429.489257812 327.521484375 431.075195312 326.799804688 431.075195312 326.799804688 c 2
 446.938476562 326.799804688 460.686523438 310.649414062 460.686523438 289.75 c 0
 460.686523438 268.849609375 446.938476562 252.700195312 431.075195312 252.700195312 c 0
 430.982421875 252.583984375 336.043945312 252.59765625 252.571289062 252.6328125 c 0
 154.2578125 249.58203125 172.438476562 171.869140625 140.549804688 74.099609375 c 1
 588.940429688 74.099609375 l 1
 588.901367188 136.299804688 588.834960938 264.650390625 588.884765625 363.9140625 c 1
 484.385742188 363.897460938 390.276367188 363.907226562 390.202148438 364 c 0
 374.338867188 364 360.590820312 380.149414062 360.590820312 401.049804688 c 0
 360.590820312 421.94921875 374.203125 437.673828125 389.909179688 438.099609375 c 2
EndSplineSet
EndChar

StartChar: quotesingle
Encoding: 39 39 8
Width: 198
GlyphClass: 2
Flags: MW
HStem: 557.5 21G 607.5 92.5<83.3379 99.6987>
VStem: 52.0875 88.75 117.13 32.457
LayerCount: 2
Back
Fore
SplineSet
52.087890625 653.75 m 0xe0
 52.087890625 678.75 70.837890625 700 95.837890625 700 c 0
 120.837890625 700 140.837890625 678.75 140.837890625 653.75 c 1
 145.838867188 633.318359375 155.837890625 600 149.587890625 583.75 c 0
 145.837890625 572.5 99.5869140625 562.083984375 64.587890625 557.5 c 1
 92.76171875 571.014648438 117.450195312 577.020507812 117.130859375 613.06640625 c 1xd0
 110.8046875 609.52734375 103.559570312 607.5 95.837890625 607.5 c 0
 70.837890625 607.5 52.087890625 628.75 52.087890625 653.75 c 0xe0
EndSplineSet
EndChar

StartChar: parenleft
Encoding: 40 40 9
Width: 408
GlyphClass: 2
Flags: MW
HStem: 0.524414 79.084 539.976 74.7959<233.359 292.327 208.537 300.259>
VStem: 44.7457 82.4707
LayerCount: 2
Back
Fore
SplineSet
292.327148438 614.075195312 m 1
 308.190429688 614.075195312 321.938476562 597.924804688 321.938476562 577.025390625 c 0
 321.938476562 556.125 308.190429688 539.975585938 292.327148438 539.975585938 c 0
 174.391601562 539.975585938 127.215820312 436.6875 127.215820312 309.791992188 c 0
 127.215820312 182.896484375 174.391601562 79.6083984375 292.327148438 79.6083984375 c 0
 308.190429688 79.6083984375 321.938476562 62.373046875 321.938476562 40.06640625 c 0
 321.938476562 17.7607421875 308.190429688 0.5244140625 292.327148438 0.5244140625 c 1
 292.327148438 -0.171875 l 1
 124.747070312 -0.171875 44.7451171875 137.795898438 44.7451171875 307.299804688 c 0
 44.7451171875 476.803710938 124.747070312 614.771484375 292.327148438 614.771484375 c 1
 292.327148438 614.075195312 l 1
EndSplineSet
EndChar

StartChar: parenright
Encoding: 41 41 10
Width: 410
GlyphClass: 2
Flags: MW
HStem: 0.524414 74.0996<113.778 121.71> 534.991 79.7803
VStem: 286.821 82.4707
LayerCount: 2
Back
Fore
SplineSet
121.709960938 614.075195312 m 1
 121.709960938 614.771484375 l 1
 289.290039062 614.771484375 369.291992188 476.803710938 369.291992188 307.299804688 c 0
 369.291992188 137.795898438 289.290039062 -0.171875 121.709960938 -0.171875 c 1
 121.709960938 0.5244140625 l 1
 105.846679688 0.5244140625 92.0986328125 16.6748046875 92.0986328125 37.57421875 c 0
 92.0986328125 58.474609375 105.846679688 74.6240234375 121.709960938 74.6240234375 c 0
 239.645507812 74.6240234375 286.821289062 177.912109375 286.821289062 304.807617188 c 0
 286.821289062 431.703125 239.645507812 534.991210938 121.709960938 534.991210938 c 0
 105.846679688 534.991210938 92.0986328125 552.2265625 92.0986328125 574.533203125 c 0
 92.0986328125 596.838867188 105.846679688 614.075195312 121.709960938 614.075195312 c 1
EndSplineSet
EndChar

StartChar: asterisk
Encoding: 42 42 11
Width: 343
GlyphClass: 2
Flags: MW
HStem: 607.58 29.6406<53.0264 56.1543 56.1543 56.1553 53.0264 137.149>
VStem: 159.348 29.6406
LayerCount: 2
Back
Fore
SplineSet
188.989257812 734.80078125 m 2
 188.98828125 658.23046875 l 1
 220.397460938 687.935546875 246.2421875 712.364257812 246.28515625 712.358398438 c 0
 257.05859375 722.548828125 278.883789062 701.842773438 268.44921875 691.400390625 c 2
 211.190429688 637.256835938 l 1
 255.614257812 637.259765625 292.15625 637.252929688 292.182617188 637.220703125 c 0
 298.52734375 637.220703125 304.025390625 630.760742188 304.025390625 622.400390625 c 0
 304.025390625 614.041015625 298.52734375 607.750976562 292.182617188 607.580078125 c 2
 211.20703125 607.580078125 l 1
 242.62109375 577.879882812 268.455078125 553.44140625 268.44921875 553.400390625 c 0
 279.225585938 543.212890625 257.328125 522.575195312 246.28515625 532.442382812 c 2
 188.98828125 586.622070312 l 1
 188.98828125 510 l 2
 188.98828125 504 182.52734375 498.80078125 174.16796875 498.80078125 c 0
 165.807617188 498.80078125 159.34765625 504.083007812 159.34765625 510 c 2
 159.34765625 510 159.333984375 544.571289062 159.323242188 586.598632812 c 1
 102.05078125 532.442382812 l 2
 91.2451171875 522.22265625 69.1943359375 543.291992188 79.8876953125 553.400390625 c 2
 79.8876953125 553.400390625 105.73046875 577.85546875 137.149414062 607.580078125 c 1
 56.154296875 607.580078125 l 2
 49.8095703125 607.580078125 44.3115234375 614.041015625 44.3115234375 622.400390625 c 0
 44.3115234375 630.760742188 49.8974609375 637.220703125 56.1552734375 637.220703125 c 2
 56.1552734375 637.220703125 92.7158203125 637.233398438 137.161132812 637.243164062 c 1
 79.8896484375 691.400390625 l 2
 69.08203125 701.618164062 91.36328125 722.469726562 102.052734375 712.358398438 c 2
 102.052734375 712.358398438 127.892578125 687.942382812 159.310546875 658.248046875 c 1
 159.307617188 700.239257812 159.314453125 734.775390625 159.348632812 734.80078125 c 0
 159.348632812 740.80078125 165.80859375 746 174.168945312 746 c 0
 182.528320312 746 188.818359375 740.80078125 188.989257812 734.80078125 c 2
EndSplineSet
AlternateSubs2: "'salt' Stylistic Alternatives in Latin lookup 0 subtable" uniE006
EndChar

StartChar: plus
Encoding: 43 43 12
Width: 595
GlyphClass: 2
Flags: MW
HStem: 288.904 74.0996<79.3154 79.3154 79.3154 79.3164 79.3154 263.273>
VStem: 263.272 74.0996
LayerCount: 2
Back
Fore
SplineSet
521.329101562 288.904296875 m 2
 337.463867188 288.904296875 l 1
 337.481445312 189.413085938 337.469726562 100.38671875 337.373046875 100.311523438 c 0
 337.373046875 84.048828125 321.223632812 69.9541015625 300.323242188 69.9541015625 c 0
 279.423828125 69.9541015625 263.69921875 84.048828125 263.2734375 100.311523438 c 2
 263.2734375 288.904296875 l 1
 79.31640625 288.904296875 l 2
 63.453125 288.904296875 49.705078125 305.0546875 49.705078125 325.954101562 c 0
 49.705078125 346.854492188 63.671875 363.004882812 79.3154296875 363.00390625 c 2
 79.3154296875 363.00390625 166.185546875 363.046875 263.272460938 363.077148438 c 1
 263.272460938 551.596679688 l 2
 263.272460938 567.859375 279.422851562 581.954101562 300.322265625 581.954101562 c 0
 321.22265625 581.954101562 337.373046875 567.635742188 337.372070312 551.59765625 c 2
 337.372070312 551.59765625 337.4140625 462.59375 337.443359375 363.09765625 c 1
 434.459960938 363.115234375 521.255859375 363.103515625 521.329101562 363.00390625 c 0
 537.192382812 363.00390625 550.940429688 346.854492188 550.940429688 325.954101562 c 0
 550.940429688 305.0546875 537.192382812 289.330078125 521.329101562 288.904296875 c 2
EndSplineSet
AlternateSubs2: "'salt' Stylistic Alternatives in Latin lookup 0 subtable" uniE005
EndChar

StartChar: comma
Encoding: 44 44 13
Width: 205
GlyphClass: 2
Flags: MW
HStem: 33.75 92.5<87.0391 103.4>
VStem: 55.7888 88.75 120.832 32.457
LayerCount: 2
Back
Fore
SplineSet
55.7890625 80 m 0xc0
 55.7890625 105 74.5390625 126.25 99.5390625 126.25 c 0
 124.5390625 126.25 144.5390625 105 144.5390625 80 c 1
 149.540039062 52.3505859375 159.5390625 7.2626953125 153.2890625 -14.7275390625 c 0
 149.5390625 -29.951171875 103.288085938 -44.046875 68.2890625 -50.25 c 1
 96.462890625 -28.4658203125 121.151367188 -18.78515625 120.83203125 39.31640625 c 1xa0
 114.505859375 35.77734375 107.260742188 33.75 99.5390625 33.75 c 0
 74.5390625 33.75 55.7890625 55 55.7890625 80 c 0xc0
EndSplineSet
EndChar

StartChar: hyphen
Encoding: 45 45 14
Width: 619
GlyphClass: 2
Flags: MW
HStem: 271.904 74.0996<89.8906 89.8916 89.8916 536.168>
LayerCount: 2
Back
Fore
SplineSet
536.16796875 271.904296875 m 2
 89.8916015625 271.904296875 l 2
 74.0283203125 271.904296875 60.2802734375 288.0546875 60.2802734375 308.954101562 c 0
 60.2802734375 329.854492188 74.2470703125 346.004882812 89.890625 346.00390625 c 2
 536.16796875 346.00390625 l 2
 552.03125 346.00390625 565.779296875 329.854492188 565.779296875 308.954101562 c 0
 565.779296875 288.0546875 552.03125 272.330078125 536.16796875 271.904296875 c 2
EndSplineSet
EndChar

StartChar: period
Encoding: 46 46 15
Width: 196
GlyphClass: 2
Flags: MW
HStem: -0.25 92.5<84.875 109.875>
VStem: 53.625 88.75<33.5 58.5>
LayerCount: 2
Back
Fore
SplineSet
53.625 46 m 0
 53.625 71 72.375 92.25 97.375 92.25 c 0
 122.375 92.25 142.375 71 142.375 46 c 0
 142.375 21 122.375 -0.25 97.375 -0.25 c 0
 72.375 -0.25 53.625 21 53.625 46 c 0
EndSplineSet
EndChar

StartChar: slash
Encoding: 47 47 16
Width: 363
GlyphClass: 2
Flags: MW
VStem: 43.4527 280.943
LayerCount: 2
Back
Fore
SplineSet
324.396484375 622.459960938 m 2
 117.552734375 29.541015625 l 2
 112.032226562 13.7158203125 91.09765625 0.0009765625 70.1982421875 0.0009765625 c 0
 49.2978515625 0.0009765625 38.0078125 13.9345703125 43.453125 29.541015625 c 2
 43.453125 29.541015625 250.030273438 622.293945312 250.296875 622.459960938 c 0
 255.817382812 638.28515625 276.750976562 652 297.651367188 652 c 0
 318.55078125 652 329.491210938 638.28515625 324.396484375 622.459960938 c 2
EndSplineSet
EndChar

StartChar: zero
Encoding: 48 48 17
Width: 734
GlyphClass: 2
Flags: MW
HStem: 0 82.4707<303.658 436.014 303.658 457.716> 536.729 82.4707<303.658 436.014>
VStem: 51.0155 78.7324 609.924 78.7324
LayerCount: 2
Back
Fore
SplineSet
129.748046875 309.599609375 m 0
 129.748046875 189.056640625 237.48046875 82.470703125 369.8359375 82.470703125 c 0
 502.19140625 82.470703125 609.923828125 189.056640625 609.923828125 309.599609375 c 0
 609.923828125 430.141601562 502.19140625 536.728515625 369.8359375 536.728515625 c 0
 237.48046875 536.728515625 129.748046875 430.141601562 129.748046875 309.599609375 c 0
51.015625 309.599609375 m 0
 51.015625 480.482421875 194.076171875 619.19921875 369.8359375 619.19921875 c 0
 545.595703125 619.19921875 688.65625 480.482421875 688.65625 309.599609375 c 0
 688.65625 138.716796875 545.595703125 0 369.8359375 0 c 0
 194.076171875 0 51.015625 138.716796875 51.015625 309.599609375 c 0
EndSplineSet
AlternateSubs2: "'salt' Stylistic Alternatives in Latin lookup 0 subtable" uniE019
EndChar

StartChar: one
Encoding: 49 49 18
Width: 305
GlyphClass: 2
Flags: MW
VStem: 184.403 74.0996
LayerCount: 2
Back
Fore
SplineSet
184.30859375 491.915039062 m 1
 114.701171875 422.299804688 l 2
 103.484375 411.08203125 81.6865234375 413.4375 66.0576171875 429.067382812 c 0
 50.427734375 444.697265625 48.2265625 466.65234375 59.2890625 477.71484375 c 2
 59.2890625 477.71484375 173.278320312 594.23828125 173.5 594.37890625 c 0
 184.481445312 605.596679688 193.693359375 626.107421875 220.142578125 623.9921875 c 0
 241.78125 623.9921875 258.0625 610.243164062 258.502929688 594.37890625 c 2
 258.502929688 29.61328125 l 2
 258.502929688 13.7490234375 242.352539062 0 221.453125 0 c 0
 200.552734375 -0 184.40234375 13.9677734375 184.403320312 29.61328125 c 2
 184.403320312 29.61328125 184.284179688 321.897460938 184.30859375 491.915039062 c 1
EndSplineSet
EndChar

StartChar: two
Encoding: 50 50 19
Width: 715
GlyphClass: 2
Flags: MW
HStem: 0.402344 74.7959<296.55 413.464 296.55 441.132> 210.55 74.7959<183.114 217.658> 503.976 74.7959<307.801 424.716>
VStem: 52.2424 82.4707 586.551 82.4707
LayerCount: 2
Back
Fore
SplineSet
638.256835938 1.1240234375 m 2
 638.256835938 1.1240234375 525.243164062 0.40234375 357.021484375 0.40234375 c 0
 188.799804688 0.40234375 52.244140625 -18.2578125 52.244140625 137.874023438 c 0
 52.244140625 297.005859375 144.591796875 285.345703125 221.635742188 285.345703125 c 0
 390.923828125 285.345703125 504.65625 284.624023438 504.65625 284.624023438 c 2
 561.8046875 284.624023438 586.552734375 329.40234375 586.552734375 393.299804688 c 0
 586.552734375 512.197265625 483.172851562 503.975585938 366.258789062 503.975585938 c 0
 249.34375 503.975585938 83.1982421875 503.950195312 83.1982421875 503.950195312 c 2
 67.47265625 503.950195312 53.84375 520.099609375 53.84375 541 c 0
 53.84375 561.899414062 67.384765625 578.049804688 83.0087890625 578.049804688 c 2
 83.0087890625 578.049804688 196.024414062 578.771484375 364.24609375 578.771484375 c 0
 532.467773438 578.771484375 669.0234375 553.431640625 669.0234375 393.299804688 c 0
 669.0234375 247.16796875 600.784179688 209.828125 500.678710938 209.828125 c 0
 331.390625 209.828125 217.658203125 210.549804688 217.658203125 210.549804688 c 2
 100.760742188 210.549804688 134.712890625 139.771484375 134.712890625 137.874023438 c 0
 134.712890625 75.9765625 238.092773438 75.1982421875 355.006835938 75.1982421875 c 0
 471.921875 75.1982421875 638.067382812 75.2236328125 638.067382812 75.2236328125 c 2
 653.79296875 75.2236328125 667.421875 59.07421875 667.421875 38.173828125 c 0
 667.421875 17.2744140625 653.880859375 1.1240234375 638.256835938 1.1240234375 c 2
EndSplineSet
EndChar

StartChar: three
Encoding: 51 51 20
Width: 802
GlyphClass: 2
Flags: MW
HStem: -0.171875 74.7959 269.922 74.0996 539.976 74.7959
VStem: 675.927 82.4707
LayerCount: 2
Back
Fore
SplineSet
78.6513671875 344.021484375 m 2
 495.317382812 344.021484375 l 2
 511.180664062 344.021484375 524.928710938 326.87109375 524.928710938 305.971679688 c 0
 524.928710938 285.071289062 510.961914062 269.920898438 495.318359375 269.921875 c 2
 78.6513671875 269.921875 l 2
 62.7880859375 269.921875 49.0400390625 286.071289062 49.0400390625 306.971679688 c 0
 49.0400390625 327.87109375 62.7880859375 343.595703125 78.6513671875 344.021484375 c 2
167.950195312 614.049804688 m 2
 167.950195312 614.049804688 281.819335938 614.767578125 451.3125 614.767578125 c 0
 620.806640625 614.767578125 758.395507812 476.799804688 758.395507812 307.295898438 c 0
 758.395507812 137.791992188 620.806640625 -0.17578125 451.313476562 -0.17578125 c 0
 281.8203125 -0.17578125 167.950195312 0.5458984375 167.950195312 0.5458984375 c 2
 152.208007812 0.5458984375 138.564453125 16.697265625 138.564453125 37.59765625 c 0
 138.564453125 58.4990234375 152.3125 74.6494140625 168.17578125 74.6494140625 c 2
 168.17578125 74.6494140625 335.772460938 74.6220703125 453.708984375 74.6220703125 c 0
 571.64453125 74.6220703125 675.926757812 179.028320312 675.926757812 307.297851562 c 0
 675.926757812 435.567382812 571.64453125 539.973632812 453.708984375 539.973632812 c 0
 335.772460938 539.973632812 168.17578125 539.946289062 168.17578125 539.946289062 c 2
 152.3125 539.946289062 138.564453125 556.096679688 138.564453125 576.998046875 c 0
 138.564453125 597.8984375 152.208007812 614.049804688 167.950195312 614.049804688 c 2
EndSplineSet
EndChar

StartChar: four
Encoding: 52 52 21
Width: 672
GlyphClass: 2
Flags: MW
HStem: 257.66 74.7959 549.32 74.7959
VStem: 440.157 74.0996
LayerCount: 2
Back
Fore
SplineSet
514.284179688 591.344726562 m 1
 514.284179688 331.7578125 l 1
 603.116210938 331.7578125 l 2
 618.979492188 331.7578125 632.727539062 315.607421875 632.727539062 294.708007812 c 0
 632.727539062 273.807617188 618.760742188 257.657226562 603.1171875 257.658203125 c 2
 603.1171875 257.658203125 568.279296875 257.614257812 514.2578125 257.584960938 c 1
 514.2578125 30.15625 l 2
 514.2578125 14.0009765625 498.107421875 -0.0009765625 477.208007812 -0.0009765625 c 0
 456.307617188 -0.0009765625 440.157226562 14.2236328125 440.158203125 30.15625 c 2
 440.158203125 30.15625 440.114257812 130.323242188 440.084960938 257.55859375 c 1
 402.879882812 257.55859375 374.779296875 257.583007812 374.723632812 257.659179688 c 0
 277.879882812 257.659179688 230.442382812 256.766601562 71.1328125 257.4296875 c 1
 25.828125 267.48828125 48.638671875 296.956054688 75.8203125 336.461914062 c 0
 183.666015625 493.208007812 277.890625 619.92578125 371.830078125 624.116210938 c 0
 523.875976562 630.610351562 514.284179688 591.344726562 514.284179688 591.344726562 c 1
440.102539062 549.857421875 m 1
 423.977539062 549.8203125 402.704101562 549.66796875 374.721679688 549.317382812 c 0
 330.017578125 548.713867188 281.594726562 501.37109375 180.000976562 350.413085938 c 0
 165.5 328.8671875 219.7734375 332.453125 374.72265625 332.453125 c 2
 374.72265625 332.453125 381.524414062 332.46484375 440.068359375 332.473632812 c 1
 440.0546875 418.651367188 440.065429688 502.55078125 440.102539062 549.857421875 c 1
EndSplineSet
AlternateSubs2: "'salt' Stylistic Alternatives in Latin lookup 0 subtable" uniE012
EndChar

StartChar: five
Encoding: 53 53 22
Width: 714
GlyphClass: 2
Flags: MW
HStem: -0.291992 74.7959 314.092 74.7959 537.215 74.7959
VStem: 51.7136 82.4707 586.022 82.4707
LayerCount: 2
Back
Fore
SplineSet
637.727539062 611.2890625 m 2
 653.3515625 611.2890625 666.890625 595.135742188 666.890625 574.235351562 c 0
 666.890625 553.333984375 653.26171875 537.18359375 637.536132812 537.18359375 c 2
 637.536132812 537.18359375 471.390625 537.211914062 354.475585938 537.211914062 c 0
 237.561523438 537.211914062 134.181640625 536.359375 134.181640625 468.528320312 c 0
 134.181640625 466.44921875 100.229492188 388.885742188 217.126953125 388.885742188 c 2
 217.126953125 388.885742188 330.859375 389.676757812 500.147460938 389.676757812 c 0
 600.252929688 389.676757812 668.4921875 350.208984375 668.4921875 195.749023438 c 0
 668.4921875 26.490234375 531.936523438 -0.2939453125 363.71484375 -0.2939453125 c 0
 195.493164062 -0.2939453125 82.4775390625 0.427734375 82.4775390625 0.427734375 c 2
 66.853515625 0.427734375 53.3125 16.5791015625 53.3125 37.4794921875 c 0
 53.3125 58.380859375 66.94140625 74.53125 82.6669921875 74.53125 c 2
 82.6669921875 74.53125 248.8125 74.50390625 365.727539062 74.50390625 c 0
 482.641601562 74.50390625 586.021484375 65.4970703125 586.021484375 195.754882812 c 0
 586.021484375 265.7578125 561.2734375 314.814453125 504.125 314.814453125 c 2
 504.125 314.814453125 390.392578125 314.092773438 221.104492188 314.092773438 c 0
 144.060546875 314.092773438 51.712890625 301.901367188 51.712890625 468.279296875 c 0
 51.712890625 631.520507812 188.268554688 612.010742188 356.490234375 612.010742188 c 0
 524.711914062 612.010742188 637.727539062 611.2890625 637.727539062 611.2890625 c 2
EndSplineSet
EndChar

StartChar: six
Encoding: 54 54 23
Width: 716
GlyphClass: 2
Flags: MW
HStem: 0 74.7979<358.633 363.621 358.633 363.621 361.454 362.538 362.538 363.621 361.454 365.351 361.454 366.443> 251.743 75.0342 503.573 74.7959<296.673 413.567>
VStem: 54.9915 82.4707 587.608 82.4707
LayerCount: 2
Back
Fore
SplineSet
406.109375 0.62890625 m 2
 406.109375 0.62890625 488.350585938 0.015625 366.443359375 0 c 2
 365.350585938 0 l 1
 362.538085938 0 l 1
 359.725585938 0 l 1
 358.6328125 0 l 2
 236.725585938 0.015625 318.963867188 0.62890625 318.963867188 0.62890625 c 2
 170.013671875 5.5205078125 54.994140625 41.1689453125 54.994140625 184.471679688 c 0
 54.994140625 233.625 63.3994140625 266.005859375 77.18359375 287.286132812 c 1
 61.771484375 308.44921875 52.244140625 341.725585938 52.244140625 393.897460938 c 0
 52.244140625 550.029296875 188.8125 578.369140625 357.049804688 578.369140625 c 0
 525.287109375 578.369140625 638.313476562 577.647460938 638.313476562 577.647460938 c 2
 653.939453125 577.647460938 667.481445312 561.497070312 667.481445312 540.59765625 c 0
 667.481445312 519.697265625 653.854492188 503.547851562 638.131835938 503.547851562 c 2
 638.131835938 503.547851562 472.014648438 503.573242188 355.120117188 503.573242188 c 0
 238.2265625 503.573242188 134.865234375 479.794921875 134.865234375 393.897460938 c 0
 134.865234375 392.145507812 115.778320312 335.720703125 195.713867188 327.274414062 c 0
 204.065429688 327.12890625 212.374023438 326.943359375 220.51171875 326.943359375 c 0
 273.177734375 326.943359375 320.46484375 326.873046875 360.62109375 326.77734375 c 0
 400.77734375 326.873046875 448.064453125 326.943359375 500.731445312 326.943359375 c 0
 577.755859375 326.943359375 670.079101562 343.603515625 670.079101562 184.471679688 c 0
 670.079101562 41.1689453125 555.059570312 5.5205078125 406.109375 0.62890625 c 2
398.8046875 251.743164062 m 0
 351.346679688 251.577148438 289.81640625 251.42578125 218.39453125 251.42578125 c 0
 212.44921875 251.42578125 206.4140625 251.328125 200.336914062 251.219726562 c 0
 117.967773438 243.224609375 137.462890625 186.234375 137.462890625 184.471679688 c 0
 137.462890625 99.4599609375 239.604492188 75.29296875 356.03515625 74.8037109375 c 0
 358.203125 74.8037109375 360.370117188 74.7978515625 362.537109375 74.7978515625 c 0
 364.704101562 74.7978515625 366.87109375 74.8037109375 369.0390625 74.8037109375 c 0
 485.469726562 75.29296875 587.611328125 99.4599609375 587.611328125 184.471679688 c 0
 587.611328125 186.352539062 609.829101562 251.17578125 506.61328125 252.13671875 c 1
 506.627929688 251.671875 506.649414062 251.42578125 506.6796875 251.42578125 c 2
 506.6796875 251.42578125 456.83984375 251.577148438 398.8046875 251.743164062 c 0
EndSplineSet
EndChar

StartChar: seven
Encoding: 55 55 24
Width: 715
GlyphClass: 2
Flags: MW
HStem: 539.976 74.7959
VStem: 587.806 73.7207 587.806 82.4707
LayerCount: 2
Back
Fore
SplineSet
587.405273438 29.8818359375 m 1xc0
 587.458007812 29.8818359375 587.806640625 182.922851562 587.806640625 309.809570312 c 0
 587.806640625 436.696289062 483.524414062 539.977539062 365.588867188 539.977539062 c 0
 247.65234375 539.977539062 80.0556640625 539.950195312 80.0556640625 539.950195312 c 2
 64.1923828125 539.950195312 50.4443359375 556.099609375 50.4443359375 577.000976562 c 0
 50.4443359375 597.900390625 64.087890625 614.05078125 79.830078125 614.05078125 c 2
 79.830078125 614.05078125 193.700195312 614.772460938 363.193359375 614.772460938 c 0
 532.6875 614.772460938 659.278320312 477.568359375 670.276367188 309.807617188 c 1xa0
 661.526367188 29.8818359375 l 2
 661.4765625 13.8740234375 645.37109375 0 624.465820312 0 c 0
 603.559570312 0 587.455078125 13.8740234375 587.405273438 29.8818359375 c 1xc0
EndSplineSet
EndChar

StartChar: eight
Encoding: 56 56 25
Width: 717
GlyphClass: 2
Flags: MW
HStem: 0.620117 74.1855<317.027 354.705 353.309 406.342> 251.625 75.1484<361 361> 503.57 74.7988<360.291 361.685 361.685 363.084>
VStem: 52.7711 82.4707 588.137 82.4707
LayerCount: 2
Back
Fore
SplineSet
525.876953125 251.159179688 m 0
 518.6640625 251.2890625 511.493164062 251.42578125 504.452148438 251.42578125 c 0
 450.654296875 251.42578125 402.470703125 251.51171875 361.685546875 251.625 c 0
 320.900390625 251.51171875 272.716796875 251.42578125 218.918945312 251.42578125 c 0
 211.877929688 251.42578125 204.7109375 251.2890625 197.498046875 251.159179688 c 0
 115.83984375 242.940429688 135.23828125 186.229492188 135.23828125 184.471679688 c 0
 135.23828125 99.5830078125 237.086914062 75.3623046875 353.30859375 74.8056640625 c 0
 356.1015625 74.8056640625 358.89453125 74.798828125 361.6875 74.798828125 c 0
 364.48046875 74.798828125 367.2734375 74.8056640625 370.06640625 74.8056640625 c 0
 486.288085938 75.3623046875 588.13671875 99.5830078125 588.13671875 184.471679688 c 0
 588.13671875 186.229492188 607.53515625 242.940429688 525.876953125 251.159179688 c 0
317.02734375 577.749023438 m 2
 317.02734375 577.749023438 239.9296875 578.346679688 355.883789062 578.368164062 c 0
 356.427734375 578.368164062 356.973632812 578.369140625 357.518554688 578.369140625 c 2
 361.684570312 578.369140625 l 1
 365.850585938 578.369140625 l 2
 366.395507812 578.369140625 366.94140625 578.368164062 367.485351562 578.368164062 c 0
 483.439453125 578.346679688 406.341796875 577.749023438 406.341796875 577.749023438 c 2
 555.434570312 572.892578125 670.602539062 537.288085938 670.602539062 393.897460938 c 0
 670.602539062 343.259765625 661.681640625 310.422851562 647.1484375 289.184570312 c 1
 661.681640625 267.946289062 670.602539062 235.109375 670.602539062 184.471679688 c 0
 670.602539062 41.0810546875 555.434570312 5.4765625 406.341796875 0.6201171875 c 2
 406.341796875 0.6201171875 483.439453125 0.0224609375 367.485351562 0.0009765625 c 0
 366.94140625 0.0009765625 366.395507812 0 365.850585938 0 c 2
 361.684570312 0 l 1
 357.518554688 0 l 2
 356.973632812 0 356.427734375 0.0009765625 355.883789062 0.0009765625 c 0
 239.9296875 0.0224609375 317.02734375 0.6201171875 317.02734375 0.6201171875 c 2
 167.934570312 5.4765625 52.7666015625 41.0810546875 52.7666015625 184.471679688 c 0
 52.7666015625 235.109375 61.6875 267.946289062 76.220703125 289.184570312 c 1
 61.6875 310.422851562 52.7666015625 343.259765625 52.7666015625 393.897460938 c 0
 52.7666015625 537.288085938 167.934570312 572.892578125 317.02734375 577.749023438 c 2
361.685546875 326.7734375 m 0
 402.50390625 326.872070312 450.706054688 326.943359375 504.456054688 326.943359375 c 0
 511.588867188 326.943359375 518.852539062 327.083984375 526.162109375 327.215820312 c 0
 607.48828125 335.455078125 588.13671875 392.141601562 588.13671875 393.897460938 c 0
 588.13671875 478.786132812 486.288085938 503.006835938 370.06640625 503.563476562 c 0
 367.2734375 503.563476562 364.48046875 503.5703125 361.6875 503.5703125 c 0
 358.89453125 503.5703125 356.1015625 503.563476562 353.30859375 503.563476562 c 0
 237.086914062 503.006835938 135.23828125 478.786132812 135.23828125 393.897460938 c 0
 135.23828125 392.141601562 115.88671875 335.455078125 197.212890625 327.215820312 c 0
 204.522460938 327.083984375 211.786132812 326.943359375 218.918945312 326.943359375 c 0
 272.668945312 326.943359375 320.8671875 326.872070312 361.685546875 326.7734375 c 0
EndSplineSet
EndChar

StartChar: nine
Encoding: 57 57 26
Width: 719
GlyphClass: 2
Flags: MW
HStem: 0 74.7959 268.585 75.0342 537.571 74.7979
VStem: 53.7171 82.4707 589.083 82.4707
LayerCount: 2
Back
Fore
SplineSet
317.70703125 611.70703125 m 2
 317.70703125 611.70703125 235.462890625 612.353515625 357.37890625 612.370117188 c 2
 358.471679688 612.370117188 l 1
 361.284179688 612.370117188 l 1
 364.096679688 612.370117188 l 1
 365.189453125 612.370117188 l 2
 487.10546875 612.353515625 404.861328125 611.704101562 404.861328125 611.704101562 c 2
 553.823242188 606.525390625 668.8515625 568.78125 668.8515625 417.0546875 c 0
 668.8515625 365.01171875 671.779296875 308.196289062 671.779296875 308.196289062 c 2
 671.556640625 195.317382812 671.556640625 250.556640625 671.556640625 195.317382812 c 0
 671.556640625 30.0068359375 534.98828125 0.0009765625 366.750976562 0.0009765625 c 0
 198.513671875 0.0009765625 85.4873046875 0.72265625 85.4873046875 0.72265625 c 2
 69.861328125 0.72265625 56.3193359375 16.8740234375 56.3193359375 37.7744140625 c 0
 56.3193359375 58.67578125 69.94921875 74.826171875 85.6767578125 74.826171875 c 2
 85.6767578125 74.826171875 251.840820312 74.7978515625 368.768554688 74.7978515625 c 0
 485.6953125 74.7978515625 589.0859375 100.861328125 589.0859375 195.014648438 c 0
 589.0859375 196.934570312 608.178710938 258.782226562 528.220703125 268.040039062 c 0
 519.866210938 268.19921875 511.5546875 268.40234375 503.4140625 268.40234375 c 0
 450.732421875 268.40234375 403.431640625 268.479492188 363.263671875 268.583984375 c 0
 323.095703125 268.479492188 275.794921875 268.40234375 223.11328125 268.40234375 c 0
 146.067382812 268.40234375 53.7177734375 250.875 53.7177734375 418.291992188 c 0
 53.7177734375 569.055664062 168.74609375 606.560546875 317.70703125 611.70703125 c 2
324.995117188 343.619140625 m 0
 372.453125 343.80078125 433.984375 343.965820312 505.40625 343.965820312 c 0
 511.3515625 343.965820312 517.38671875 344.073242188 523.462890625 344.192382812 c 0
 605.83203125 352.956054688 586.336914062 415.423828125 586.336914062 417.35546875 c 0
 586.336914062 510.538085938 484.1953125 537.028320312 367.764648438 537.564453125 c 0
 365.596679688 537.564453125 363.4296875 537.571289062 361.262695312 537.571289062 c 0
 359.095703125 537.571289062 356.928710938 537.564453125 354.760742188 537.564453125 c 0
 238.330078125 537.028320312 136.188476562 510.543945312 136.188476562 417.379882812 c 0
 136.188476562 415.318359375 113.970703125 344.278320312 217.186523438 343.225585938 c 1
 217.171875 343.709960938 217.150390625 343.966796875 217.120117188 343.966796875 c 2
 217.120117188 343.966796875 266.959960938 343.80078125 324.995117188 343.619140625 c 0
EndSplineSet
EndChar

StartChar: colon
Encoding: 58 58 27
Width: 200
GlyphClass: 2
Flags: MW
HStem: -0.5 92.5<86.875 111.875> 216 92.5<86.875 111.875>
VStem: 55.625 88.75<33.25 58.25 249.75 274.75>
LayerCount: 2
Back
Fore
SplineSet
55.625 262.25 m 0
 55.625 287.25 74.375 308.5 99.375 308.5 c 0
 124.375 308.5 144.375 287.25 144.375 262.25 c 0
 144.375 237.25 124.375 216 99.375 216 c 0
 74.375 216 55.625 237.25 55.625 262.25 c 0
55.625 45.75 m 0
 55.625 70.75 74.375 92 99.375 92 c 0
 124.375 92 144.375 70.75 144.375 45.75 c 0
 144.375 20.75 124.375 -0.5 99.375 -0.5 c 0
 74.375 -0.5 55.625 20.75 55.625 45.75 c 0
EndSplineSet
EndChar

StartChar: semicolon
Encoding: 59 59 28
Width: 206
GlyphClass: 2
Flags: MW
HStem: 11.6429 92.5 216 92.5<87.5674 112.567>
VStem: 56.3176 88.75 121.361 32.457
LayerCount: 2
Back
Fore
SplineSet
56.3173828125 57.892578125 m 0xe0
 56.3173828125 82.892578125 75.0673828125 104.142578125 100.067382812 104.142578125 c 0
 125.067382812 104.142578125 145.067382812 82.892578125 145.067382812 57.892578125 c 1
 150.068359375 34.8828125 160.067382812 -2.638671875 153.817382812 -20.9384765625 c 0
 150.067382812 -33.607421875 103.81640625 -45.337890625 68.8173828125 -50.5 c 1
 96.9912109375 -34.0322265625 121.6796875 -26.7138671875 121.360351562 17.208984375 c 1xd0
 115.034179688 13.669921875 107.7890625 11.642578125 100.067382812 11.642578125 c 0
 75.0673828125 11.642578125 56.3173828125 32.892578125 56.3173828125 57.892578125 c 0xe0
56.3173828125 262.25 m 0xe0
 56.3173828125 287.25 75.0673828125 308.5 100.067382812 308.5 c 0
 125.067382812 308.5 145.067382812 287.25 145.067382812 262.25 c 0
 145.067382812 237.25 125.067382812 216 100.067382812 216 c 0
 75.0673828125 216 56.3173828125 237.25 56.3173828125 262.25 c 0xe0
EndSplineSet
EndChar

StartChar: less
Encoding: 60 60 29
Width: 363
GlyphClass: 2
Flags: MW
VStem: 46.5 270<165.748 371.377>
LayerCount: 2
Back
Fore
SplineSet
46.5 360 m 0
 46.5 382.75390625 59.5 405.547851562 74.5 411.557617188 c 0
 74.6572265625 411.84765625 288.5 567.560546875 288.5 567.560546875 c 1
 303.29296875 572.006835938 316.5 562.7890625 316.5 545.72265625 c 0
 316.5 528.657226562 303.5 511.564453125 288.5 507.056640625 c 1
 113.166992188 360.001953125 l 1
 288.5 212.947265625 l 1
 303.5 208.439453125 316.5 191.346679688 316.5 174.28125 c 0
 316.5 157.21484375 303.29296875 147.997070312 288.5 152.443359375 c 1
 288.5 152.443359375 74.6572265625 308.15625 74.5 308.446289062 c 0
 59.5 314.456054688 46.5 337.24609375 46.5 360 c 0
EndSplineSet
EndChar

StartChar: equal
Encoding: 61 61 30
Width: 537
GlyphClass: 2
Flags: MW
HStem: 134 72<94.6348 98.8652 98.8652 443.619> 311.329 72
LayerCount: 2
Back
Fore
SplineSet
443.619140625 134 m 2
 98.865234375 134 l 2
 74.5234375 134 62.9091796875 149.333007812 62.9091796875 168 c 0
 62.9091796875 186 73.484375 198.666992188 94.634765625 206 c 1
 443.619140625 206 l 1
 469.705078125 200.666992188 482.041992188 188 480.631835938 168 c 0
 479.926757812 148 467.58984375 136.666992188 443.619140625 134 c 2
443.620117188 311.329101562 m 2
 98.8662109375 311.329101562 l 2
 74.5244140625 311.329101562 62.91015625 326.662109375 62.91015625 345.329101562 c 0
 62.91015625 363.329101562 73.4853515625 375.99609375 94.6357421875 383.329101562 c 1
 443.620117188 383.329101562 l 2
 469.984375 382.588867188 482.396484375 366.99609375 481.69140625 346.329101562 c 0
 480.986328125 326.329101562 468.295898438 314.662109375 443.620117188 311.329101562 c 2
EndSplineSet
EndChar

StartChar: greater
Encoding: 62 62 31
Width: 365
GlyphClass: 2
Flags: MW
VStem: 47.5 270<165.744 371.377 348.623 554.252>
LayerCount: 2
Back
Fore
SplineSet
317.5 360 m 0
 317.5 337.24609375 304.5 314.452148438 289.5 308.442382812 c 0
 289.342773438 308.15234375 75.5 152.439453125 75.5 152.439453125 c 1
 60.70703125 147.993164062 47.5 157.2109375 47.5 174.27734375 c 0
 47.5 191.342773438 60.5 208.435546875 75.5 212.943359375 c 1
 250.833007812 359.998046875 l 1
 75.5 507.052734375 l 1
 60.5 511.560546875 47.5 528.653320312 47.5 545.71875 c 0
 47.5 562.78515625 60.70703125 572.002929688 75.5 567.556640625 c 1
 75.5 567.556640625 289.342773438 411.84375 289.5 411.553710938 c 0
 304.5 405.543945312 317.5 382.75390625 317.5 360 c 0
EndSplineSet
EndChar

StartChar: question
Encoding: 63 63 32
Width: 621
GlyphClass: 2
Flags: MW
HStem: 0 79.5498 318.843 63.7998 550.267 64.3242
VStem: 227.681 76.3252 232.884 63.7256
LayerCount: 2
Back
Fore
SplineSet
296.609375 318.842773438 m 1xe8
 296.610351562 137.85546875 l 2
 296.610351562 123.780273438 282.720703125 111.580078125 264.747070312 111.580078125 c 0
 246.7734375 111.580078125 232.883789062 123.713867188 232.884765625 137.303710938 c 2
 232.884765625 348.603515625 l 2
 232.884765625 367.803710938 244.526367188 382.25 257.959960938 382.641601562 c 2
 496.287109375 382.641601562 l 1
 468.578125 476.249023438 405.098632812 550.265625 315.504882812 550.265625 c 0
 215.060546875 550.265625 72.3232421875 550.2421875 72.3232421875 550.2421875 c 2
 58.8125 550.2421875 47.1044921875 564.130859375 47.1044921875 582.10546875 c 0
 47.1044921875 600.080078125 58.8310546875 613.969726562 72.3623046875 613.969726562 c 2
 72.3623046875 613.969726562 170.234375 614.58984375 315.9140625 614.58984375 c 0
 461.592773438 614.58984375 579.850585938 496.92578125 579.850585938 352.366210938 c 0
 579.850585938 333.499023438 567.856445312 318.918945312 554.422851562 318.919921875 c 2
 554.422851562 318.919921875 379.03515625 318.809570312 296.609375 318.842773438 c 1xe8
227.681640625 39.7724609375 m 0xf0
 227.681640625 61.2724609375 243.806640625 79.5478515625 265.306640625 79.5478515625 c 0
 286.806640625 79.5478515625 304.006835938 61.2724609375 304.006835938 39.7724609375 c 0
 304.006835938 18.2724609375 286.806640625 -0.001953125 265.306640625 -0.001953125 c 0
 243.806640625 -0.001953125 227.681640625 18.2724609375 227.681640625 39.7724609375 c 0xf0
EndSplineSet
EndChar

StartChar: at
Encoding: 64 64 33
Width: 706
GlyphClass: 2
Flags: MW
HStem: 4.83691 74.7959 112.771 49.4824<352.417 431.831 352.417 446.778> 414.408 49.4824<352.417 422.315 340.243 431.831> 510.98 0.886719 510.984 74.7959<290.995 349.241 349.24 357.955>
VStem: 47.2718 82.4707 200.832 47.2393
LayerCount: 2
Back
Fore
SplineSet
651.017578125 130.504882812 m 0xee
 666.01171875 150.815429688 579.748046875 3.5771484375 352.924804688 4.8369140625 c 0
 184.221679688 5.7744140625 47.26953125 135.176757812 47.26953125 295.30859375 c 0
 47.26953125 455.440429688 184.254882812 585.780273438 353.005859375 585.780273438 c 0xee
 521.756835938 585.780273438 635.127929688 585.05859375 635.127929688 585.05859375 c 2
 650.801757812 585.05859375 664.385742188 568.908203125 664.385742188 548.008789062 c 0
 664.385742188 527.108398438 650.637695312 510.958984375 634.774414062 510.958984375 c 1
 586.436523438 288.331054688 l 2
 565.885742188 193.680664062 499.921875 112.771484375 393.633789062 112.771484375 c 0
 287.345703125 112.771484375 200.831054688 191.430664062 200.831054688 288.331054688 c 0
 200.831054688 385.231445312 287.192382812 463.890625 393.29296875 463.890625 c 0
 451.336914062 463.890625 503.473632812 440.348632812 538.795898438 403.158203125 c 1
 565.323242188 441.4453125 511.130859375 491.641601562 446.510742188 510.98046875 c 1
 432.345703125 510.98046875 418.10546875 510.982421875 404.077148438 510.982421875 c 1
 416.069335938 511.23828125 429.411132812 511.545898438 443.462890625 511.8671875 c 1xf6
 411.522460938 520.899414062 377.326171875 522.301757812 349.240234375 510.984375 c 1
 366.668945312 510.984375 385.180664062 510.982421875 404.077148438 510.982421875 c 1
 369.909179688 510.256835938 346.696289062 509.958984375 349.241210938 510.984375 c 1
 232.748046875 510.984375 129.741210938 414.206054688 129.741210938 295.30859375 c 0
 129.741210938 176.411132812 233.553710938 83.5029296875 350.806640625 79.6328125 c 0
 503.038085938 74.6083984375 590.501953125 176.868164062 594.56640625 181.608398438 c 0
 604.53515625 193.235351562 625.3828125 188.702148438 643.106445312 176.33203125 c 0
 671.366210938 156.608398438 641.91015625 118.254882812 651.017578125 130.504882812 c 0xee
248.0703125 288.331054688 m 0
 248.0703125 221.418945312 312.7109375 162.25390625 392.124023438 162.25390625 c 0
 471.537109375 162.25390625 536.177734375 221.418945312 536.177734375 288.331054688 c 0
 536.177734375 355.243164062 471.537109375 414.408203125 392.124023438 414.408203125 c 0
 312.7109375 414.408203125 248.0703125 355.243164062 248.0703125 288.331054688 c 0
EndSplineSet
EndChar

StartChar: A
Encoding: 65 65 34
Width: 746
GlyphClass: 2
Flags: MW
HStem: 0 82.4707<310.004 426.501> 502.729 82.4707<310.004 442.359>
VStem: 57.3607 78.7324 620.63 74.0996
LayerCount: 2
Back
Fore
SplineSet
694.729492188 10.470703125 m 2
 694.729492188 -4.529296875 620.629882812 -5.529296875 620.629882812 9.470703125 c 0
 620.629882812 40.0546875 620.63671875 70.638671875 620.63671875 101.221679688 c 1
 561.767578125 39.236328125 474.872070312 0 378.130859375 0 c 0
 201.295898438 0 57.3603515625 131.099609375 57.3603515625 292.599609375 c 0
 57.3603515625 454.099609375 200.481445312 585.19921875 376.314453125 585.19921875 c 0
 552.147460938 585.19921875 695.268554688 454.099609375 695.268554688 292.599609375 c 2
 694.729492188 10.470703125 l 2
136.09375 292.599609375 m 0
 136.09375 181.079101562 243.826171875 82.470703125 376.181640625 82.470703125 c 0
 508.537109375 82.470703125 616.26953125 181.079101562 616.26953125 292.599609375 c 0
 616.26953125 404.119140625 508.537109375 502.728515625 376.181640625 502.728515625 c 0
 243.826171875 502.728515625 136.09375 404.119140625 136.09375 292.599609375 c 0
EndSplineSet
EndChar

StartChar: B
Encoding: 66 66 35
Width: 749
GlyphClass: 2
Flags: MW
HStem: 0 82.4707<311.856 444.212 311.856 465.818> 502.729 82.4707<327.714 444.212>
VStem: 59.486 74.0996 618.122 78.7324
LayerCount: 2
Back
Fore
SplineSet
59.486328125 718.728515625 m 2
 59.486328125 733.728515625 133.5859375 734.728515625 133.5859375 719.728515625 c 0
 133.5859375 689.14453125 133.579101562 514.560546875 133.579101562 483.977539062 c 1
 192.448242188 545.962890625 279.34375 585.19921875 376.084960938 585.19921875 c 0
 552.919921875 585.19921875 696.85546875 454.099609375 696.85546875 292.599609375 c 0
 696.85546875 131.099609375 553.734375 0 377.901367188 0 c 0
 202.068359375 0 58.947265625 131.099609375 58.947265625 292.599609375 c 2
 59.486328125 718.728515625 l 2
618.122070312 292.599609375 m 0
 618.122070312 404.120117188 510.389648438 502.728515625 378.034179688 502.728515625 c 0
 245.678710938 502.728515625 137.946289062 404.120117188 137.946289062 292.599609375 c 0
 137.946289062 181.080078125 245.678710938 82.470703125 378.034179688 82.470703125 c 0
 510.389648438 82.470703125 618.122070312 181.080078125 618.122070312 292.599609375 c 0
EndSplineSet
EndChar

StartChar: C
Encoding: 67 67 36
Width: 713
GlyphClass: 2
Flags: MW
HStem: -0.171875 74.7959<295.106 413.042 295.106 441.216> 539.976 74.7959<295.106 413.042>
VStem: 49.3868 82.4707
LayerCount: 2
Back
Fore
SplineSet
639.833007812 614.049804688 m 2
 655.575195312 614.049804688 669.21875 597.899414062 669.21875 576.999023438 c 0
 669.21875 556.09765625 655.470703125 539.948242188 639.607421875 539.948242188 c 2
 639.607421875 539.948242188 472.010742188 539.975585938 354.07421875 539.975585938 c 0
 236.138671875 539.975585938 131.856445312 435.569335938 131.856445312 307.299804688 c 0
 131.856445312 179.030273438 236.138671875 74.6240234375 354.07421875 74.6240234375 c 0
 472.010742188 74.6240234375 639.607421875 74.6513671875 639.607421875 74.6513671875 c 2
 655.470703125 74.6513671875 669.21875 58.501953125 669.21875 37.6005859375 c 0
 669.21875 16.7001953125 655.575195312 0.5498046875 639.833007812 0.5498046875 c 2
 639.833007812 0.5498046875 525.962890625 -0.171875 356.46875 -0.171875 c 0
 186.975585938 -0.171875 49.38671875 137.795898438 49.38671875 307.299804688 c 0
 49.38671875 476.803710938 186.975585938 614.771484375 356.46875 614.771484375 c 0
 525.962890625 614.771484375 639.833007812 614.049804688 639.833007812 614.049804688 c 2
EndSplineSet
EndChar

StartChar: D
Encoding: 68 68 37
Width: 747
GlyphClass: 2
Flags: MW
HStem: 0 82.4707<310.532 442.888 310.532 464.742> 502.729 82.4707<310.532 427.031 290.243 442.888>
VStem: 57.8894 78.7324 621.166 74.6025
LayerCount: 2
Back
Fore
SplineSet
695.258789062 718.728515625 m 2
 695.768554688 292.599609375 l 2
 695.768554688 131.099609375 552.654296875 0 376.829101562 0 c 0
 201.00390625 0 57.8896484375 131.099609375 57.8896484375 292.599609375 c 0
 57.8896484375 454.099609375 201.825195312 585.19921875 378.66015625 585.19921875 c 0
 475.401367188 585.19921875 562.296875 545.962890625 621.166015625 483.977539062 c 1
 621.166015625 514.560546875 621.159179688 689.14453125 621.159179688 719.728515625 c 0
 621.159179688 734.728515625 695.258789062 733.728515625 695.258789062 718.728515625 c 2
136.622070312 292.599609375 m 0
 136.622070312 181.080078125 244.354492188 82.470703125 376.709960938 82.470703125 c 0
 509.065429688 82.470703125 616.797851562 181.080078125 616.797851562 292.599609375 c 0
 616.797851562 404.120117188 509.065429688 502.728515625 376.709960938 502.728515625 c 0
 244.354492188 502.728515625 136.622070312 404.120117188 136.622070312 292.599609375 c 0
EndSplineSet
EndChar

StartChar: E
Encoding: 69 69 38
Width: 710
GlyphClass: 2
Flags: W
LayerCount: 2
Back
Fore
SplineSet
663.506835938 165.966796875 m 0
 597.116210938 100.610351562 614.095703125 101.287109375 520.465820312 43.060546875 c 0
 382.73046875 -42.59375 171.115234375 -3.853515625 85.7197265625 144.115234375 c 0
 0.32421875 292.083984375 56.658203125 484.774414062 211.033203125 573.9375 c 0
 337.19140625 646.8046875 490.46484375 628.373046875 588.888671875 538.443359375 c 0
 610.901367188 518.330078125 666.087890625 480.416015625 641.764648438 458.19921875 c 0
 575.673828125 394.526367188 506.212890625 334.637695312 434.489257812 277.290039062 c 0
 421.989257812 267.51953125 398.125 263.638671875 384.517578125 281.0625 c 0
 370.91015625 298.486328125 371.873046875 319.64453125 383.728515625 330.186523438 c 0
 412.282226562 355.577148438 556.801757812 464.73046875 531.783203125 476.5703125 c 0
 446.8359375 516.768554688 347.610351562 552.072265625 254.642578125 498.375 c 0
 140.01953125 432.171875 98.861328125 287.9375 157.829101562 185.76171875 c 0
 216.796875 83.5849609375 373.970703125 30.041015625 476.860351562 113.33203125 c 2
 606.45703125 218.2421875 l 2
 618.7890625 228.225585938 637.471679688 231.133789062 654.45703125 216.985351562 c 0
 671.443359375 202.836914062 674.8125 177.095703125 663.506835938 165.966796875 c 0
EndSplineSet
AlternateSubs2: "'salt' Stylistic Alternatives in Latin lookup 0 subtable" uniE00A
EndChar

StartChar: F
Encoding: 70 70 39
Width: 714
GlyphClass: 2
Flags: MW
HStem: 300.965 74.0996 539.976 74.7959
VStem: 59.169 74.0996
LayerCount: 2
Back
Fore
SplineSet
589.010742188 300.96484375 m 2
 192.438476562 300.96484375 l 2
 176.575195312 300.96484375 162.827148438 317.115234375 162.827148438 338.014648438 c 0
 162.827148438 358.915039062 176.793945312 375.065429688 192.4375 375.064453125 c 2
 589.010742188 375.064453125 l 2
 604.874023438 375.064453125 618.622070312 358.915039062 618.622070312 338.014648438 c 0
 618.622070312 317.115234375 604.874023438 301.390625 589.010742188 300.96484375 c 2
133.26953125 30.2041015625 m 1
 133.219726562 14.0234375 117.120117188 -0.001953125 96.2197265625 -0.001953125 c 0
 75.3203125 -0.001953125 59.2197265625 14.021484375 59.169921875 30.2021484375 c 1
 59.22265625 30.2021484375 49.9169921875 312.262695312 49.9169921875 312.262695312 c 1
 60.923828125 478.671875 187.612304688 614.770507812 357.237304688 614.770507812 c 0
 526.862304688 614.770507812 640.821289062 614.048828125 640.821289062 614.048828125 c 2
 656.576171875 614.048828125 670.23046875 597.8984375 670.23046875 576.998046875 c 0
 670.23046875 556.096679688 656.483398438 539.947265625 640.62109375 539.947265625 c 2
 640.62109375 539.947265625 473.03125 539.974609375 355.099609375 539.974609375 c 0
 237.168945312 539.974609375 132.890625 436.758789062 132.890625 309.952148438 c 0
 132.890625 183.145507812 133.219726562 30.2041015625 133.26953125 30.2041015625 c 1
EndSplineSet
EndChar

StartChar: G
Encoding: 71 71 40
Width: 725
GlyphClass: 2
Flags: MW
HStem: -0.171875 74.7959 539.976 74.7959
VStem: 58.3758 82.4707 599.841 74.1035
LayerCount: 2
Back
Fore
SplineSet
644.760742188 614.049804688 m 2
 660.39453125 614.049804688 673.948242188 597.897460938 673.948242188 576.997070312 c 0
 673.948242188 556.095703125 660.309570312 539.946289062 644.572265625 539.946289062 c 2
 644.572265625 539.946289062 478.3046875 539.973632812 361.303710938 539.973632812 c 0
 244.303710938 539.973632812 140.848632812 435.567382812 140.848632812 307.297851562 c 0
 140.848632812 179.028320312 245.130859375 74.6220703125 363.06640625 74.6220703125 c 0
 441.271484375 74.6220703125 541.314453125 74.6337890625 599.842773438 74.642578125 c 1
 599.8203125 327.041015625 l 2
 599.819335938 343.223632812 615.969726562 357.248046875 636.870117188 357.248046875 c 0
 657.76953125 357.248046875 673.919921875 343.451171875 673.919921875 327.53125 c 2
 673.9453125 39.9150390625 l 2
 673.932617188 17.71875 660.387695312 0.59375 644.760742188 0.59375 c 2
 644.760742188 0.59375 531.673828125 -0.171875 363.345703125 -0.171875 c 0
 195.017578125 -0.171875 58.375 137.795898438 58.375 307.299804688 c 0
 58.375 476.803710938 195.017578125 614.771484375 363.345703125 614.771484375 c 0
 531.673828125 614.771484375 644.760742188 614.049804688 644.760742188 614.049804688 c 2
EndSplineSet
AlternateSubs2: "'salt' Stylistic Alternatives in Latin lookup 0 subtable" uniE003
EndChar

StartChar: H
Encoding: 72 72 41
Width: 686
GlyphClass: 2
Flags: MW
HStem: 425.533 82.4707
VStem: 61.2727 74.1562 557.468 74.7959
LayerCount: 2
Back
Fore
SplineSet
98.107421875 0 m 2
 77.193359375 0 61.0302734375 13.8271484375 61.0302734375 29.779296875 c 2
 61.0302734375 29.779296875 60.3076171875 30.310546875 60.3076171875 202.064453125 c 0
 60.3076171875 210.407226562 60.6328125 218.672851562 61.271484375 226.850585938 c 0
 61.2294921875 398.665039062 61.2001953125 622.122070312 61.328125 622.223632812 c 0
 61.328125 638.17578125 77.4775390625 652.000976562 98.3779296875 652.000976562 c 0
 119.27734375 652.000976562 135.001953125 638.46875 135.427734375 622.85546875 c 2
 135.427734375 410.666992188 l 1
 191.202148438 470.431640625 252.927734375 508.00390625 342.396484375 508.00390625 c 0
 510.286132812 508.00390625 632.262695312 370.002929688 632.262695312 200.001953125 c 0
 632.262695312 30.0009765625 631.541015625 29.474609375 631.541015625 29.474609375 c 2
 631.541015625 13.6845703125 615.390625 0 594.491210938 0 c 0
 573.590820312 -0 557.44140625 13.8251953125 557.44140625 29.77734375 c 2
 557.44140625 29.77734375 557.46875 83.4619140625 557.46875 202.0625 c 0
 557.46875 320.662109375 469.927734375 425.532226562 344.190429688 425.532226562 c 0
 222.313476562 425.532226562 141.448242188 327.002929688 135.4296875 212.944335938 c 1
 135.4296875 29.77734375 l 2
 135.4296875 13.8251953125 119.267578125 0 98.353515625 0 c 2
 98.107421875 0 l 2
EndSplineSet
AlternateSubs2: "'salt' Stylistic Alternatives in Latin lookup 0 subtable" uniE004
EndChar

StartChar: I
Encoding: 73 73 42
Width: 197
GlyphClass: 2
Flags: MW
VStem: 65.0339 74.0996
LayerCount: 2
Back
Fore
SplineSet
139.133789062 594.38671875 m 2
 139.133789062 29.6142578125 l 2
 139.133789062 13.75 122.983398438 0.0009765625 102.083984375 0.0009765625 c 0
 81.18359375 0.0009765625 65.033203125 13.96875 65.0341796875 29.6142578125 c 2
 65.0341796875 594.38671875 l 2
 65.0341796875 610.250976562 81.18359375 624 102.083984375 624 c 0
 122.983398438 624 138.708007812 610.250976562 139.133789062 594.38671875 c 2
EndSplineSet
EndChar

StartChar: J
Encoding: 74 74 43
Width: 720
GlyphClass: 2
Flags: MW
HStem: 0 74.7959
VStem: 590.049 74.0996 590.428 82.4707
LayerCount: 2
Back
Fore
SplineSet
590.048828125 584.889648438 m 1xc0
 590.098632812 600.897460938 606.197265625 614.774414062 627.09765625 614.774414062 c 0
 647.997070312 614.774414062 664.09765625 600.900390625 664.147460938 584.892578125 c 1xc0
 664.09765625 584.892578125 672.897460938 304.966796875 672.897460938 304.966796875 c 1
 661.899414062 137.206054688 535.313476562 0.001953125 365.826171875 0.001953125 c 0
 196.338867188 0.001953125 82.47265625 0.7236328125 82.47265625 0.7236328125 c 2
 66.73046875 0.7236328125 53.087890625 16.8740234375 53.087890625 37.7734375 c 0
 53.087890625 58.6748046875 66.8349609375 74.82421875 82.697265625 74.82421875 c 2
 82.697265625 74.82421875 250.287109375 74.796875 368.21875 74.796875 c 0
 486.149414062 74.796875 590.427734375 178.078125 590.427734375 304.96484375 c 0xa0
 590.427734375 431.8515625 590.098632812 584.889648438 590.048828125 584.889648438 c 1xc0
EndSplineSet
EndChar

StartChar: K
Encoding: 75 75 44
Width: 594
GlyphClass: 2
Flags: MW
VStem: 50.3721 74.0996
LayerCount: 2
Back
Fore
SplineSet
546.251953125 29.5400390625 m 0
 555.684570312 13.93359375 542.755859375 -0.0009765625 515.126953125 -0.0009765625 c 0
 487.5 -0.0009765625 457.861328125 13.7138671875 448.296875 29.5390625 c 2
 302.899414062 279.0234375 l 1
 154.623046875 29.5390625 l 2
 145.217773438 13.7138671875 116.071289062 -0.0009765625 88.9033203125 -0.0009765625 c 0
 71.748046875 -0.0009765625 60.3564453125 5.5546875 56.6240234375 13.5771484375 c 0
 52.654296875 18.26171875 50.373046875 23.7861328125 50.373046875 29.5390625 c 2
 50.373046875 622.458007812 l 2
 50.373046875 638.283203125 66.5224609375 651.998046875 87.4228515625 651.998046875 c 0
 108.322265625 651.998046875 124.046875 638.283203125 124.47265625 622.458007812 c 2
 124.47265625 145.947265625 l 1
 161.903320312 207.919921875 209.543945312 286.790039062 255.251953125 362.444335938 c 1
 253.173828125 370.807617188 257.571289062 378.127929688 267.272460938 382.340820312 c 1
 344.130859375 509.548828125 412.340820312 622.38671875 412.504882812 622.458984375 c 0
 422.069335938 638.284179688 451.706054688 651.999023438 479.334960938 651.999023438 c 0
 506.961914062 651.999023438 519.459960938 638.284179688 510.458984375 622.458984375 c 2
 352.436523438 360.990234375 l 2
 354.044921875 359.115234375 544.25390625 32.96875 546.251953125 29.5400390625 c 0
EndSplineSet
EndChar

StartChar: L
Encoding: 76 76 45
Width: 710
GlyphClass: 2
Flags: MW
HStem: 0 74.7959
VStem: 47.8006 82.4707 56.5506 73.7207
LayerCount: 2
Back
Fore
SplineSet
130.671875 584.889648438 m 1xa0
 130.619140625 584.889648438 130.26953125 431.848632812 130.26953125 304.961914062 c 0
 130.26953125 178.075195312 234.551757812 74.7939453125 352.487304688 74.7939453125 c 0
 470.423828125 74.7939453125 638.020507812 74.8212890625 638.020507812 74.8212890625 c 2
 653.883789062 74.8212890625 667.631835938 58.671875 667.631835938 37.7705078125 c 0
 667.631835938 16.87109375 653.98828125 0.720703125 638.24609375 0.720703125 c 2
 638.24609375 0.720703125 524.375976562 -0.0009765625 354.8828125 -0.0009765625 c 0
 185.389648438 -0.0009765625 58.798828125 137.203125 47.80078125 304.963867188 c 1xc0
 56.55078125 584.889648438 l 2
 56.6005859375 600.897460938 72.7060546875 614.771484375 93.611328125 614.771484375 c 0
 114.517578125 614.771484375 130.622070312 600.897460938 130.671875 584.889648438 c 1xa0
EndSplineSet
EndChar

StartChar: M
Encoding: 77 77 46
Width: 1107
GlyphClass: 2
Flags: MW
HStem: 542.129 82.4707
VStem: 62.3467 74.7949 520.339 74.7969 977.276 74.7949
LayerCount: 2
Back
Fore
SplineSet
1051.35058594 29.6123046875 m 2
 1051.35058594 13.7490234375 1035.19628906 0.0009765625 1014.29589844 0.0009765625 c 0
 993.395507812 0.0009765625 977.247070312 13.87109375 977.247070312 29.875 c 2
 977.247070312 29.875 977.2734375 198.958984375 977.2734375 317.94140625 c 0
 977.2734375 436.922851562 911.940429688 542.130859375 786.204101562 542.130859375 c 0
 660.465820312 542.130859375 595.134765625 436.922851562 595.134765625 317.94140625 c 0
 595.134765625 198.958984375 595.162109375 29.875 595.162109375 29.875 c 2
 595.162109375 13.87109375 579.010742188 0.0009765625 558.109375 0.0009765625 c 0
 557.985351562 0.0009765625 557.860351562 0.001953125 557.736328125 0.001953125 c 0
 557.611328125 0.001953125 557.487304688 0.0009765625 557.36328125 0.0009765625 c 0
 536.461914062 0.0009765625 520.310546875 13.87109375 520.310546875 29.875 c 2
 520.310546875 29.875 520.336914062 198.958984375 520.336914062 317.94140625 c 0
 520.336914062 436.922851562 455.005859375 542.130859375 329.267578125 542.130859375 c 0
 203.53125 542.130859375 137.140625 436.922851562 137.140625 317.94140625 c 0
 137.140625 198.958984375 137.166992188 29.875 137.166992188 29.875 c 2
 137.166992188 13.87109375 121.018554688 0.0009765625 100.118164062 0.0009765625 c 0
 79.2177734375 0.0009765625 63.0673828125 13.7490234375 63.0673828125 29.6123046875 c 2
 63.0673828125 29.6123046875 62.3466796875 144.358398438 62.3466796875 315.155273438 c 0
 62.3466796875 485.952148438 162.918945312 624.598632812 330.083984375 624.598632812 c 0
 443.262695312 624.598632812 505.646484375 562.708984375 557.73828125 471.115234375 c 1
 609.828125 562.708984375 672.209960938 624.598632812 785.385742188 624.598632812 c 0
 952.545898438 624.598632812 1052.07128906 485.952148438 1052.07128906 315.155273438 c 0
 1052.07128906 144.358398438 1051.35058594 29.6123046875 1051.35058594 29.6123046875 c 2
EndSplineSet
EndChar

StartChar: N
Encoding: 78 78 47
Width: 723
GlyphClass: 2
Flags: MW
HStem: 542.129 82.4707
VStem: 62.4242 74.7959 593.387 74.7959
LayerCount: 2
Back
Fore
SplineSet
667.4609375 29.6123046875 m 2
 667.4609375 13.7490234375 651.306640625 0.0009765625 630.407226562 0.0009765625 c 0
 609.506835938 0.0009765625 593.357421875 13.87109375 593.357421875 29.875 c 2
 593.357421875 29.875 593.384765625 198.958984375 593.384765625 317.94140625 c 0
 593.384765625 436.922851562 491.0390625 542.130859375 365.301757812 542.130859375 c 0
 239.564453125 542.130859375 137.21875 436.922851562 137.21875 317.94140625 c 0
 137.21875 198.958984375 137.24609375 29.875 137.24609375 29.875 c 2
 137.24609375 13.87109375 121.096679688 0.0009765625 100.196289062 0.0009765625 c 0
 79.296875 0.0009765625 63.146484375 13.7490234375 63.146484375 29.6123046875 c 2
 63.146484375 29.6123046875 62.4248046875 144.358398438 62.4248046875 315.155273438 c 0
 62.4248046875 485.952148438 198.33203125 624.598632812 365.303710938 624.598632812 c 0
 532.275390625 624.598632812 668.182617188 485.952148438 668.182617188 315.155273438 c 0
 668.182617188 144.358398438 667.4609375 29.6123046875 667.4609375 29.6123046875 c 2
EndSplineSet
EndChar

StartChar: O
Encoding: 79 79 48
Width: 742
GlyphClass: 2
Flags: MW
HStem: 0 82.4707<307.888 440.243 307.888 461.945> 536.729 82.4707<307.888 440.243>
VStem: 55.2456 78.7324 614.154 78.7324
LayerCount: 2
Back
Fore
SplineSet
133.977539062 309.599609375 m 0
 133.977539062 189.056640625 241.709960938 82.470703125 374.065429688 82.470703125 c 0
 506.420898438 82.470703125 614.153320312 189.056640625 614.153320312 309.599609375 c 0
 614.153320312 430.141601562 506.420898438 536.728515625 374.065429688 536.728515625 c 0
 241.709960938 536.728515625 133.977539062 430.141601562 133.977539062 309.599609375 c 0
55.2451171875 309.599609375 m 0
 55.2451171875 480.482421875 198.305664062 619.19921875 374.065429688 619.19921875 c 0
 549.825195312 619.19921875 692.885742188 480.482421875 692.885742188 309.599609375 c 0
 692.885742188 138.716796875 549.825195312 0 374.065429688 0 c 0
 198.305664062 0 55.2451171875 138.716796875 55.2451171875 309.599609375 c 0
EndSplineSet
EndChar

StartChar: P
Encoding: 80 80 49
Width: 752
GlyphClass: 2
Flags: MW
HStem: 6.91484 82.4707 536.729 82.4707
VStem: 61.0723 74.0996 619.708 78.7324
LayerCount: 2
Back
Fore
SplineSet
61.072265625 -94.787109375 m 2
 60.533203125 312.302734375 l 2
 60.533203125 481.693359375 203.654296875 619.198242188 379.487304688 619.198242188 c 0
 555.3203125 619.198242188 698.44140625 482.03125 698.44140625 313.056640625 c 0
 698.44140625 144.08203125 554.505859375 6.9150390625 377.670898438 6.9150390625 c 0
 280.9296875 6.9150390625 194.034179688 46.6201171875 135.165039062 109.345703125 c 1
 135.165039062 77.61328125 135.171875 -64.1025390625 135.171875 -95.8359375 c 0
 135.171875 -111.568359375 61.072265625 -110.51953125 61.072265625 -94.787109375 c 2
619.708007812 313.055664062 m 0
 619.708007812 431.762695312 511.975585938 536.727539062 379.620117188 536.727539062 c 0
 247.264648438 536.727539062 139.532226562 431.762695312 139.532226562 313.055664062 c 0
 139.532226562 194.34765625 247.264648438 89.3837890625 379.620117188 89.3837890625 c 0
 511.975585938 89.3837890625 619.708007812 194.34765625 619.708007812 313.055664062 c 0
EndSplineSet
EndChar

StartChar: Q
Encoding: 81 81 50
Width: 746
GlyphClass: 2
Flags: MW
HStem: 6.91484 82.4707 536.729 82.4707
VStem: 57.3607 78.7324 620.63 74.0996
LayerCount: 2
Back
Fore
SplineSet
694.729492188 -94.787109375 m 2
 694.729492188 -110.51953125 620.629882812 -111.567382812 620.629882812 -95.8349609375 c 0
 620.629882812 -64.1015625 620.63671875 77.6142578125 620.63671875 109.346679688 c 1
 561.767578125 46.62109375 474.872070312 6.916015625 378.130859375 6.916015625 c 0
 201.295898438 6.916015625 57.3603515625 144.083007812 57.3603515625 313.057617188 c 0
 57.3603515625 482.032226562 200.481445312 619.19921875 376.314453125 619.19921875 c 0
 552.147460938 619.19921875 695.268554688 481.694335938 695.268554688 312.303710938 c 2
 694.729492188 -94.787109375 l 2
136.09375 313.057617188 m 0
 136.09375 194.349609375 243.826171875 89.3857421875 376.181640625 89.3857421875 c 0
 508.537109375 89.3857421875 616.26953125 194.349609375 616.26953125 313.057617188 c 0
 616.26953125 431.764648438 508.537109375 536.729492188 376.181640625 536.729492188 c 0
 243.826171875 536.729492188 136.09375 431.764648438 136.09375 313.057617188 c 0
EndSplineSet
EndChar

StartChar: R
Encoding: 82 82 51
Width: 715
GlyphClass: 2
Flags: MW
HStem: 539.976 74.7959
VStem: 59.6978 74.0996
LayerCount: 2
Back
Fore
SplineSet
133.796875 29.8818359375 m 1
 133.747070312 13.8740234375 117.647460938 -0.0029296875 96.7470703125 -0.0029296875 c 0
 75.84765625 -0.0029296875 59.7470703125 13.87109375 59.697265625 29.87890625 c 1
 59.75 29.87890625 50.4443359375 309.8046875 50.4443359375 309.8046875 c 1
 61.451171875 477.565429688 188.139648438 614.76953125 357.764648438 614.76953125 c 0
 527.389648438 614.76953125 641.348632812 614.047851562 641.348632812 614.047851562 c 2
 657.103515625 614.047851562 670.7578125 597.897460938 670.7578125 576.998046875 c 0
 670.7578125 556.096679688 657.010742188 539.947265625 641.1484375 539.947265625 c 2
 641.1484375 539.947265625 473.55859375 539.974609375 355.626953125 539.974609375 c 0
 237.696289062 539.974609375 133.41796875 436.693359375 133.41796875 309.806640625 c 0
 133.41796875 182.919921875 133.747070312 29.8818359375 133.796875 29.8818359375 c 1
EndSplineSet
EndChar

StartChar: S
Encoding: 83 83 52
Width: 721
GlyphClass: 2
Flags: MW
HStem: 0 74.7959 268.391 74.7959 537.573 74.7959
VStem: 54.8862 82.4707 590.252 82.4707
LayerCount: 2
Back
Fore
SplineSet
503.328125 343.977539062 m 0
 580.374023438 343.977539062 672.723632812 361.506835938 672.723632812 194.083984375 c 0
 672.723632812 29.8173828125 536.155273438 0.0009765625 367.91796875 0.0009765625 c 0
 199.680664062 0.0009765625 86.654296875 0.72265625 86.654296875 0.72265625 c 2
 71.0283203125 0.72265625 57.486328125 16.8740234375 57.486328125 37.7744140625 c 0
 57.486328125 58.67578125 71.1162109375 74.826171875 86.84375 74.826171875 c 2
 86.84375 74.826171875 253.0078125 74.7978515625 369.935546875 74.7978515625 c 0
 486.862304688 74.7978515625 590.252929688 100.850585938 590.252929688 194.96484375 c 0
 590.252929688 197.043945312 612.655273438 269.272460938 507.307617188 269.114257812 c 0
 506.783203125 269.258789062 393.573242188 268.392578125 224.282226562 268.392578125 c 0
 147.236328125 268.392578125 54.88671875 250.864257812 54.88671875 418.287109375 c 0
 54.88671875 582.553710938 191.455078125 612.370117188 359.692382812 612.370117188 c 0
 527.9296875 612.370117188 640.956054688 611.6484375 640.956054688 611.6484375 c 2
 656.58203125 611.6484375 670.124023438 595.497070312 670.124023438 574.596679688 c 0
 670.124023438 553.6953125 656.494140625 537.544921875 640.766601562 537.544921875 c 2
 640.766601562 537.544921875 474.602539062 537.573242188 357.674804688 537.573242188 c 0
 240.748046875 537.573242188 137.357421875 511.510742188 137.357421875 417.36328125 c 0
 137.357421875 415.283203125 114.956054688 342.892578125 220.302734375 343.186523438 c 2
 220.302734375 343.186523438 334.037109375 343.977539062 503.328125 343.977539062 c 0
EndSplineSet
AlternateSubs2: "'salt' Stylistic Alternatives in Latin lookup 0 subtable" uniE016
EndChar

StartChar: T
Encoding: 84 84 53
Width: 608
GlyphClass: 2
Flags: MW
HStem: 549.754 74.168
VStem: 269.617 74.0996
LayerCount: 2
Back
Fore
SplineSet
70.6181640625 623.921875 m 2
 292.399414062 623.922851562 l 2
 296.7890625 625.259765625 301.59375 626.000976562 306.665039062 626.000976562 c 0
 311.736328125 626.000976562 316.516601562 625.259765625 320.875976562 623.922851562 c 2
 542.713867188 623.922851562 l 2
 558.450195312 623.922851562 572.088867188 607.772460938 572.088867188 586.873046875 c 0
 572.088867188 565.97265625 558.122070312 549.822265625 542.478515625 549.823242188 c 2
 542.478515625 549.823242188 448.288085938 549.782226562 343.715820312 549.754882812 c 1
 343.715820312 29.83984375 l 2
 343.715820312 13.8544921875 327.565429688 0.0009765625 306.666015625 0.0009765625 c 0
 285.765625 0.0009765625 269.615234375 14.0751953125 269.616210938 29.83984375 c 2
 269.616210938 29.83984375 269.46875 404.70703125 269.537109375 549.736328125 c 1
 165.037109375 549.719726562 70.9287109375 549.729492188 70.8544921875 549.822265625 c 0
 54.9912109375 549.822265625 41.2431640625 565.971679688 41.2431640625 586.872070312 c 0
 41.2431640625 607.771484375 54.8818359375 623.49609375 70.6181640625 623.921875 c 2
EndSplineSet
EndChar

StartChar: U
Encoding: 85 85 54
Width: 720
GlyphClass: 2
Flags: MW
HStem: 0 82.4707
VStem: 60.8379 74.7959 591.801 74.7959
LayerCount: 2
Back
Fore
SplineSet
665.875 594.987304688 m 2
 665.875 594.987304688 666.599609375 480.241210938 666.599609375 309.444335938 c 0
 666.599609375 138.647460938 530.692382812 0.0009765625 363.720703125 0.0009765625 c 0
 196.749023438 0.0009765625 60.841796875 138.647460938 60.841796875 309.444335938 c 0
 60.841796875 480.241210938 61.5634765625 594.987304688 61.5634765625 594.987304688 c 2
 61.5634765625 610.850585938 77.7138671875 624.598632812 98.61328125 624.598632812 c 0
 119.513671875 624.598632812 135.663085938 610.728515625 135.663085938 594.724609375 c 2
 135.663085938 594.724609375 135.63671875 425.640625 135.63671875 306.658203125 c 0
 135.63671875 187.676757812 237.982421875 82.46875 363.719726562 82.46875 c 0
 489.45703125 82.46875 591.802734375 187.676757812 591.802734375 306.658203125 c 0
 591.802734375 425.640625 591.775390625 594.724609375 591.775390625 594.724609375 c 2
 591.775390625 610.728515625 607.924804688 624.598632812 628.825195312 624.598632812 c 0
 649.724609375 624.598632812 665.875 610.850585938 665.875 594.987304688 c 2
EndSplineSet
EndChar

StartChar: V
Encoding: 86 86 55
Width: 615
GlyphClass: 2
Flags: MW
HStem: -0.72168 0.72168 0 74.0742
VStem: 487.7 74.0996 488.079 82.4707
LayerCount: 2
Back
Fore
SplineSet
268.471679688 74.0908203125 m 2x40
 265.8828125 74.07421875 l 2
 266.74609375 74.07421875 267.609375 74.0908203125 268.471679688 74.0908203125 c 2x40
52.0517578125 584.35546875 m 2
 46.6640625 600.234375 58.234375 614 80.3359375 614 c 0
 102.438476562 614 124.576171875 600.125976562 130.4140625 584.118164062 c 0
 130.64453125 583.981445312 242.2890625 211.920898438 283.416992188 74.837890625 c 1
 393.94921875 84.4384765625 488.078125 183.6875 488.078125 304.245117188 c 0x90
 488.078125 431.131835938 487.749023438 584.169921875 487.69921875 584.169921875 c 1
 487.749023438 600.177734375 503.848632812 614.051757812 524.749023438 614.051757812 c 0
 545.6484375 614.051757812 561.749023438 600.177734375 561.798828125 584.169921875 c 1xa0
 561.749023438 584.169921875 570.548828125 304.244140625 570.548828125 304.244140625 c 1
 559.63671875 136.483398438 434.041992188 -0.720703125 265.881835938 -0.720703125 c 0
 95.0908203125 -0.720703125 270.112304688 0.0009765625 270.112304688 0.0009765625 c 2x90
 248.010742188 0.0009765625 225.872070312 13.7626953125 220.034179688 29.6416015625 c 2
 52.0517578125 584.35546875 l 2
EndSplineSet
AlternateSubs2: "'salt' Stylistic Alternatives in Latin lookup 0 subtable" uniE015
EndChar

StartChar: W
Encoding: 87 87 56
Width: 1105
GlyphClass: 2
Flags: MW
HStem: 0 82.4707
VStem: 61.2892 74.7949 518.224 74.7969 976.218 74.7949
LayerCount: 2
Back
Fore
SplineSet
62.009765625 594.987304688 m 2
 62.009765625 610.850585938 78.1640625 624.598632812 99.064453125 624.598632812 c 0
 119.96484375 624.598632812 136.11328125 610.728515625 136.11328125 594.724609375 c 2
 136.11328125 594.724609375 136.086914062 425.640625 136.086914062 306.658203125 c 0
 136.086914062 187.676757812 201.419921875 82.46875 327.15625 82.46875 c 0
 452.89453125 82.46875 518.225585938 187.676757812 518.225585938 306.658203125 c 0
 518.225585938 425.640625 518.19921875 594.724609375 518.19921875 594.724609375 c 2
 518.19921875 610.728515625 534.350585938 624.598632812 555.251953125 624.598632812 c 0
 555.375976562 624.598632812 555.500976562 624.59765625 555.625 624.59765625 c 0
 555.75 624.59765625 555.874023438 624.598632812 555.998046875 624.598632812 c 0
 576.899414062 624.598632812 593.05078125 610.728515625 593.05078125 594.724609375 c 2
 593.05078125 594.724609375 593.024414062 425.640625 593.024414062 306.658203125 c 0
 593.024414062 187.676757812 658.35546875 82.46875 784.09375 82.46875 c 0
 909.830078125 82.46875 976.220703125 187.676757812 976.220703125 306.658203125 c 0
 976.220703125 425.640625 976.193359375 594.724609375 976.193359375 594.724609375 c 2
 976.193359375 610.728515625 992.341796875 624.598632812 1013.2421875 624.598632812 c 0
 1034.14257812 624.598632812 1050.29296875 610.850585938 1050.29296875 594.987304688 c 2
 1050.29296875 594.987304688 1051.01367188 480.241210938 1051.01367188 309.444335938 c 0
 1051.01367188 138.647460938 950.44140625 0.0009765625 783.276367188 0.0009765625 c 0
 670.09765625 0.0009765625 607.713867188 61.890625 555.622070312 153.484375 c 1
 503.532226562 61.890625 441.150390625 0.0009765625 327.974609375 0.0009765625 c 0
 160.814453125 0.0009765625 61.2890625 138.647460938 61.2890625 309.444335938 c 0
 61.2890625 480.241210938 62.009765625 594.987304688 62.009765625 594.987304688 c 2
EndSplineSet
EndChar

StartChar: X
Encoding: 88 88 57
Width: 661
GlyphClass: 2
Flags: W
LayerCount: 2
Back
Fore
SplineSet
620.6640625 594.38671875 m 2
 382.142578125 312.052734375 l 1
 501.41015625 170.841796875 620.6640625 29.61328125 620.6640625 29.61328125 c 2
 630.440429688 13.9677734375 617.8203125 0 590.190429688 0 c 0
 562.564453125 -0 532.623046875 13.7490234375 522.7109375 29.61328125 c 2
 333.122070312 254.026367188 l 1
 143.533203125 29.61328125 l 2
 133.62109375 13.7490234375 103.6796875 0 76.0537109375 0 c 0
 48.423828125 -0 35.8037109375 13.9677734375 45.580078125 29.61328125 c 2
 45.580078125 29.61328125 164.833007812 170.841796875 284.1015625 312.052734375 c 1
 45.580078125 594.38671875 l 2
 36.2294921875 610.250976562 48.42578125 624 76.0537109375 624 c 0
 103.681640625 624 133.62109375 610.250976562 143.533203125 594.38671875 c 0
 143.6953125 594.315429688 232.311523438 489.4375 333.122070312 370.090820312 c 1
 433.931640625 489.4375 522.547851562 594.315429688 522.7109375 594.38671875 c 0
 532.623046875 610.250976562 562.5625 624 590.190429688 624 c 0
 617.818359375 624 630.014648438 610.250976562 620.6640625 594.38671875 c 2
EndSplineSet
EndChar

StartChar: Y
Encoding: 89 89 58
Width: 683
GlyphClass: 2
Flags: MW
HStem: -65.3223 74.7959 114.718 82.4707
VStem: 59.2516 74.7959 556.465 73.6746
LayerCount: 2
Back
Fore
SplineSet
593.3828125 624.599609375 m 2
 614.282226562 624.599609375 630.434570312 610.716796875 630.434570312 594.694335938 c 2
 630.434570312 594.694335938 631.15625 594.16015625 631.15625 421.6484375 c 0
 631.15625 413.268554688 630.833984375 404.965820312 630.202148438 396.751953125 c 0
 630.24609375 222.176757812 630.276367188 192.423828125 630.142578125 192.3203125 c 0
 639.068359375 8.7451171875 501.965820312 -65.3203125 332.775390625 -65.3203125 c 0
 163.584960938 -65.3203125 203.91796875 -64.5986328125 203.91796875 -64.5986328125 c 2
 188.204101562 -64.5986328125 174.584960938 -48.4482421875 174.584960938 -27.548828125 c 0
 174.584960938 -6.6484375 188.33203125 9.5009765625 204.194335938 9.5009765625 c 2
 204.194335938 9.5009765625 216.333984375 9.4736328125 334.263671875 9.4736328125 c 0
 452.192382812 9.4736328125 556.46875 49.77734375 556.46875 173.352539062 c 0
 556.46875 178.95703125 556.466796875 184.133789062 556.466796875 188.908203125 c 0
 556.25 190.098632812 556.123046875 191.307617188 556.08984375 192.528320312 c 2
 556.08984375 212.119140625 l 1
 500.315429688 152.314453125 438.58984375 114.716796875 349.12109375 114.716796875 c 0
 181.231445312 114.716796875 59.2548828125 253.227539062 59.2548828125 423.857421875 c 0
 59.2548828125 594.487304688 59.9765625 595.015625 59.9765625 595.015625 c 2
 59.9765625 610.86328125 76.126953125 624.598632812 97.0263671875 624.598632812 c 0
 117.926757812 624.598632812 134.076171875 610.711914062 134.076171875 594.689453125 c 2
 134.076171875 594.689453125 134.048828125 540.768554688 134.048828125 421.64453125 c 0
 134.048828125 302.521484375 221.588867188 197.188476562 347.326171875 197.188476562 c 0
 469.203125 197.188476562 550.068359375 296.153320312 556.086914062 410.71484375 c 1
 556.086914062 594.690429688 l 2
 556.086914062 610.712890625 572.237304688 624.599609375 593.13671875 624.599609375 c 2
 593.3828125 624.599609375 l 2
556.447265625 216.18359375 m 0
 556.37890625 271.553710938 556.159179688 219.00390625 556.098632812 212.72265625 c 1
 556.130859375 213.890625 556.249023438 215.044921875 556.447265625 216.18359375 c 0
EndSplineSet
AlternateSubs2: "'salt' Stylistic Alternatives in Latin lookup 0 subtable" uniE00D
EndChar

StartChar: Z
Encoding: 90 90 59
Width: 723
GlyphClass: 2
Flags: MW
HStem: 0 74.7959 269.182 74.7959 537.573 74.7959
VStem: 55.9437 82.4707 591.31 82.4707
LayerCount: 2
Back
Fore
SplineSet
225.338867188 343.977539062 m 0
 394.629882812 343.977539062 508.364257812 343.254882812 508.364257812 343.254882812 c 2
 613.7109375 342.9609375 591.309570312 415.326171875 591.309570312 417.405273438 c 0
 591.309570312 511.51953125 487.918945312 537.572265625 370.9921875 537.572265625 c 0
 254.064453125 537.572265625 87.900390625 537.544921875 87.900390625 537.544921875 c 2
 72.1728515625 537.544921875 58.54296875 553.6953125 58.54296875 574.596679688 c 0
 58.54296875 595.497070312 72.0849609375 611.6484375 87.7109375 611.6484375 c 2
 87.7109375 611.6484375 200.737304688 612.370117188 368.974609375 612.370117188 c 0
 537.211914062 612.370117188 673.780273438 582.553710938 673.780273438 418.287109375 c 0
 673.780273438 250.864257812 581.430664062 268.392578125 504.384765625 268.392578125 c 0
 335.09375 268.392578125 221.883789062 269.341796875 221.359375 269.18359375 c 0
 116.01171875 269.341796875 138.4140625 197.086914062 138.4140625 195.006835938 c 0
 138.4140625 100.859375 241.8046875 74.796875 358.731445312 74.796875 c 0
 475.659179688 74.796875 641.823242188 74.8251953125 641.823242188 74.8251953125 c 2
 657.55078125 74.8251953125 671.180664062 58.6748046875 671.180664062 37.7734375 c 0
 671.180664062 16.873046875 657.638671875 0.7216796875 642.012695312 0.7216796875 c 2
 642.012695312 0.7216796875 528.986328125 0 360.749023438 0 c 0
 192.51171875 -0 55.943359375 29.81640625 55.943359375 194.083007812 c 0
 55.943359375 361.505859375 148.29296875 343.977539062 225.338867188 343.977539062 c 0
EndSplineSet
AlternateSubs2: "'salt' Stylistic Alternatives in Latin lookup 0 subtable" uniE017
EndChar

StartChar: bracketleft
Encoding: 91 91 60
Width: 363
GlyphClass: 2
Flags: MW
HStem: 0.524414 79.084 539.976 74.7959<188.943 247.911 164.464 255.843>
VStem: 44.7457 82.4707
LayerCount: 2
Back
Fore
SplineSet
247.911132812 614.075195312 m 1
 263.774414062 614.075195312 277.522460938 597.924804688 277.522460938 577.025390625 c 0
 277.522460938 556.125 263.774414062 539.975585938 247.911132812 539.975585938 c 0
 129.975585938 539.975585938 127.215820312 436.6875 127.215820312 309.791992188 c 0
 127.215820312 182.896484375 129.975585938 79.6083984375 247.911132812 79.6083984375 c 0
 263.774414062 79.6083984375 277.522460938 62.373046875 277.522460938 40.06640625 c 0
 277.522460938 17.7607421875 263.774414062 0.5244140625 247.911132812 0.5244140625 c 1
 247.911132812 -0.171875 l 1
 81.017578125 -0.171875 44.74609375 137.795898438 44.74609375 307.299804688 c 0
 44.74609375 476.803710938 81.017578125 614.771484375 247.911132812 614.771484375 c 1
 247.911132812 614.075195312 l 1
EndSplineSet
EndChar

StartChar: backslash
Encoding: 92 92 61
Width: 362
GlyphClass: 2
Flags: MW
VStem: 42.7959 280.943
LayerCount: 2
Back
Fore
SplineSet
42.7958984375 622.459960938 m 2
 37.701171875 638.28515625 48.6416015625 652 69.541015625 652 c 0
 90.44140625 652 111.375 638.28515625 116.895507812 622.459960938 c 0
 117.162109375 622.293945312 323.739257812 29.541015625 323.739257812 29.541015625 c 2
 329.184570312 13.9345703125 317.89453125 0.0009765625 296.994140625 0.0009765625 c 0
 276.094726562 0.0009765625 255.16015625 13.7158203125 249.639648438 29.541015625 c 2
 42.7958984375 622.459960938 l 2
EndSplineSet
EndChar

StartChar: bracketright
Encoding: 93 93 62
Width: 366
GlyphClass: 2
Flags: MW
HStem: 0.524414 74.0996<114.307 122.238> 534.991 79.7803
VStem: 242.933 82.4707
LayerCount: 2
Back
Fore
SplineSet
122.23828125 614.075195312 m 1
 122.23828125 614.771484375 l 1
 289.131835938 614.771484375 325.403320312 476.803710938 325.403320312 307.299804688 c 0
 325.403320312 137.795898438 289.131835938 -0.171875 122.23828125 -0.171875 c 1
 122.23828125 0.5244140625 l 1
 106.375 0.5244140625 92.626953125 16.6748046875 92.626953125 37.57421875 c 0
 92.626953125 58.474609375 106.375 74.6240234375 122.23828125 74.6240234375 c 0
 240.173828125 74.6240234375 242.93359375 177.912109375 242.93359375 304.807617188 c 0
 242.93359375 431.703125 240.173828125 534.991210938 122.23828125 534.991210938 c 0
 106.375 534.991210938 92.626953125 552.2265625 92.626953125 574.533203125 c 0
 92.626953125 596.838867188 106.375 614.075195312 122.23828125 614.075195312 c 1
EndSplineSet
EndChar

StartChar: asciicircum
Encoding: 94 94 63
Width: 498
GlyphClass: 2
Flags: MW
HStem: 494 270<62.9995 262.744 240.641 440.383>
LayerCount: 2
Back
Fore
SplineSet
251.692382812 764 m 0
 273.794921875 764 295.930664062 751 301.768554688 736 c 0
 302.05078125 735.842773438 453.306640625 522 453.306640625 522 c 1
 457.625976562 507.20703125 448.671875 494 432.094726562 494 c 0
 415.518554688 494 398.915039062 507 394.536132812 522 c 1
 251.69140625 697.333007812 l 1
 108.846679688 522 l 1
 104.467773438 507 87.8642578125 494 71.2880859375 494 c 0
 54.7109375 494 45.7568359375 507.20703125 50.076171875 522 c 1
 50.076171875 522 201.33203125 735.842773438 201.614257812 736 c 0
 207.452148438 751 229.58984375 764 251.692382812 764 c 0
EndSplineSet
EndChar

StartChar: underscore
Encoding: 95 95 64
Width: 906
GlyphClass: 2
Flags: MW
HStem: -133.004 74.0996<94.1201 812.71 102.052 812.71 812.71 812.711>
LayerCount: 2
Back
Fore
SplineSet
102.051757812 -58.904296875 m 2
 812.709960938 -58.904296875 l 2
 828.573242188 -58.904296875 842.321289062 -75.0546875 842.321289062 -95.9541015625 c 0
 842.321289062 -116.854492188 828.354492188 -133.004882812 812.7109375 -133.00390625 c 2
 812.7109375 -133.00390625 102.217773438 -133.211914062 102.051757812 -133.00390625 c 0
 86.1884765625 -133.00390625 72.4404296875 -116.854492188 72.4404296875 -95.9541015625 c 0
 72.4404296875 -75.0546875 86.1884765625 -59.330078125 102.051757812 -58.904296875 c 2
EndSplineSet
EndChar

StartChar: grave
Encoding: 96 96 65
Width: 235
GlyphClass: 2
Flags: MW
HStem: 557.5 21G 607.5 92.5<64.6489 127.565>
LayerCount: 2
Back
Fore
SplineSet
54.408203125 653.75 m 0
 42.0791015625 678.75 51.4296875 700 77.8681640625 700 c 0
 104.306640625 700 135.936523438 678.75 148.265625 653.75 c 1
 163.629882812 633.318359375 190.633789062 600 192.037109375 583.75 c 0
 193.619140625 572.5 149.84375 562.083984375 115.091796875 557.5 c 1
 138.221679688 571.014648438 161.368164062 577.020507812 143.254882812 613.06640625 c 1
 138.310546875 609.52734375 131.6484375 607.5 123.482421875 607.5 c 0
 97.0439453125 607.5 66.736328125 628.75 54.408203125 653.75 c 0
EndSplineSet
EndChar

StartChar: a
Encoding: 97 97 66
Width: 746
GlyphClass: 2
Flags: MW
HStem: 0 82.4707<310.004 426.501> 502.729 82.4707<310.004 442.359>
VStem: 57.3607 78.7324 620.63 74.0996
LayerCount: 2
Back
Fore
SplineSet
694.729492188 10.470703125 m 2
 694.729492188 -4.529296875 620.629882812 -5.529296875 620.629882812 9.470703125 c 0
 620.629882812 40.0546875 620.63671875 70.638671875 620.63671875 101.221679688 c 1
 561.767578125 39.236328125 474.872070312 0 378.130859375 0 c 0
 201.295898438 0 57.3603515625 131.099609375 57.3603515625 292.599609375 c 0
 57.3603515625 454.099609375 200.481445312 585.19921875 376.314453125 585.19921875 c 0
 552.147460938 585.19921875 695.268554688 454.099609375 695.268554688 292.599609375 c 2
 694.729492188 10.470703125 l 2
136.09375 292.599609375 m 0
 136.09375 181.079101562 243.826171875 82.470703125 376.181640625 82.470703125 c 0
 508.537109375 82.470703125 616.26953125 181.079101562 616.26953125 292.599609375 c 0
 616.26953125 404.119140625 508.537109375 502.728515625 376.181640625 502.728515625 c 0
 243.826171875 502.728515625 136.09375 404.119140625 136.09375 292.599609375 c 0
EndSplineSet
EndChar

StartChar: b
Encoding: 98 98 67
Width: 749
GlyphClass: 2
Flags: MW
HStem: 0 82.4707<311.856 444.212 311.856 465.818> 502.729 82.4707<327.714 444.212>
VStem: 59.486 74.0996 618.122 78.7324
LayerCount: 2
Back
Fore
SplineSet
59.486328125 718.728515625 m 2
 59.486328125 733.728515625 133.5859375 734.728515625 133.5859375 719.728515625 c 0
 133.5859375 689.14453125 133.579101562 514.560546875 133.579101562 483.977539062 c 1
 192.448242188 545.962890625 279.34375 585.19921875 376.084960938 585.19921875 c 0
 552.919921875 585.19921875 696.85546875 454.099609375 696.85546875 292.599609375 c 0
 696.85546875 131.099609375 553.734375 0 377.901367188 0 c 0
 202.068359375 0 58.947265625 131.099609375 58.947265625 292.599609375 c 2
 59.486328125 718.728515625 l 2
618.122070312 292.599609375 m 0
 618.122070312 404.120117188 510.389648438 502.728515625 378.034179688 502.728515625 c 0
 245.678710938 502.728515625 137.946289062 404.120117188 137.946289062 292.599609375 c 0
 137.946289062 181.080078125 245.678710938 82.470703125 378.034179688 82.470703125 c 0
 510.389648438 82.470703125 618.122070312 181.080078125 618.122070312 292.599609375 c 0
EndSplineSet
EndChar

StartChar: c
Encoding: 99 99 68
Width: 713
GlyphClass: 2
Flags: MW
HStem: -0.171875 74.7959<295.106 413.042 295.106 441.216> 539.976 74.7959<295.106 413.042>
VStem: 49.3868 82.4707
LayerCount: 2
Back
Fore
SplineSet
639.833007812 614.049804688 m 2
 655.575195312 614.049804688 669.21875 597.899414062 669.21875 576.999023438 c 0
 669.21875 556.09765625 655.470703125 539.948242188 639.607421875 539.948242188 c 2
 639.607421875 539.948242188 472.010742188 539.975585938 354.07421875 539.975585938 c 0
 236.138671875 539.975585938 131.856445312 435.569335938 131.856445312 307.299804688 c 0
 131.856445312 179.030273438 236.138671875 74.6240234375 354.07421875 74.6240234375 c 0
 472.010742188 74.6240234375 639.607421875 74.6513671875 639.607421875 74.6513671875 c 2
 655.470703125 74.6513671875 669.21875 58.501953125 669.21875 37.6005859375 c 0
 669.21875 16.7001953125 655.575195312 0.5498046875 639.833007812 0.5498046875 c 2
 639.833007812 0.5498046875 525.962890625 -0.171875 356.46875 -0.171875 c 0
 186.975585938 -0.171875 49.38671875 137.795898438 49.38671875 307.299804688 c 0
 49.38671875 476.803710938 186.975585938 614.771484375 356.46875 614.771484375 c 0
 525.962890625 614.771484375 639.833007812 614.049804688 639.833007812 614.049804688 c 2
EndSplineSet
EndChar

StartChar: d
Encoding: 100 100 69
Width: 747
GlyphClass: 2
Flags: MW
HStem: 0 82.4707<310.532 442.888 310.532 464.742> 502.729 82.4707<310.532 427.031 290.243 442.888>
VStem: 57.8894 78.7324 621.166 74.6025
LayerCount: 2
Back
Fore
SplineSet
695.258789062 718.728515625 m 2
 695.768554688 292.599609375 l 2
 695.768554688 131.099609375 552.654296875 0 376.829101562 0 c 0
 201.00390625 0 57.8896484375 131.099609375 57.8896484375 292.599609375 c 0
 57.8896484375 454.099609375 201.825195312 585.19921875 378.66015625 585.19921875 c 0
 475.401367188 585.19921875 562.296875 545.962890625 621.166015625 483.977539062 c 1
 621.166015625 514.560546875 621.159179688 689.14453125 621.159179688 719.728515625 c 0
 621.159179688 734.728515625 695.258789062 733.728515625 695.258789062 718.728515625 c 2
136.622070312 292.599609375 m 0
 136.622070312 181.080078125 244.354492188 82.470703125 376.709960938 82.470703125 c 0
 509.065429688 82.470703125 616.797851562 181.080078125 616.797851562 292.599609375 c 0
 616.797851562 404.120117188 509.065429688 502.728515625 376.709960938 502.728515625 c 0
 244.354492188 502.728515625 136.622070312 404.120117188 136.622070312 292.599609375 c 0
EndSplineSet
EndChar

StartChar: e
Encoding: 101 101 70
Width: 710
GlyphClass: 2
Flags: W
LayerCount: 2
Back
Fore
SplineSet
663.506835938 165.966796875 m 0
 597.116210938 100.610351562 614.095703125 101.287109375 520.465820312 43.060546875 c 0
 382.73046875 -42.59375 171.115234375 -3.853515625 85.7197265625 144.115234375 c 0
 0.32421875 292.083984375 56.658203125 484.774414062 211.033203125 573.9375 c 0
 337.19140625 646.8046875 490.46484375 628.373046875 588.888671875 538.443359375 c 0
 610.901367188 518.330078125 666.087890625 480.416015625 641.764648438 458.19921875 c 0
 575.673828125 394.526367188 506.212890625 334.637695312 434.489257812 277.290039062 c 0
 421.989257812 267.51953125 398.125 263.638671875 384.517578125 281.0625 c 0
 370.91015625 298.486328125 371.873046875 319.64453125 383.728515625 330.186523438 c 0
 412.282226562 355.577148438 556.801757812 464.73046875 531.783203125 476.5703125 c 0
 446.8359375 516.768554688 347.610351562 552.072265625 254.642578125 498.375 c 0
 140.01953125 432.171875 98.861328125 287.9375 157.829101562 185.76171875 c 0
 216.796875 83.5849609375 373.970703125 30.041015625 476.860351562 113.33203125 c 2
 606.45703125 218.2421875 l 2
 618.7890625 228.225585938 637.471679688 231.133789062 654.45703125 216.985351562 c 0
 671.443359375 202.836914062 674.8125 177.095703125 663.506835938 165.966796875 c 0
EndSplineSet
AlternateSubs2: "'salt' Stylistic Alternatives in Latin lookup 0 subtable" uniE00A
EndChar

StartChar: f
Encoding: 102 102 71
Width: 714
GlyphClass: 2
Flags: MW
HStem: 300.965 74.0996 539.976 74.7959
VStem: 59.169 74.0996
LayerCount: 2
Back
Fore
SplineSet
589.010742188 300.96484375 m 2
 192.438476562 300.96484375 l 2
 176.575195312 300.96484375 162.827148438 317.115234375 162.827148438 338.014648438 c 0
 162.827148438 358.915039062 176.793945312 375.065429688 192.4375 375.064453125 c 2
 589.010742188 375.064453125 l 2
 604.874023438 375.064453125 618.622070312 358.915039062 618.622070312 338.014648438 c 0
 618.622070312 317.115234375 604.874023438 301.390625 589.010742188 300.96484375 c 2
133.26953125 30.2041015625 m 1
 133.219726562 14.0234375 117.120117188 -0.001953125 96.2197265625 -0.001953125 c 0
 75.3203125 -0.001953125 59.2197265625 14.021484375 59.169921875 30.2021484375 c 1
 59.22265625 30.2021484375 49.9169921875 312.262695312 49.9169921875 312.262695312 c 1
 60.923828125 478.671875 187.612304688 614.770507812 357.237304688 614.770507812 c 0
 526.862304688 614.770507812 640.821289062 614.048828125 640.821289062 614.048828125 c 2
 656.576171875 614.048828125 670.23046875 597.8984375 670.23046875 576.998046875 c 0
 670.23046875 556.096679688 656.483398438 539.947265625 640.62109375 539.947265625 c 2
 640.62109375 539.947265625 473.03125 539.974609375 355.099609375 539.974609375 c 0
 237.168945312 539.974609375 132.890625 436.758789062 132.890625 309.952148438 c 0
 132.890625 183.145507812 133.219726562 30.2041015625 133.26953125 30.2041015625 c 1
EndSplineSet
EndChar

StartChar: g
Encoding: 103 103 72
Width: 725
GlyphClass: 2
Flags: MW
HStem: -0.171875 74.7959 539.976 74.7959
VStem: 58.3758 82.4707 599.841 74.1035
LayerCount: 2
Back
Fore
SplineSet
644.760742188 614.049804688 m 2
 660.39453125 614.049804688 673.948242188 597.897460938 673.948242188 576.997070312 c 0
 673.948242188 556.095703125 660.309570312 539.946289062 644.572265625 539.946289062 c 2
 644.572265625 539.946289062 478.3046875 539.973632812 361.303710938 539.973632812 c 0
 244.303710938 539.973632812 140.848632812 435.567382812 140.848632812 307.297851562 c 0
 140.848632812 179.028320312 245.130859375 74.6220703125 363.06640625 74.6220703125 c 0
 441.271484375 74.6220703125 541.314453125 74.6337890625 599.842773438 74.642578125 c 1
 599.8203125 327.041015625 l 2
 599.819335938 343.223632812 615.969726562 357.248046875 636.870117188 357.248046875 c 0
 657.76953125 357.248046875 673.919921875 343.451171875 673.919921875 327.53125 c 2
 673.9453125 39.9150390625 l 2
 673.932617188 17.71875 660.387695312 0.59375 644.760742188 0.59375 c 2
 644.760742188 0.59375 531.673828125 -0.171875 363.345703125 -0.171875 c 0
 195.017578125 -0.171875 58.375 137.795898438 58.375 307.299804688 c 0
 58.375 476.803710938 195.017578125 614.771484375 363.345703125 614.771484375 c 0
 531.673828125 614.771484375 644.760742188 614.049804688 644.760742188 614.049804688 c 2
EndSplineSet
AlternateSubs2: "'salt' Stylistic Alternatives in Latin lookup 0 subtable" uniE003
EndChar

StartChar: h
Encoding: 104 104 73
Width: 686
GlyphClass: 2
Flags: MW
HStem: 425.533 82.4707
VStem: 61.2727 74.1562 557.468 74.7959
LayerCount: 2
Back
Fore
SplineSet
98.107421875 0 m 2
 77.193359375 0 61.0302734375 13.8271484375 61.0302734375 29.779296875 c 2
 61.0302734375 29.779296875 60.3076171875 30.310546875 60.3076171875 202.064453125 c 0
 60.3076171875 210.407226562 60.6328125 218.672851562 61.271484375 226.850585938 c 0
 61.2294921875 398.665039062 61.2001953125 622.122070312 61.328125 622.223632812 c 0
 61.328125 638.17578125 77.4775390625 652.000976562 98.3779296875 652.000976562 c 0
 119.27734375 652.000976562 135.001953125 638.46875 135.427734375 622.85546875 c 2
 135.427734375 410.666992188 l 1
 191.202148438 470.431640625 252.927734375 508.00390625 342.396484375 508.00390625 c 0
 510.286132812 508.00390625 632.262695312 370.002929688 632.262695312 200.001953125 c 0
 632.262695312 30.0009765625 631.541015625 29.474609375 631.541015625 29.474609375 c 2
 631.541015625 13.6845703125 615.390625 0 594.491210938 0 c 0
 573.590820312 -0 557.44140625 13.8251953125 557.44140625 29.77734375 c 2
 557.44140625 29.77734375 557.46875 83.4619140625 557.46875 202.0625 c 0
 557.46875 320.662109375 469.927734375 425.532226562 344.190429688 425.532226562 c 0
 222.313476562 425.532226562 141.448242188 327.002929688 135.4296875 212.944335938 c 1
 135.4296875 29.77734375 l 2
 135.4296875 13.8251953125 119.267578125 0 98.353515625 0 c 2
 98.107421875 0 l 2
EndSplineSet
AlternateSubs2: "'salt' Stylistic Alternatives in Latin lookup 0 subtable" uniE004
EndChar

StartChar: i
Encoding: 105 105 74
Width: 197
GlyphClass: 2
Flags: MW
VStem: 65.0339 74.0996
LayerCount: 2
Back
Fore
SplineSet
139.133789062 594.38671875 m 2
 139.133789062 29.6142578125 l 2
 139.133789062 13.75 122.983398438 0.0009765625 102.083984375 0.0009765625 c 0
 81.18359375 0.0009765625 65.033203125 13.96875 65.0341796875 29.6142578125 c 2
 65.0341796875 594.38671875 l 2
 65.0341796875 610.250976562 81.18359375 624 102.083984375 624 c 0
 122.983398438 624 138.708007812 610.250976562 139.133789062 594.38671875 c 2
EndSplineSet
EndChar

StartChar: j
Encoding: 106 106 75
Width: 720
GlyphClass: 2
Flags: MW
HStem: 0 74.7959
VStem: 590.049 74.0996 590.428 82.4707
LayerCount: 2
Back
Fore
SplineSet
590.048828125 584.889648438 m 1xc0
 590.098632812 600.897460938 606.197265625 614.774414062 627.09765625 614.774414062 c 0
 647.997070312 614.774414062 664.09765625 600.900390625 664.147460938 584.892578125 c 1xc0
 664.09765625 584.892578125 672.897460938 304.966796875 672.897460938 304.966796875 c 1
 661.899414062 137.206054688 535.313476562 0.001953125 365.826171875 0.001953125 c 0
 196.338867188 0.001953125 82.47265625 0.7236328125 82.47265625 0.7236328125 c 2
 66.73046875 0.7236328125 53.087890625 16.8740234375 53.087890625 37.7734375 c 0
 53.087890625 58.6748046875 66.8349609375 74.82421875 82.697265625 74.82421875 c 2
 82.697265625 74.82421875 250.287109375 74.796875 368.21875 74.796875 c 0
 486.149414062 74.796875 590.427734375 178.078125 590.427734375 304.96484375 c 0xa0
 590.427734375 431.8515625 590.098632812 584.889648438 590.048828125 584.889648438 c 1xc0
EndSplineSet
EndChar

StartChar: k
Encoding: 107 107 76
Width: 594
GlyphClass: 2
Flags: MW
VStem: 50.3721 74.0996
LayerCount: 2
Back
Fore
SplineSet
546.251953125 29.5400390625 m 0
 555.684570312 13.93359375 542.755859375 -0.0009765625 515.126953125 -0.0009765625 c 0
 487.5 -0.0009765625 457.861328125 13.7138671875 448.296875 29.5390625 c 2
 302.899414062 279.0234375 l 1
 154.623046875 29.5390625 l 2
 145.217773438 13.7138671875 116.071289062 -0.0009765625 88.9033203125 -0.0009765625 c 0
 71.748046875 -0.0009765625 60.3564453125 5.5546875 56.6240234375 13.5771484375 c 0
 52.654296875 18.26171875 50.373046875 23.7861328125 50.373046875 29.5390625 c 2
 50.373046875 622.458007812 l 2
 50.373046875 638.283203125 66.5224609375 651.998046875 87.4228515625 651.998046875 c 0
 108.322265625 651.998046875 124.046875 638.283203125 124.47265625 622.458007812 c 2
 124.47265625 145.947265625 l 1
 161.903320312 207.919921875 209.543945312 286.790039062 255.251953125 362.444335938 c 1
 253.173828125 370.807617188 257.571289062 378.127929688 267.272460938 382.340820312 c 1
 344.130859375 509.548828125 412.340820312 622.38671875 412.504882812 622.458984375 c 0
 422.069335938 638.284179688 451.706054688 651.999023438 479.334960938 651.999023438 c 0
 506.961914062 651.999023438 519.459960938 638.284179688 510.458984375 622.458984375 c 2
 352.436523438 360.990234375 l 2
 354.044921875 359.115234375 544.25390625 32.96875 546.251953125 29.5400390625 c 0
EndSplineSet
EndChar

StartChar: l
Encoding: 108 108 77
Width: 710
GlyphClass: 2
Flags: MW
HStem: 0 74.7959
VStem: 47.8006 82.4707 56.5506 73.7207
LayerCount: 2
Back
Fore
SplineSet
130.671875 584.889648438 m 1xa0
 130.619140625 584.889648438 130.26953125 431.848632812 130.26953125 304.961914062 c 0
 130.26953125 178.075195312 234.551757812 74.7939453125 352.487304688 74.7939453125 c 0
 470.423828125 74.7939453125 638.020507812 74.8212890625 638.020507812 74.8212890625 c 2
 653.883789062 74.8212890625 667.631835938 58.671875 667.631835938 37.7705078125 c 0
 667.631835938 16.87109375 653.98828125 0.720703125 638.24609375 0.720703125 c 2
 638.24609375 0.720703125 524.375976562 -0.0009765625 354.8828125 -0.0009765625 c 0
 185.389648438 -0.0009765625 58.798828125 137.203125 47.80078125 304.963867188 c 1xc0
 56.55078125 584.889648438 l 2
 56.6005859375 600.897460938 72.7060546875 614.771484375 93.611328125 614.771484375 c 0
 114.517578125 614.771484375 130.622070312 600.897460938 130.671875 584.889648438 c 1xa0
EndSplineSet
EndChar

StartChar: m
Encoding: 109 109 78
Width: 1107
GlyphClass: 2
Flags: MW
HStem: 542.129 82.4707
VStem: 62.3467 74.7949 520.339 74.7969 977.276 74.7949
LayerCount: 2
Back
Fore
SplineSet
1051.35058594 29.6123046875 m 2
 1051.35058594 13.7490234375 1035.19628906 0.0009765625 1014.29589844 0.0009765625 c 0
 993.395507812 0.0009765625 977.247070312 13.87109375 977.247070312 29.875 c 2
 977.247070312 29.875 977.2734375 198.958984375 977.2734375 317.94140625 c 0
 977.2734375 436.922851562 911.940429688 542.130859375 786.204101562 542.130859375 c 0
 660.465820312 542.130859375 595.134765625 436.922851562 595.134765625 317.94140625 c 0
 595.134765625 198.958984375 595.162109375 29.875 595.162109375 29.875 c 2
 595.162109375 13.87109375 579.010742188 0.0009765625 558.109375 0.0009765625 c 0
 557.985351562 0.0009765625 557.860351562 0.001953125 557.736328125 0.001953125 c 0
 557.611328125 0.001953125 557.487304688 0.0009765625 557.36328125 0.0009765625 c 0
 536.461914062 0.0009765625 520.310546875 13.87109375 520.310546875 29.875 c 2
 520.310546875 29.875 520.336914062 198.958984375 520.336914062 317.94140625 c 0
 520.336914062 436.922851562 455.005859375 542.130859375 329.267578125 542.130859375 c 0
 203.53125 542.130859375 137.140625 436.922851562 137.140625 317.94140625 c 0
 137.140625 198.958984375 137.166992188 29.875 137.166992188 29.875 c 2
 137.166992188 13.87109375 121.018554688 0.0009765625 100.118164062 0.0009765625 c 0
 79.2177734375 0.0009765625 63.0673828125 13.7490234375 63.0673828125 29.6123046875 c 2
 63.0673828125 29.6123046875 62.3466796875 144.358398438 62.3466796875 315.155273438 c 0
 62.3466796875 485.952148438 162.918945312 624.598632812 330.083984375 624.598632812 c 0
 443.262695312 624.598632812 505.646484375 562.708984375 557.73828125 471.115234375 c 1
 609.828125 562.708984375 672.209960938 624.598632812 785.385742188 624.598632812 c 0
 952.545898438 624.598632812 1052.07128906 485.952148438 1052.07128906 315.155273438 c 0
 1052.07128906 144.358398438 1051.35058594 29.6123046875 1051.35058594 29.6123046875 c 2
EndSplineSet
EndChar

StartChar: n
Encoding: 110 110 79
Width: 723
GlyphClass: 2
Flags: MW
HStem: 542.129 82.4707
VStem: 62.4242 74.7959 593.387 74.7959
LayerCount: 2
Back
Fore
SplineSet
667.4609375 29.6123046875 m 2
 667.4609375 13.7490234375 651.306640625 0.0009765625 630.407226562 0.0009765625 c 0
 609.506835938 0.0009765625 593.357421875 13.87109375 593.357421875 29.875 c 2
 593.357421875 29.875 593.384765625 198.958984375 593.384765625 317.94140625 c 0
 593.384765625 436.922851562 491.0390625 542.130859375 365.301757812 542.130859375 c 0
 239.564453125 542.130859375 137.21875 436.922851562 137.21875 317.94140625 c 0
 137.21875 198.958984375 137.24609375 29.875 137.24609375 29.875 c 2
 137.24609375 13.87109375 121.096679688 0.0009765625 100.196289062 0.0009765625 c 0
 79.296875 0.0009765625 63.146484375 13.7490234375 63.146484375 29.6123046875 c 2
 63.146484375 29.6123046875 62.4248046875 144.358398438 62.4248046875 315.155273438 c 0
 62.4248046875 485.952148438 198.33203125 624.598632812 365.303710938 624.598632812 c 0
 532.275390625 624.598632812 668.182617188 485.952148438 668.182617188 315.155273438 c 0
 668.182617188 144.358398438 667.4609375 29.6123046875 667.4609375 29.6123046875 c 2
EndSplineSet
EndChar

StartChar: o
Encoding: 111 111 80
Width: 742
GlyphClass: 2
Flags: MW
HStem: 0 82.4707<307.888 440.243 307.888 461.945> 536.729 82.4707<307.888 440.243>
VStem: 55.2456 78.7324 614.154 78.7324
LayerCount: 2
Back
Fore
SplineSet
133.977539062 309.599609375 m 0
 133.977539062 189.056640625 241.709960938 82.470703125 374.065429688 82.470703125 c 0
 506.420898438 82.470703125 614.153320312 189.056640625 614.153320312 309.599609375 c 0
 614.153320312 430.141601562 506.420898438 536.728515625 374.065429688 536.728515625 c 0
 241.709960938 536.728515625 133.977539062 430.141601562 133.977539062 309.599609375 c 0
55.2451171875 309.599609375 m 0
 55.2451171875 480.482421875 198.305664062 619.19921875 374.065429688 619.19921875 c 0
 549.825195312 619.19921875 692.885742188 480.482421875 692.885742188 309.599609375 c 0
 692.885742188 138.716796875 549.825195312 0 374.065429688 0 c 0
 198.305664062 0 55.2451171875 138.716796875 55.2451171875 309.599609375 c 0
EndSplineSet
EndChar

StartChar: p
Encoding: 112 112 81
Width: 752
GlyphClass: 2
Flags: MW
HStem: 6.91484 82.4707 536.729 82.4707
VStem: 61.0723 74.0996 619.708 78.7324
LayerCount: 2
Back
Fore
SplineSet
61.072265625 -94.787109375 m 2
 60.533203125 312.302734375 l 2
 60.533203125 481.693359375 203.654296875 619.198242188 379.487304688 619.198242188 c 0
 555.3203125 619.198242188 698.44140625 482.03125 698.44140625 313.056640625 c 0
 698.44140625 144.08203125 554.505859375 6.9150390625 377.670898438 6.9150390625 c 0
 280.9296875 6.9150390625 194.034179688 46.6201171875 135.165039062 109.345703125 c 1
 135.165039062 77.61328125 135.171875 -64.1025390625 135.171875 -95.8359375 c 0
 135.171875 -111.568359375 61.072265625 -110.51953125 61.072265625 -94.787109375 c 2
619.708007812 313.055664062 m 0
 619.708007812 431.762695312 511.975585938 536.727539062 379.620117188 536.727539062 c 0
 247.264648438 536.727539062 139.532226562 431.762695312 139.532226562 313.055664062 c 0
 139.532226562 194.34765625 247.264648438 89.3837890625 379.620117188 89.3837890625 c 0
 511.975585938 89.3837890625 619.708007812 194.34765625 619.708007812 313.055664062 c 0
EndSplineSet
EndChar

StartChar: q
Encoding: 113 113 82
Width: 746
GlyphClass: 2
Flags: MW
HStem: 6.91484 82.4707 536.729 82.4707
VStem: 57.3607 78.7324 620.63 74.0996
LayerCount: 2
Back
Fore
SplineSet
694.729492188 -94.787109375 m 2
 694.729492188 -110.51953125 620.629882812 -111.567382812 620.629882812 -95.8349609375 c 0
 620.629882812 -64.1015625 620.63671875 77.6142578125 620.63671875 109.346679688 c 1
 561.767578125 46.62109375 474.872070312 6.916015625 378.130859375 6.916015625 c 0
 201.295898438 6.916015625 57.3603515625 144.083007812 57.3603515625 313.057617188 c 0
 57.3603515625 482.032226562 200.481445312 619.19921875 376.314453125 619.19921875 c 0
 552.147460938 619.19921875 695.268554688 481.694335938 695.268554688 312.303710938 c 2
 694.729492188 -94.787109375 l 2
136.09375 313.057617188 m 0
 136.09375 194.349609375 243.826171875 89.3857421875 376.181640625 89.3857421875 c 0
 508.537109375 89.3857421875 616.26953125 194.349609375 616.26953125 313.057617188 c 0
 616.26953125 431.764648438 508.537109375 536.729492188 376.181640625 536.729492188 c 0
 243.826171875 536.729492188 136.09375 431.764648438 136.09375 313.057617188 c 0
EndSplineSet
EndChar

StartChar: r
Encoding: 114 114 83
Width: 715
GlyphClass: 2
Flags: MW
HStem: 539.976 74.7959
VStem: 59.6978 74.0996
LayerCount: 2
Back
Fore
SplineSet
133.796875 29.8818359375 m 1
 133.747070312 13.8740234375 117.647460938 -0.0029296875 96.7470703125 -0.0029296875 c 0
 75.84765625 -0.0029296875 59.7470703125 13.87109375 59.697265625 29.87890625 c 1
 59.75 29.87890625 50.4443359375 309.8046875 50.4443359375 309.8046875 c 1
 61.451171875 477.565429688 188.139648438 614.76953125 357.764648438 614.76953125 c 0
 527.389648438 614.76953125 641.348632812 614.047851562 641.348632812 614.047851562 c 2
 657.103515625 614.047851562 670.7578125 597.897460938 670.7578125 576.998046875 c 0
 670.7578125 556.096679688 657.010742188 539.947265625 641.1484375 539.947265625 c 2
 641.1484375 539.947265625 473.55859375 539.974609375 355.626953125 539.974609375 c 0
 237.696289062 539.974609375 133.41796875 436.693359375 133.41796875 309.806640625 c 0
 133.41796875 182.919921875 133.747070312 29.8818359375 133.796875 29.8818359375 c 1
EndSplineSet
EndChar

StartChar: s
Encoding: 115 115 84
Width: 721
GlyphClass: 2
Flags: MW
HStem: 0 74.7959 268.391 74.7959 537.573 74.7959
VStem: 54.8862 82.4707 590.252 82.4707
LayerCount: 2
Back
Fore
SplineSet
503.328125 343.977539062 m 0
 580.374023438 343.977539062 672.723632812 361.506835938 672.723632812 194.083984375 c 0
 672.723632812 29.8173828125 536.155273438 0.0009765625 367.91796875 0.0009765625 c 0
 199.680664062 0.0009765625 86.654296875 0.72265625 86.654296875 0.72265625 c 2
 71.0283203125 0.72265625 57.486328125 16.8740234375 57.486328125 37.7744140625 c 0
 57.486328125 58.67578125 71.1162109375 74.826171875 86.84375 74.826171875 c 2
 86.84375 74.826171875 253.0078125 74.7978515625 369.935546875 74.7978515625 c 0
 486.862304688 74.7978515625 590.252929688 100.850585938 590.252929688 194.96484375 c 0
 590.252929688 197.043945312 612.655273438 269.272460938 507.307617188 269.114257812 c 0
 506.783203125 269.258789062 393.573242188 268.392578125 224.282226562 268.392578125 c 0
 147.236328125 268.392578125 54.88671875 250.864257812 54.88671875 418.287109375 c 0
 54.88671875 582.553710938 191.455078125 612.370117188 359.692382812 612.370117188 c 0
 527.9296875 612.370117188 640.956054688 611.6484375 640.956054688 611.6484375 c 2
 656.58203125 611.6484375 670.124023438 595.497070312 670.124023438 574.596679688 c 0
 670.124023438 553.6953125 656.494140625 537.544921875 640.766601562 537.544921875 c 2
 640.766601562 537.544921875 474.602539062 537.573242188 357.674804688 537.573242188 c 0
 240.748046875 537.573242188 137.357421875 511.510742188 137.357421875 417.36328125 c 0
 137.357421875 415.283203125 114.956054688 342.892578125 220.302734375 343.186523438 c 2
 220.302734375 343.186523438 334.037109375 343.977539062 503.328125 343.977539062 c 0
EndSplineSet
AlternateSubs2: "'salt' Stylistic Alternatives in Latin lookup 0 subtable" uniE016
EndChar

StartChar: t
Encoding: 116 116 85
Width: 608
GlyphClass: 2
Flags: MW
HStem: 549.754 74.168
VStem: 269.617 74.0996
LayerCount: 2
Back
Fore
SplineSet
70.6181640625 623.921875 m 2
 292.399414062 623.922851562 l 2
 296.7890625 625.259765625 301.59375 626.000976562 306.665039062 626.000976562 c 0
 311.736328125 626.000976562 316.516601562 625.259765625 320.875976562 623.922851562 c 2
 542.713867188 623.922851562 l 2
 558.450195312 623.922851562 572.088867188 607.772460938 572.088867188 586.873046875 c 0
 572.088867188 565.97265625 558.122070312 549.822265625 542.478515625 549.823242188 c 2
 542.478515625 549.823242188 448.288085938 549.782226562 343.715820312 549.754882812 c 1
 343.715820312 29.83984375 l 2
 343.715820312 13.8544921875 327.565429688 0.0009765625 306.666015625 0.0009765625 c 0
 285.765625 0.0009765625 269.615234375 14.0751953125 269.616210938 29.83984375 c 2
 269.616210938 29.83984375 269.46875 404.70703125 269.537109375 549.736328125 c 1
 165.037109375 549.719726562 70.9287109375 549.729492188 70.8544921875 549.822265625 c 0
 54.9912109375 549.822265625 41.2431640625 565.971679688 41.2431640625 586.872070312 c 0
 41.2431640625 607.771484375 54.8818359375 623.49609375 70.6181640625 623.921875 c 2
EndSplineSet
EndChar

StartChar: u
Encoding: 117 117 86
Width: 720
GlyphClass: 2
Flags: MW
HStem: 0 82.4707
VStem: 60.8379 74.7959 591.801 74.7959
LayerCount: 2
Back
Fore
SplineSet
665.875 594.987304688 m 2
 665.875 594.987304688 666.599609375 480.241210938 666.599609375 309.444335938 c 0
 666.599609375 138.647460938 530.692382812 0.0009765625 363.720703125 0.0009765625 c 0
 196.749023438 0.0009765625 60.841796875 138.647460938 60.841796875 309.444335938 c 0
 60.841796875 480.241210938 61.5634765625 594.987304688 61.5634765625 594.987304688 c 2
 61.5634765625 610.850585938 77.7138671875 624.598632812 98.61328125 624.598632812 c 0
 119.513671875 624.598632812 135.663085938 610.728515625 135.663085938 594.724609375 c 2
 135.663085938 594.724609375 135.63671875 425.640625 135.63671875 306.658203125 c 0
 135.63671875 187.676757812 237.982421875 82.46875 363.719726562 82.46875 c 0
 489.45703125 82.46875 591.802734375 187.676757812 591.802734375 306.658203125 c 0
 591.802734375 425.640625 591.775390625 594.724609375 591.775390625 594.724609375 c 2
 591.775390625 610.728515625 607.924804688 624.598632812 628.825195312 624.598632812 c 0
 649.724609375 624.598632812 665.875 610.850585938 665.875 594.987304688 c 2
EndSplineSet
EndChar

StartChar: v
Encoding: 118 118 87
Width: 615
GlyphClass: 2
Flags: MW
HStem: -0.72168 0.72168 0 74.0742
VStem: 487.7 74.0996 488.079 82.4707
LayerCount: 2
Back
Fore
SplineSet
268.471679688 74.0908203125 m 2x40
 265.8828125 74.07421875 l 2
 266.74609375 74.07421875 267.609375 74.0908203125 268.471679688 74.0908203125 c 2x40
52.0517578125 584.35546875 m 2
 46.6640625 600.234375 58.234375 614 80.3359375 614 c 0
 102.438476562 614 124.576171875 600.125976562 130.4140625 584.118164062 c 0
 130.64453125 583.981445312 242.2890625 211.920898438 283.416992188 74.837890625 c 1
 393.94921875 84.4384765625 488.078125 183.6875 488.078125 304.245117188 c 0x90
 488.078125 431.131835938 487.749023438 584.169921875 487.69921875 584.169921875 c 1
 487.749023438 600.177734375 503.848632812 614.051757812 524.749023438 614.051757812 c 0
 545.6484375 614.051757812 561.749023438 600.177734375 561.798828125 584.169921875 c 1xa0
 561.749023438 584.169921875 570.548828125 304.244140625 570.548828125 304.244140625 c 1
 559.63671875 136.483398438 434.041992188 -0.720703125 265.881835938 -0.720703125 c 0
 95.0908203125 -0.720703125 270.112304688 0.0009765625 270.112304688 0.0009765625 c 2x90
 248.010742188 0.0009765625 225.872070312 13.7626953125 220.034179688 29.6416015625 c 2
 52.0517578125 584.35546875 l 2
EndSplineSet
AlternateSubs2: "'salt' Stylistic Alternatives in Latin lookup 0 subtable" uniE015
EndChar

StartChar: w
Encoding: 119 119 88
Width: 1105
GlyphClass: 2
Flags: MW
HStem: 0 82.4707
VStem: 61.2892 74.7949 518.224 74.7969 976.218 74.7949
LayerCount: 2
Back
Fore
SplineSet
62.009765625 594.987304688 m 2
 62.009765625 610.850585938 78.1640625 624.598632812 99.064453125 624.598632812 c 0
 119.96484375 624.598632812 136.11328125 610.728515625 136.11328125 594.724609375 c 2
 136.11328125 594.724609375 136.086914062 425.640625 136.086914062 306.658203125 c 0
 136.086914062 187.676757812 201.419921875 82.46875 327.15625 82.46875 c 0
 452.89453125 82.46875 518.225585938 187.676757812 518.225585938 306.658203125 c 0
 518.225585938 425.640625 518.19921875 594.724609375 518.19921875 594.724609375 c 2
 518.19921875 610.728515625 534.350585938 624.598632812 555.251953125 624.598632812 c 0
 555.375976562 624.598632812 555.500976562 624.59765625 555.625 624.59765625 c 0
 555.75 624.59765625 555.874023438 624.598632812 555.998046875 624.598632812 c 0
 576.899414062 624.598632812 593.05078125 610.728515625 593.05078125 594.724609375 c 2
 593.05078125 594.724609375 593.024414062 425.640625 593.024414062 306.658203125 c 0
 593.024414062 187.676757812 658.35546875 82.46875 784.09375 82.46875 c 0
 909.830078125 82.46875 976.220703125 187.676757812 976.220703125 306.658203125 c 0
 976.220703125 425.640625 976.193359375 594.724609375 976.193359375 594.724609375 c 2
 976.193359375 610.728515625 992.341796875 624.598632812 1013.2421875 624.598632812 c 0
 1034.14257812 624.598632812 1050.29296875 610.850585938 1050.29296875 594.987304688 c 2
 1050.29296875 594.987304688 1051.01367188 480.241210938 1051.01367188 309.444335938 c 0
 1051.01367188 138.647460938 950.44140625 0.0009765625 783.276367188 0.0009765625 c 0
 670.09765625 0.0009765625 607.713867188 61.890625 555.622070312 153.484375 c 1
 503.532226562 61.890625 441.150390625 0.0009765625 327.974609375 0.0009765625 c 0
 160.814453125 0.0009765625 61.2890625 138.647460938 61.2890625 309.444335938 c 0
 61.2890625 480.241210938 62.009765625 594.987304688 62.009765625 594.987304688 c 2
EndSplineSet
EndChar

StartChar: x
Encoding: 120 120 89
Width: 661
GlyphClass: 2
Flags: W
LayerCount: 2
Back
Fore
SplineSet
620.6640625 594.38671875 m 2
 382.142578125 312.052734375 l 1
 501.41015625 170.841796875 620.6640625 29.61328125 620.6640625 29.61328125 c 2
 630.440429688 13.9677734375 617.8203125 0 590.190429688 0 c 0
 562.564453125 -0 532.623046875 13.7490234375 522.7109375 29.61328125 c 2
 333.122070312 254.026367188 l 1
 143.533203125 29.61328125 l 2
 133.62109375 13.7490234375 103.6796875 0 76.0537109375 0 c 0
 48.423828125 -0 35.8037109375 13.9677734375 45.580078125 29.61328125 c 2
 45.580078125 29.61328125 164.833007812 170.841796875 284.1015625 312.052734375 c 1
 45.580078125 594.38671875 l 2
 36.2294921875 610.250976562 48.42578125 624 76.0537109375 624 c 0
 103.681640625 624 133.62109375 610.250976562 143.533203125 594.38671875 c 0
 143.6953125 594.315429688 232.311523438 489.4375 333.122070312 370.090820312 c 1
 433.931640625 489.4375 522.547851562 594.315429688 522.7109375 594.38671875 c 0
 532.623046875 610.250976562 562.5625 624 590.190429688 624 c 0
 617.818359375 624 630.014648438 610.250976562 620.6640625 594.38671875 c 2
EndSplineSet
EndChar

StartChar: y
Encoding: 121 121 90
Width: 683
GlyphClass: 2
Flags: MW
HStem: -65.3223 74.7959 114.718 82.4707
VStem: 59.2516 74.7959 556.465 73.6746
LayerCount: 2
Back
Fore
SplineSet
593.3828125 624.599609375 m 2
 614.282226562 624.599609375 630.434570312 610.716796875 630.434570312 594.694335938 c 2
 630.434570312 594.694335938 631.15625 594.16015625 631.15625 421.6484375 c 0
 631.15625 413.268554688 630.833984375 404.965820312 630.202148438 396.751953125 c 0
 630.24609375 222.176757812 630.276367188 192.423828125 630.142578125 192.3203125 c 0
 639.068359375 8.7451171875 501.965820312 -65.3203125 332.775390625 -65.3203125 c 0
 163.584960938 -65.3203125 203.91796875 -64.5986328125 203.91796875 -64.5986328125 c 2
 188.204101562 -64.5986328125 174.584960938 -48.4482421875 174.584960938 -27.548828125 c 0
 174.584960938 -6.6484375 188.33203125 9.5009765625 204.194335938 9.5009765625 c 2
 204.194335938 9.5009765625 216.333984375 9.4736328125 334.263671875 9.4736328125 c 0
 452.192382812 9.4736328125 556.46875 49.77734375 556.46875 173.352539062 c 0
 556.46875 178.95703125 556.466796875 184.133789062 556.466796875 188.908203125 c 0
 556.25 190.098632812 556.123046875 191.307617188 556.08984375 192.528320312 c 2
 556.08984375 212.119140625 l 1
 500.315429688 152.314453125 438.58984375 114.716796875 349.12109375 114.716796875 c 0
 181.231445312 114.716796875 59.2548828125 253.227539062 59.2548828125 423.857421875 c 0
 59.2548828125 594.487304688 59.9765625 595.015625 59.9765625 595.015625 c 2
 59.9765625 610.86328125 76.126953125 624.598632812 97.0263671875 624.598632812 c 0
 117.926757812 624.598632812 134.076171875 610.711914062 134.076171875 594.689453125 c 2
 134.076171875 594.689453125 134.048828125 540.768554688 134.048828125 421.64453125 c 0
 134.048828125 302.521484375 221.588867188 197.188476562 347.326171875 197.188476562 c 0
 469.203125 197.188476562 550.068359375 296.153320312 556.086914062 410.71484375 c 1
 556.086914062 594.690429688 l 2
 556.086914062 610.712890625 572.237304688 624.599609375 593.13671875 624.599609375 c 2
 593.3828125 624.599609375 l 2
556.447265625 216.18359375 m 0
 556.37890625 271.553710938 556.159179688 219.00390625 556.098632812 212.72265625 c 1
 556.130859375 213.890625 556.249023438 215.044921875 556.447265625 216.18359375 c 0
EndSplineSet
AlternateSubs2: "'salt' Stylistic Alternatives in Latin lookup 0 subtable" uniE00D
EndChar

StartChar: z
Encoding: 122 122 91
Width: 723
GlyphClass: 2
Flags: MW
HStem: 0 74.7959 269.182 74.7959 537.573 74.7959
VStem: 55.9437 82.4707 591.31 82.4707
LayerCount: 2
Back
Fore
SplineSet
225.338867188 343.977539062 m 0
 394.629882812 343.977539062 508.364257812 343.254882812 508.364257812 343.254882812 c 2
 613.7109375 342.9609375 591.309570312 415.326171875 591.309570312 417.405273438 c 0
 591.309570312 511.51953125 487.918945312 537.572265625 370.9921875 537.572265625 c 0
 254.064453125 537.572265625 87.900390625 537.544921875 87.900390625 537.544921875 c 2
 72.1728515625 537.544921875 58.54296875 553.6953125 58.54296875 574.596679688 c 0
 58.54296875 595.497070312 72.0849609375 611.6484375 87.7109375 611.6484375 c 2
 87.7109375 611.6484375 200.737304688 612.370117188 368.974609375 612.370117188 c 0
 537.211914062 612.370117188 673.780273438 582.553710938 673.780273438 418.287109375 c 0
 673.780273438 250.864257812 581.430664062 268.392578125 504.384765625 268.392578125 c 0
 335.09375 268.392578125 221.883789062 269.341796875 221.359375 269.18359375 c 0
 116.01171875 269.341796875 138.4140625 197.086914062 138.4140625 195.006835938 c 0
 138.4140625 100.859375 241.8046875 74.796875 358.731445312 74.796875 c 0
 475.659179688 74.796875 641.823242188 74.8251953125 641.823242188 74.8251953125 c 2
 657.55078125 74.8251953125 671.180664062 58.6748046875 671.180664062 37.7734375 c 0
 671.180664062 16.873046875 657.638671875 0.7216796875 642.012695312 0.7216796875 c 2
 642.012695312 0.7216796875 528.986328125 0 360.749023438 0 c 0
 192.51171875 -0 55.943359375 29.81640625 55.943359375 194.083007812 c 0
 55.943359375 361.505859375 148.29296875 343.977539062 225.338867188 343.977539062 c 0
EndSplineSet
AlternateSubs2: "'salt' Stylistic Alternatives in Latin lookup 0 subtable" uniE017
EndChar

StartChar: braceleft
Encoding: 123 123 92
Width: 355
GlyphClass: 2
Flags: MW
HStem: 0.524414 79.084 539.976 74.7959
VStem: 40.8791 132.782 90.9484 82.7129
LayerCount: 2
Back
Fore
SplineSet
243.594726562 614.075195312 m 1xe0
 259.458007812 614.075195312 273.206054688 597.927734375 273.206054688 577.028320312 c 0
 273.206054688 556.127929688 259.458007812 539.978515625 243.594726562 539.978515625 c 0
 125.659179688 539.978515625 173.661132812 332.09765625 173.661132812 309.794921875 c 0xe0
 173.661132812 283.22265625 125.659179688 79.611328125 243.594726562 79.611328125 c 0
 259.458007812 79.611328125 273.206054688 62.3759765625 273.206054688 40.0693359375 c 0
 273.206054688 17.763671875 259.458007812 0.52734375 243.594726562 0.52734375 c 1
 243.594726562 -0.1689453125 l 1
 99.41796875 -0.1689453125 90.76953125 104.375 90.9482421875 243.260742188 c 1xd0
 73.5107421875 263.290039062 54.919921875 284.650390625 54.87890625 284.724609375 c 0
 47.37890625 287.646484375 40.87890625 298.725585938 40.87890625 309.787109375 c 0
 40.87890625 320.848632812 47.5029296875 331.927734375 55.146484375 334.849609375 c 0
 55.1884765625 334.923828125 74.1328125 356.282226562 91.904296875 376.310546875 c 1
 91.9541015625 512.713867188 102.037109375 614.771484375 243.594726562 614.771484375 c 1
 243.594726562 614.075195312 l 1xe0
EndSplineSet
EndChar

StartChar: bar
Encoding: 124 124 93
Width: 199
GlyphClass: 2
Flags: MW
VStem: 66.0915 74.0996
LayerCount: 2
Back
Fore
SplineSet
140.19140625 650 m 2
 140.19140625 -22 l 2
 140.19140625 -37 124.041015625 -50 103.141601562 -50 c 0
 82.2412109375 -50 66.0908203125 -36.79296875 66.091796875 -22 c 2
 66.091796875 650 l 2
 66.091796875 665 82.2412109375 678 103.141601562 678 c 0
 124.041015625 678 139.765625 665 140.19140625 650 c 2
EndSplineSet
EndChar

StartChar: braceright
Encoding: 125 125 94
Width: 356
GlyphClass: 2
Flags: MW
HStem: 0.524414 74.0996<109.384 117.315> 534.991 79.7803
VStem: 187.249 82.7139 187.249 132.782
LayerCount: 2
Back
Fore
SplineSet
117.315429688 614.075195312 m 1xd0
 117.31640625 614.768554688 l 1
 258.875 614.768554688 268.958007812 512.7109375 269.0078125 376.307617188 c 1
 286.77734375 356.279296875 305.721679688 334.920898438 305.763671875 334.846679688 c 0
 313.407226562 331.924804688 320.03125 320.845703125 320.03125 309.784179688 c 0xd0
 320.03125 298.72265625 313.53125 287.643554688 306.03125 284.721679688 c 0
 305.990234375 284.647460938 287.399414062 263.287109375 269.962890625 243.2578125 c 1xe0
 270.141601562 104.372070312 261.493164062 -0.171875 117.315429688 -0.171875 c 1
 117.315429688 0.5244140625 l 1
 101.452148438 0.5244140625 87.7041015625 16.6748046875 87.7041015625 37.57421875 c 0
 87.7041015625 58.474609375 101.452148438 74.6240234375 117.315429688 74.6240234375 c 0
 235.250976562 74.6240234375 187.249023438 278.235351562 187.249023438 304.807617188 c 0
 187.249023438 327.110351562 235.250976562 534.991210938 117.315429688 534.991210938 c 0
 101.452148438 534.991210938 87.7041015625 552.2265625 87.7041015625 574.533203125 c 0
 87.7041015625 596.838867188 101.452148438 614.075195312 117.315429688 614.075195312 c 1xd0
EndSplineSet
EndChar

StartChar: asciitilde
Encoding: 126 126 95
Width: 489
GlyphClass: 2
Flags: MW
VStem: 62.3096 44.3119 389.36 44.3119
LayerCount: 2
Back
Fore
SplineSet
263.540039062 393.297851562 m 1
 278.87890625 378.950195312 271.640625 379.177734375 277.30859375 354.983398438 c 0
 282.609375 332.353515625 299.010742188 313.96875 336.59375 325.487304688 c 0
 376.04296875 337.577148438 379.549804688 365.69140625 375.041015625 384.936523438 c 0
 372.10546875 397.465820312 383.823242188 440.151367188 389.362304688 417.967773438 c 1
 389.663085938 418.165039062 395.055664062 421.125 397.965820312 422.016601562 c 0
 412.001953125 426.318359375 429.5 420.723632812 433.674804688 402.90625 c 0
 456.037109375 307.446289062 391.112304688 265.512695312 353.35546875 253.940429688 c 0
 322.419921875 244.459960938 263.8671875 238.215820312 232.4453125 298.701171875 c 1
 217.106445312 313.048828125 224.345703125 312.821289062 218.677734375 337.015625 c 0
 213.376953125 359.645507812 196.975585938 378.030273438 159.392578125 366.51171875 c 0
 119.943359375 354.421875 116.436523438 326.307617188 120.9453125 307.0625 c 0
 123.879882812 294.533203125 112.162109375 251.84765625 106.623046875 274.03125 c 1
 106.322265625 273.833984375 100.9296875 270.874023438 98.01953125 269.982421875 c 0
 83.9833984375 265.680664062 66.4853515625 271.275390625 62.310546875 289.092773438 c 0
 39.9482421875 384.552734375 104.873046875 426.486328125 142.629882812 438.05859375 c 0
 173.565429688 447.5390625 232.118164062 453.783203125 263.540039062 393.297851562 c 1
EndSplineSet
EndChar

StartChar: exclamdown
Encoding: 161 161 97
Width: 199
GlyphClass: 2
Flags: MW
HStem: 521.5 92.5<87.625 112.625>
VStem: 55.125 88.75<555.25 580.25> 62.4043 74.0996<29.7021 453.307>
LayerCount: 2
Back
Fore
SplineSet
143.875 567.75 m 0xc0
 143.875 542.75 125.125 521.5 100.125 521.5 c 0
 75.125 521.5 55.125 542.75 55.125 567.75 c 0
 55.125 592.75 75.125 614 100.125 614 c 0
 125.125 614 143.875 592.75 143.875 567.75 c 0xc0
62.404296875 29.7021484375 m 2xa0
 62.404296875 453.306640625 l 2
 62.404296875 469.352539062 78.5546875 483.258789062 99.4541015625 483.258789062 c 0
 120.354492188 483.258789062 136.504882812 469.130859375 136.50390625 453.306640625 c 2
 136.50390625 453.306640625 136.711914062 29.8701171875 136.50390625 29.7021484375 c 0
 136.50390625 13.65625 120.354492188 -0.25 99.4541015625 -0.25 c 0
 78.5546875 -0.25 62.830078125 13.65625 62.404296875 29.7021484375 c 2xa0
EndSplineSet
EndChar

StartChar: cent
Encoding: 162 162 98
Width: 549
GlyphClass: 2
Flags: MW
HStem: 83.0221 55.5764 485.088 55.5764
VStem: 47.0869 61.8525 254.938 74.1357
LayerCount: 2
Back
Fore
SplineSet
254.880859375 483.684570312 m 1
 175.290039062 472.72265625 108.939453125 399.821289062 108.939453125 311.84375 c 0
 108.939453125 223.845703125 175.322265625 150.928710938 254.938476562 139.994140625 c 1
 254.907226562 239.725585938 254.880859375 383.856445312 254.880859375 483.684570312 c 1
329.07421875 594.009765625 m 2
 329.072265625 541.169921875 l 1
 424.620117188 541.048828125 485.486328125 540.666015625 485.486328125 540.666015625 c 2
 497.383789062 540.666015625 507.694335938 528.553710938 507.694335938 512.87890625 c 0
 507.694335938 497.203125 497.383789062 485.090820312 485.486328125 485.090820312 c 2
 485.486328125 485.090820312 406.07421875 485.104492188 329.073242188 485.109375 c 1
 329.073242188 138.583007812 l 1
 406.07421875 138.587890625 485.486328125 138.6015625 485.486328125 138.6015625 c 2
 497.383789062 138.6015625 507.694335938 126.489257812 507.694335938 110.813476562 c 0
 507.694335938 95.138671875 497.383789062 83.0263671875 485.486328125 83.0263671875 c 2
 485.486328125 83.0263671875 424.620117188 82.6435546875 329.072265625 82.5224609375 c 1
 329.072265625 29.99609375 l 2
 329.072265625 13.9287109375 312.921875 0.00390625 292.022460938 0.00390625 c 0
 271.122070312 0.00390625 254.971679688 14.140625 254.97265625 29.974609375 c 2
 254.97265625 29.974609375 254.96484375 50.3212890625 254.955078125 83.3369140625 c 1
 138.51171875 93.6904296875 47.0849609375 192.247070312 47.0849609375 311.846679688 c 0
 47.0849609375 431.424804688 138.479492188 529.967773438 254.893554688 540.349609375 c 1
 254.907226562 573.52734375 254.931640625 594 254.970703125 594.03125 c 0
 254.970703125 610.086914062 271.12109375 624.001953125 292.022460938 624.001953125 c 0
 312.922851562 624.001953125 328.6484375 610.077148438 329.07421875 594.009765625 c 2
EndSplineSet
EndChar

StartChar: sterling
Encoding: 163 163 99
Width: 715
GlyphClass: 2
Flags: MW
HStem: 0 74.0996<145.812 642.977 78.2559 642.978> 252.622 74.1777<146.445 302.185> 505.426 74.7959<306.113 417.68>
LayerCount: 2
Back
Fore
SplineSet
642.977539062 74.099609375 m 2
 658.840820312 73.673828125 672.587890625 57.94921875 672.587890625 37.0498046875 c 0
 672.587890625 16.1494140625 658.83984375 0 642.9765625 0 c 0
 642.810546875 -0.2080078125 78.255859375 0 78.255859375 0 c 2
 62.6123046875 -0.0009765625 48.6455078125 16.1494140625 48.6455078125 37.0498046875 c 0
 48.6455078125 122.508789062 61.3251953125 199.483398438 99.1123046875 252.689453125 c 1
 86.349609375 252.696289062 78.8896484375 252.700195312 78.8896484375 252.700195312 c 2
 63.24609375 252.69921875 49.279296875 268.849609375 49.279296875 289.75 c 0
 49.279296875 449.881835938 187.920898438 580.221679688 358.711914062 580.221679688 c 0
 529.502929688 580.221679688 559.642578125 579.5 559.642578125 579.5 c 2
 575.505859375 579.5 589.25390625 563.349609375 589.25390625 542.450195312 c 0
 589.25390625 521.549804688 575.505859375 505.400390625 559.642578125 505.400390625 c 2
 559.642578125 505.400390625 476.6484375 505.42578125 358.711914062 505.42578125 c 0
 253.514648438 505.42578125 178.979492188 426.551757812 146.4453125 326.799804688 c 1
 242.5234375 326.799804688 l 2
 249.436523438 327.278320312 256.580078125 327.521484375 263.958007812 327.521484375 c 0
 434.749023438 327.521484375 436.334960938 326.799804688 436.334960938 326.799804688 c 2
 452.198242188 326.799804688 465.946289062 310.649414062 465.946289062 289.75 c 0
 465.946289062 268.849609375 452.198242188 252.700195312 436.334960938 252.700195312 c 0
 436.250976562 252.595703125 346.862304688 252.622070312 257.506835938 252.622070312 c 0
 159.55859375 249.41015625 177.6640625 171.760742188 145.811523438 74.099609375 c 1
 642.977539062 74.099609375 l 2
EndSplineSet
EndChar

StartChar: currency
Encoding: 164 164 100
Width: 519
GlyphClass: 2
Flags: MW
HStem: 73.1504 21<48.4619 80.96> 131.798 46.3896 441.011 46.3896 525.049 21<48.4619 80.96>
VStem: 83.0264 44.2871 397.413 44.2871
LayerCount: 2
Back
Fore
SplineSet
127.313476562 309.599609375 m 0
 127.313476562 239.856445312 187.9140625 178.188476562 262.36328125 178.188476562 c 0
 336.8125 178.188476562 397.413085938 239.856445312 397.413085938 309.599609375 c 0
 397.413085938 379.341796875 336.8125 441.010742188 262.36328125 441.010742188 c 0
 187.9140625 441.010742188 127.313476562 379.341796875 127.313476562 309.599609375 c 0
404.38671875 94.150390625 m 2
 360.814453125 158.03125 l 1
 332.416992188 141.434570312 298.609375 131.798828125 262.36328125 131.798828125 c 0
 226.118164062 131.798828125 192.309570312 141.434570312 163.913085938 158.03125 c 1
 120.33984375 94.150390625 l 2
 112.40625 83.650390625 91.095703125 73.150390625 70.82421875 73.150390625 c 0
 50.548828125 73.150390625 41.0126953125 83.650390625 48.4619140625 94.150390625 c 0
 48.6943359375 94.150390625 95.4013671875 163.798828125 118.541015625 198.325195312 c 1
 96.27734375 229.166015625 83.02734375 267.750976562 83.02734375 309.599609375 c 0
 83.02734375 351.448242188 96.27734375 390.033203125 118.541015625 420.874023438 c 1
 95.4013671875 455.400390625 48.6943359375 525.048828125 48.4619140625 525.048828125 c 0
 41.0126953125 535.548828125 50.548828125 546.048828125 70.82421875 546.048828125 c 0
 91.095703125 546.048828125 112.40625 535.548828125 120.33984375 525.048828125 c 2
 163.913085938 461.16796875 l 1
 192.309570312 477.764648438 226.118164062 487.400390625 262.36328125 487.400390625 c 0
 298.609375 487.400390625 332.416992188 477.764648438 360.814453125 461.16796875 c 1
 404.38671875 525.048828125 l 2
 412.3203125 535.548828125 433.630859375 546.048828125 453.90234375 546.048828125 c 0
 474.177734375 546.048828125 483.713867188 535.548828125 476.264648438 525.048828125 c 0
 476.033203125 525.048828125 429.326171875 455.400390625 406.185546875 420.874023438 c 1
 428.450195312 390.033203125 441.69921875 351.448242188 441.69921875 309.599609375 c 0
 441.69921875 267.750976562 428.450195312 229.166015625 406.185546875 198.325195312 c 1
 429.326171875 163.798828125 476.033203125 94.150390625 476.264648438 94.150390625 c 0
 483.713867188 83.650390625 474.177734375 73.150390625 453.90234375 73.150390625 c 0
 433.630859375 73.150390625 412.3203125 83.650390625 404.38671875 94.150390625 c 2
EndSplineSet
EndChar

StartChar: yen
Encoding: 165 165 101
Width: 710
GlyphClass: 2
Flags: MW
HStem: -27.4004 21G 30.3151 37.0498 91.9522 37.0498 113.477 82.4707
VStem: 48.6608 74.7969 545.497 74.1562
LayerCount: 2
Back
Fore
SplineSet
582.817382812 624.599609375 m 2xdc
 603.732421875 624.599609375 619.89453125 610.676757812 619.89453125 594.607421875 c 2
 619.89453125 594.607421875 620.616210938 594.072265625 620.616210938 421.059570312 c 0
 620.616210938 412.655273438 620.291992188 404.329101562 619.653320312 396.091796875 c 0
 619.674804688 308.353515625 619.694335938 207.184570312 619.689453125 129.005859375 c 1
 652.373046875 129.005859375 l 2
 660.3046875 129.005859375 667.178710938 120.930664062 667.178710938 110.48046875 c 0
 667.178710938 100.03125 660.1953125 91.955078125 652.373046875 91.9560546875 c 2
 652.373046875 91.9560546875 638.953125 91.9462890625 619.685546875 91.9365234375 c 1
 619.685546875 83.2666015625 619.6796875 75.0537109375 619.6796875 67.3671875 c 1
 652.373046875 67.3671875 l 2
 660.3046875 67.3671875 667.178710938 59.2919921875 667.178710938 48.8427734375 c 0
 667.178710938 38.3916015625 660.1953125 30.3173828125 652.373046875 30.3173828125 c 2
 652.373046875 30.3173828125 638.94140625 30.30859375 619.658203125 30.2978515625 c 1
 619.64453125 12.7216796875 619.624023438 2.619140625 619.59765625 2.59765625 c 0
 619.59765625 -13.4716796875 603.447265625 -27.3984375 582.546875 -27.3984375 c 0
 561.6484375 -27.3984375 545.923828125 -13.4716796875 545.498046875 2.59765625 c 2
 545.498046875 30.2685546875 l 1
 513.956054688 30.263671875 487.99609375 30.2734375 487.963867188 30.3173828125 c 0
 480.032226562 30.3173828125 473.158203125 38.3916015625 473.158203125 48.8427734375 c 0
 473.158203125 59.2919921875 480.032226562 67.154296875 487.963867188 67.3671875 c 2
 545.498046875 67.3671875 l 1
 545.498046875 91.9052734375 l 1
 513.956054688 91.9013671875 487.99609375 91.9111328125 487.963867188 91.955078125 c 0
 480.032226562 91.955078125 473.158203125 100.030273438 473.158203125 110.479492188 c 0
 473.158203125 120.9296875 480.032226562 128.791992188 487.963867188 129.004882812 c 2
 545.498046875 129.004882812 l 1xec
 545.498046875 210.924804688 l 1
 489.723632812 151.092773438 427.998046875 113.478515625 338.529296875 113.478515625 c 0
 170.638671875 113.478515625 48.662109375 252.326171875 48.662109375 423.37109375 c 0
 48.662109375 594.416015625 49.384765625 594.9453125 49.384765625 594.9453125 c 2
 49.384765625 610.83203125 65.53515625 624.600585938 86.43359375 624.600585938 c 0
 107.333984375 624.600585938 123.484375 610.673828125 123.484375 594.604492188 c 2
 123.484375 594.604492188 123.458007812 540.526367188 123.458007812 421.055664062 c 0
 123.458007812 301.5859375 210.997070312 195.947265625 336.735351562 195.947265625 c 0
 458.611328125 195.947265625 539.477539062 295.19921875 545.49609375 410.09375 c 1
 545.49609375 594.603515625 l 2
 545.49609375 610.672851562 561.658203125 624.599609375 582.571289062 624.599609375 c 2
 582.817382812 624.599609375 l 2xdc
EndSplineSet
EndChar

StartChar: brokenbar
Encoding: 166 166 102
Width: 198
GlyphClass: 2
Flags: MW
VStem: 65.8519 74.0996
LayerCount: 2
Back
Fore
SplineSet
139.951171875 300 m 2
 139.951171875 28 l 2
 139.951171875 13 123.80078125 0 102.901367188 0 c 0
 82.0009765625 0 65.8505859375 13.20703125 65.8515625 28 c 2
 65.8515625 300 l 2
 65.8515625 315 82.0009765625 328 102.901367188 328 c 0
 123.80078125 328 139.525390625 315 139.951171875 300 c 2
139.405273438 672 m 2
 139.405273438 400 l 2
 139.405273438 385 123.254882812 372 102.35546875 372 c 0
 81.4375 372 65.2734375 385.20703125 65.2744140625 400 c 2
 65.2744140625 672 l 2
 65.2744140625 687 81.4375 700 102.35546875 700 c 0
 123.254882812 700 138.979492188 687 139.405273438 672 c 2
EndSplineSet
EndChar

StartChar: section
Encoding: 167 167 103
Width: 714
GlyphClass: 2
Flags: MW
HStem: 0 74.7959<307.77 424.697 307.77 448.334> 156.439 56.9951 268.422 75.0146 406.733 56.9951 537.573 74.7959
VStem: 51.1848 82.4707 586.551 82.4707
LayerCount: 2
Back
Fore
SplineSet
203.87890625 343.551757812 m 1
 220.672851562 412.439453125 284.122070312 463.729492188 359.57421875 463.729492188 c 0
 434.817382812 463.729492188 498.123046875 413.356445312 515.125976562 345.609375 c 1
 588.47265625 346.948242188 669.021484375 352.037109375 669.021484375 194.908203125 c 0
 669.021484375 29.943359375 532.453125 0 364.215820312 0 c 0
 195.978515625 -0 82.9521484375 0.7216796875 82.9521484375 0.7216796875 c 2
 67.326171875 0.7216796875 53.7841796875 16.873046875 53.7841796875 37.7734375 c 0
 53.7841796875 58.6748046875 67.4140625 74.8251953125 83.1416015625 74.8251953125 c 2
 83.1416015625 74.8251953125 249.305664062 74.7958984375 366.233398438 74.7958984375 c 0
 483.16015625 74.7958984375 586.55078125 100.853515625 586.55078125 194.986328125 c 0
 586.55078125 196.97265625 607.1640625 262.953125 516.439453125 268.74609375 c 1
 497.069335938 203.893554688 435.477539062 156.438476562 362.727539062 156.438476562 c 0
 290.155273438 156.438476562 228.6875 203.239257812 209.158203125 267.270507812 c 1
 134.752929688 266.107421875 51.1845703125 257.866210938 51.1845703125 417.708984375 c 0
 51.1845703125 582.462890625 187.752929688 612.368164062 355.990234375 612.368164062 c 0
 524.227539062 612.368164062 637.25390625 611.646484375 637.25390625 611.646484375 c 2
 652.879882812 611.646484375 666.421875 595.495117188 666.421875 574.594726562 c 0
 666.421875 553.693359375 652.791992188 537.54296875 637.064453125 537.54296875 c 2
 637.064453125 537.54296875 470.900390625 537.572265625 353.97265625 537.572265625 c 0
 237.045898438 537.572265625 133.655273438 511.5078125 133.655273438 417.3515625 c 0
 133.655273438 415.365234375 113.025390625 349.190429688 203.87890625 343.551757812 c 1
454.981445312 343.958984375 m 1
 439.365234375 380.030273438 403.18359375 406.735351562 361.161132812 406.735351562 c 0
 318.9375 406.735351562 282.610351562 379.7734375 267.118164062 343.438476562 c 1
 308.529296875 343.639648438 373.740234375 343.885742188 454.981445312 343.958984375 c 1
271.108398438 268.424804688 m 1
 288.303710938 236.36328125 322.225585938 213.436523438 361.162109375 213.436523438 c 0
 400.330078125 213.436523438 434.423828125 236.607421875 451.51953125 268.927734375 c 1
 411.098632812 268.749023438 348.698242188 268.506835938 271.108398438 268.424804688 c 1
EndSplineSet
EndChar

StartChar: dieresis
Encoding: 168 168 104
Width: 369
GlyphClass: 2
Flags: MW
HStem: 611.25 88.75<100.374 125.374 251.038 276.038>
VStem: 66.6244 92.5 217.288 92.5
LayerCount: 2
Back
Fore
SplineSet
112.874023438 611.25 m 0
 87.8740234375 611.25 66.6240234375 630 66.6240234375 655 c 0
 66.6240234375 680 87.8740234375 700 112.874023438 700 c 0
 137.874023438 700 159.124023438 680 159.124023438 655 c 0
 159.124023438 630 137.874023438 611.25 112.874023438 611.25 c 0
263.538085938 611.25 m 0
 238.538085938 611.25 217.288085938 630 217.288085938 655 c 0
 217.288085938 680 238.538085938 700 263.538085938 700 c 0
 288.538085938 700 309.788085938 680 309.788085938 655 c 0
 309.788085938 630 288.538085938 611.25 263.538085938 611.25 c 0
EndSplineSet
EndChar

StartChar: copyright
Encoding: 169 169 105
Width: 731
GlyphClass: 2
Flags: MW
HStem: 0 82.4707<302.799 434.5 302.799 456.202> 151.225 37.3975 425.525 37.3975 536.729 82.4707<302.799 434.5>
VStem: 51.0155 78.7324 187.253 41.2363 607.552 78.7324
LayerCount: 2
Back
Fore
SplineSet
129.748046875 309.599609375 m 0
 129.748046875 189.056640625 236.948242188 82.470703125 368.649414062 82.470703125 c 0
 500.350585938 82.470703125 607.55078125 189.056640625 607.55078125 309.599609375 c 0
 607.55078125 430.141601562 500.350585938 536.728515625 368.649414062 536.728515625 c 0
 236.948242188 536.728515625 129.748046875 430.141601562 129.748046875 309.599609375 c 0
51.015625 309.599609375 m 0
 51.015625 480.482421875 193.543945312 619.19921875 368.649414062 619.19921875 c 0
 543.754882812 619.19921875 686.283203125 480.482421875 686.283203125 309.599609375 c 0
 686.283203125 138.716796875 543.754882812 0 368.649414062 0 c 0
 193.543945312 0 51.015625 138.716796875 51.015625 309.599609375 c 0
482.477539062 462.561523438 m 2
 490.348632812 462.561523438 497.169921875 454.484375 497.169921875 444.03515625 c 0
 497.169921875 433.583984375 490.295898438 425.509765625 482.364257812 425.509765625 c 2
 482.364257812 425.509765625 398.565429688 425.5234375 339.59765625 425.5234375 c 0
 280.629882812 425.5234375 228.48828125 372.37109375 228.48828125 307.072265625 c 0
 228.48828125 241.7734375 280.629882812 188.62109375 339.59765625 188.62109375 c 0
 398.565429688 188.62109375 482.364257812 188.634765625 482.364257812 188.634765625 c 2
 490.295898438 188.634765625 497.169921875 180.560546875 497.169921875 170.109375 c 0
 497.169921875 159.66015625 490.348632812 151.584960938 482.477539062 151.584960938 c 2
 482.477539062 151.584960938 425.541992188 151.224609375 340.794921875 151.224609375 c 0
 256.047851562 151.224609375 187.252929688 221.157226562 187.252929688 307.073242188 c 0
 187.252929688 392.989257812 256.047851562 462.921875 340.794921875 462.921875 c 0
 425.541992188 462.921875 482.477539062 462.561523438 482.477539062 462.561523438 c 2
EndSplineSet
EndChar

StartChar: ordfeminine
Encoding: 170 170 106
Width: 325
GlyphClass: 2
Flags: MW
HStem: 495.18 28.8652<142.339 183.115> 671.135 28.8652<142.339 188.665>
VStem: 53.9175 27.5557 251.061 25.9355
LayerCount: 2
Back
Fore
SplineSet
276.99609375 498.844726562 m 2
 276.99609375 493.594726562 251.05859375 493.245117188 251.05859375 498.495117188 c 0
 251.05859375 509.19921875 251.061523438 519.903320312 251.061523438 530.607421875 c 1
 230.45703125 508.913085938 200.043945312 495.1796875 166.185546875 495.1796875 c 0
 104.29296875 495.1796875 53.916015625 541.064453125 53.916015625 597.58984375 c 0
 53.916015625 654.115234375 104.0078125 700 165.549804688 700 c 0
 227.091796875 700 277.18359375 654.115234375 277.18359375 597.58984375 c 2
 276.99609375 498.844726562 l 2
81.470703125 597.58984375 m 0
 81.470703125 558.557617188 119.176757812 524.044921875 165.501953125 524.044921875 c 0
 211.827148438 524.044921875 249.533203125 558.557617188 249.533203125 597.58984375 c 0
 249.533203125 636.622070312 211.827148438 671.134765625 165.501953125 671.134765625 c 0
 119.176757812 671.134765625 81.470703125 636.622070312 81.470703125 597.58984375 c 0
EndSplineSet
EndChar

StartChar: guillemotleft
Encoding: 171 171 107
Width: 614
GlyphClass: 2
Flags: W
LayerCount: 2
Back
Fore
SplineSet
285.00390625 360 m 0
 285.00390625 382.75390625 298.751953125 405.547851562 314.615234375 411.557617188 c 0
 314.78125 411.84765625 540.926757812 567.560546875 540.926757812 567.560546875 c 1
 556.5703125 572.006835938 570.537109375 562.7890625 570.537109375 545.72265625 c 0
 570.537109375 528.657226562 556.7890625 511.564453125 540.92578125 507.056640625 c 1
 355.505859375 360.001953125 l 1
 540.92578125 212.947265625 l 1
 556.7890625 208.439453125 570.537109375 191.346679688 570.537109375 174.28125 c 0
 570.537109375 157.21484375 556.5703125 147.997070312 540.926757812 152.443359375 c 1
 540.926757812 152.443359375 314.78125 308.15625 314.615234375 308.446289062 c 0
 298.751953125 314.456054688 285.00390625 337.24609375 285.00390625 360 c 0
49.1748046875 360.00390625 m 0
 49.1748046875 382.7578125 62.9228515625 405.551757812 78.7861328125 411.561523438 c 0
 78.9521484375 411.8515625 305.09765625 567.564453125 305.09765625 567.564453125 c 1
 320.741210938 572.010742188 334.708007812 562.79296875 334.708007812 545.7265625 c 0
 334.708007812 528.661132812 320.959960938 511.568359375 305.096679688 507.060546875 c 1
 119.676757812 360.005859375 l 1
 305.096679688 212.951171875 l 1
 320.959960938 208.443359375 334.708007812 191.350585938 334.708007812 174.28515625 c 0
 334.708007812 157.21875 320.741210938 148.000976562 305.09765625 152.447265625 c 1
 305.09765625 152.447265625 78.9521484375 308.16015625 78.7861328125 308.450195312 c 0
 62.9228515625 314.459960938 49.1748046875 337.25 49.1748046875 360.00390625 c 0
EndSplineSet
EndChar

StartChar: logicalnot
Encoding: 172 172 108
Width: 616
GlyphClass: 2
Flags: MW
HStem: 305.879 74.0996
VStem: 487.945 74.0996
LayerCount: 2
Back
Fore
SplineSet
487.84765625 305.87890625 m 1
 90.419921875 305.87890625 l 2
 74.556640625 305.87890625 60.80859375 322.029296875 60.80859375 342.928710938 c 0
 60.80859375 363.829101562 74.6572265625 379.979492188 90.1689453125 379.978515625 c 2
 532.682617188 379.978515625 l 2
 548.412109375 379.978515625 562.043945312 361.030273438 562.043945312 336.5078125 c 2
 562.043945312 182.806640625 l 2
 562.043945312 165.20703125 545.893554688 149.954101562 524.994140625 149.954101562 c 0
 504.09375 149.954101562 487.943359375 166.840820312 487.944335938 185.754882812 c 2
 487.944335938 185.754882812 487.84765625 256.350585938 487.84765625 305.87890625 c 1
EndSplineSet
EndChar

StartChar: uni00AD
Encoding: 173 173 109
Width: 538
GlyphClass: 2
Flags: MW
HStem: 271.904 74.0996<89.8896 89.8906 89.8906 454.737>
LayerCount: 2
Back
Fore
SplineSet
454.737304688 271.904296875 m 2
 89.890625 271.904296875 l 2
 74.02734375 271.904296875 60.279296875 288.0546875 60.279296875 308.954101562 c 0
 60.279296875 329.854492188 74.24609375 346.004882812 89.8896484375 346.00390625 c 2
 454.737304688 346.00390625 l 2
 470.600585938 346.00390625 484.348632812 329.854492188 484.348632812 308.954101562 c 0
 484.348632812 288.0546875 470.600585938 272.330078125 454.737304688 271.904296875 c 2
EndSplineSet
EndChar

StartChar: registered
Encoding: 174 174 110
Width: 731
GlyphClass: 2
Flags: MW
HStem: 0 82.4707<302.799 434.5 302.799 456.202> 426.217 37.3975 536.729 82.4707<302.799 434.5>
VStem: 51.0155 78.7324 212.25 37.0617 607.552 78.7324
LayerCount: 2
Back
Fore
SplineSet
129.748046875 309.599609375 m 0
 129.748046875 189.056640625 236.948242188 82.470703125 368.649414062 82.470703125 c 0
 500.350585938 82.470703125 607.55078125 189.056640625 607.55078125 309.599609375 c 0
 607.55078125 430.141601562 500.350585938 536.728515625 368.649414062 536.728515625 c 0
 236.948242188 536.728515625 129.748046875 430.141601562 129.748046875 309.599609375 c 0
51.015625 309.599609375 m 0
 51.015625 480.482421875 193.543945312 619.19921875 368.649414062 619.19921875 c 0
 543.754882812 619.19921875 686.283203125 480.482421875 686.283203125 309.599609375 c 0
 686.283203125 138.716796875 543.754882812 0 368.649414062 0 c 0
 193.543945312 0 51.015625 138.716796875 51.015625 309.599609375 c 0
249.311523438 166.006835938 m 1
 249.286132812 157.840820312 241.233398438 150.762695312 230.780273438 150.762695312 c 0
 220.328125 150.762695312 212.275390625 157.83984375 212.25 166.005859375 c 1
 212.275390625 166.005859375 207.875 308.801757812 207.875 308.801757812 c 1
 213.375 393.962890625 276.670898438 463.61328125 361.41796875 463.61328125 c 0
 446.165039062 463.61328125 503.100585938 463.252929688 503.100585938 463.252929688 c 2
 510.971679688 463.252929688 517.79296875 455.177734375 517.79296875 444.728515625 c 0
 517.79296875 434.27734375 510.918945312 426.203125 502.987304688 426.203125 c 2
 502.987304688 426.203125 419.188476562 426.216796875 360.220703125 426.216796875 c 0
 301.252929688 426.216796875 249.111328125 373.530273438 249.111328125 308.802734375 c 0
 249.111328125 244.075195312 249.28515625 166.006835938 249.311523438 166.006835938 c 1
EndSplineSet
EndChar

StartChar: macron
Encoding: 175 175 111
Width: 904
GlyphClass: 2
Flags: MW
HStem: 625.9 74.0996<93.0625 811.652 100.994 811.652 811.652 811.653>
LayerCount: 2
Back
Fore
SplineSet
100.994140625 700 m 2
 811.65234375 700 l 2
 827.515625 700 841.263671875 683.849609375 841.263671875 662.950195312 c 0
 841.263671875 642.049804688 827.296875 625.899414062 811.653320312 625.900390625 c 2
 811.653320312 625.900390625 101.16015625 625.692382812 100.994140625 625.900390625 c 0
 85.130859375 625.900390625 71.3828125 642.049804688 71.3828125 662.950195312 c 0
 71.3828125 683.849609375 85.130859375 699.57421875 100.994140625 700 c 2
EndSplineSet
EndChar

StartChar: degree
Encoding: 176 176 112
Width: 354
GlyphClass: 2
Flags: MW
HStem: 464.818 33.1953<153.437 206.71 153.437 215.444> 667.166 33.1953<153.437 206.71>
VStem: 51.7467 31.6895 276.708 31.6895
LayerCount: 2
Back
Fore
SplineSet
83.4365234375 582.58984375 m 0
 83.4365234375 537.703125 126.799804688 498.013671875 180.073242188 498.013671875 c 0
 233.346679688 498.013671875 276.709960938 537.703125 276.709960938 582.58984375 c 0
 276.709960938 627.4765625 233.346679688 667.166015625 180.073242188 667.166015625 c 0
 126.799804688 667.166015625 83.4365234375 627.4765625 83.4365234375 582.58984375 c 0
51.7470703125 582.58984375 m 0
 51.7470703125 647.59375 109.328125 700.361328125 180.072265625 700.361328125 c 0
 250.81640625 700.361328125 308.3984375 647.59375 308.3984375 582.58984375 c 0
 308.3984375 517.5859375 250.81640625 464.818359375 180.072265625 464.818359375 c 0
 109.328125 464.818359375 51.7470703125 517.5859375 51.7470703125 582.58984375 c 0
EndSplineSet
EndChar

StartChar: plusminus
Encoding: 177 177 113
Width: 594
GlyphClass: 2
Flags: MW
HStem: 0 74.0996<78.2725 78.2734 78.2734 520.786> 349.003 74.0996
VStem: 263.008 74.0996
LayerCount: 2
Back
Fore
SplineSet
520.786132812 0 m 2
 78.2734375 0 l 2
 62.5439453125 0 48.912109375 16.150390625 48.912109375 37.0498046875 c 0
 48.912109375 57.9501953125 62.7607421875 74.1005859375 78.2724609375 74.099609375 c 2
 520.786132812 74.099609375 l 2
 536.515625 74.099609375 550.147460938 57.9501953125 550.147460938 37.0498046875 c 0
 550.147460938 16.150390625 536.515625 0.42578125 520.786132812 0 c 2
521.06640625 349.002929688 m 2
 337.201171875 349.001953125 l 1
 337.21875 250.420898438 337.20703125 162.208984375 337.110351562 162.134765625 c 0
 337.110351562 146.020507812 320.9609375 132.0546875 300.060546875 132.0546875 c 0
 279.161132812 132.0546875 263.436523438 146.020507812 263.010742188 162.134765625 c 2
 263.010742188 349.002929688 l 1
 79.0537109375 349.002929688 l 2
 63.1904296875 349.002929688 49.4423828125 365.153320312 49.4423828125 386.052734375 c 0
 49.4423828125 406.953125 63.4091796875 423.103515625 79.052734375 423.102539062 c 2
 79.052734375 423.102539062 165.922851562 423.145507812 263.009765625 423.17578125 c 1
 263.009765625 609.969726562 l 2
 263.009765625 626.083984375 279.16015625 640.049804688 300.059570312 640.049804688 c 0
 320.959960938 640.049804688 337.110351562 625.862304688 337.109375 609.970703125 c 2
 337.109375 609.970703125 337.151367188 521.780273438 337.180664062 423.1953125 c 1
 434.197265625 423.212890625 520.993164062 423.201171875 521.06640625 423.102539062 c 0
 536.9296875 423.102539062 550.677734375 406.953125 550.677734375 386.052734375 c 0
 550.677734375 365.153320312 536.9296875 349.428710938 521.06640625 349.002929688 c 2
EndSplineSet
EndChar

StartChar: uni00B2
Encoding: 178 178 114
Width: 408
GlyphClass: 2
Flags: MW
HStem: 410.821 37.3975<174.978 233.435 174.978 247.267> 515.895 37.3984<118.258 135.531> 662.607 37.3984<180.603 239.06>
VStem: 52.8238 41.2354 319.978 41.2354
LayerCount: 2
Back
Fore
SplineSet
345.831054688 411.181640625 m 2
 345.831054688 411.181640625 289.322265625 410.821289062 205.211914062 410.821289062 c 0
 121.1015625 410.821289062 52.8232421875 401.491210938 52.8232421875 479.556640625 c 0
 52.8232421875 559.123046875 98.9970703125 553.29296875 137.51953125 553.29296875 c 0
 222.163085938 553.29296875 279.029296875 552.931640625 279.029296875 552.931640625 c 2
 307.603515625 552.931640625 319.977539062 575.321289062 319.977539062 607.26953125 c 0
 319.977539062 666.71875 268.288085938 662.607421875 209.831054688 662.607421875 c 0
 151.374023438 662.607421875 68.30078125 662.594726562 68.30078125 662.594726562 c 2
 60.4375 662.594726562 53.623046875 670.669921875 53.623046875 681.120117188 c 0
 53.623046875 691.569335938 60.3935546875 699.64453125 68.2060546875 699.64453125 c 2
 68.2060546875 699.64453125 124.713867188 700.005859375 208.82421875 700.005859375 c 0
 292.934570312 700.005859375 361.212890625 687.3359375 361.212890625 607.26953125 c 0
 361.212890625 534.204101562 327.09375 515.534179688 277.041015625 515.534179688 c 0
 192.397460938 515.534179688 135.53125 515.89453125 135.53125 515.89453125 c 2
 77.0830078125 515.89453125 94.0595703125 480.505859375 94.0595703125 479.556640625 c 0
 94.0595703125 448.608398438 145.749023438 448.21875 204.206054688 448.21875 c 0
 262.663085938 448.21875 345.736328125 448.231445312 345.736328125 448.231445312 c 2
 353.599609375 448.231445312 360.4140625 440.157226562 360.4140625 429.70703125 c 0
 360.4140625 419.256835938 353.643554688 411.181640625 345.831054688 411.181640625 c 2
EndSplineSet
EndChar

StartChar: uni00B3
Encoding: 179 179 115
Width: 448
GlyphClass: 2
Flags: MW
HStem: 409.529 37.3975<222.223 281.191 222.223 292.883> 536.09 37.0498<60.2119 272.511 64.1777 272.511> 662.603 37.3975<222.223 281.191>
VStem: 362.815 41.2354
LayerCount: 2
Back
Fore
SplineSet
64.177734375 573.139648438 m 2
 272.510742188 573.139648438 l 2
 280.442382812 573.139648438 287.31640625 564.564453125 287.31640625 554.115234375 c 0
 287.31640625 543.6640625 280.333007812 536.08984375 272.510742188 536.08984375 c 2
 64.177734375 536.08984375 l 2
 56.24609375 536.08984375 49.3720703125 544.1640625 49.3720703125 554.615234375 c 0
 49.3720703125 565.064453125 56.24609375 572.926757812 64.177734375 573.139648438 c 2
108.827148438 699.639648438 m 2
 108.827148438 699.639648438 165.762695312 700 250.509765625 700 c 0
 335.256835938 700 404.05078125 634.830078125 404.05078125 554.764648438 c 0
 404.05078125 474.69921875 335.256835938 409.529296875 250.509765625 409.529296875 c 0
 165.762695312 409.529296875 108.827148438 409.889648438 108.827148438 409.889648438 c 2
 100.956054688 409.889648438 94.134765625 417.96484375 94.134765625 428.4140625 c 0
 94.134765625 438.865234375 101.008789062 446.939453125 108.940429688 446.939453125 c 2
 108.940429688 446.939453125 192.739257812 446.926757812 251.70703125 446.926757812 c 0
 310.674804688 446.926757812 362.81640625 495.31640625 362.81640625 554.764648438 c 0
 362.81640625 614.212890625 310.674804688 662.602539062 251.70703125 662.602539062 c 0
 192.739257812 662.602539062 108.940429688 662.58984375 108.940429688 662.58984375 c 2
 101.008789062 662.58984375 94.134765625 670.6640625 94.134765625 681.115234375 c 0
 94.134765625 691.564453125 100.956054688 699.639648438 108.827148438 699.639648438 c 2
EndSplineSet
EndChar

StartChar: acute
Encoding: 180 180 116
Width: 236
GlyphClass: 2
Flags: MW
HStem: 557.5 21G 607.5 92.5<114.08 176.998>
LayerCount: 2
Back
Fore
SplineSet
187.237304688 653.75 m 0
 174.909179688 628.75 144.6015625 607.5 118.163085938 607.5 c 0
 109.997070312 607.5 103.334960938 609.52734375 98.390625 613.06640625 c 1
 80.27734375 577.020507812 103.423828125 571.014648438 126.5546875 557.5 c 1
 91.802734375 562.083984375 48.02734375 572.5 49.609375 583.75 c 0
 51.0126953125 600 78.0166015625 633.318359375 93.380859375 653.75 c 1
 105.709960938 678.75 137.33984375 700 163.778320312 700 c 0
 190.216796875 700 199.56640625 678.75 187.237304688 653.75 c 0
EndSplineSet
EndChar

StartChar: mu
Encoding: 181 181 117
Width: 723
GlyphClass: 2
Flags: MW
HStem: 3.85603 82.4707
VStem: 62.4562 74.8281 593.451 74.7959
LayerCount: 2
Back
Fore
SplineSet
62.4560546875 526.145507812 m 2
 62.4560546875 563.76953125 63.21484375 595.1484375 63.21484375 595.1484375 c 2
 63.21484375 610.926757812 79.365234375 624.600585938 100.264648438 624.600585938 c 0
 121.165039062 624.600585938 137.314453125 610.829101562 137.314453125 594.939453125 c 2
 137.314453125 594.939453125 137.287109375 427.05859375 137.287109375 308.921875 c 0
 137.287109375 190.786132812 239.6328125 86.3271484375 365.370117188 86.3271484375 c 0
 491.107421875 86.3271484375 593.453125 190.786132812 593.453125 308.921875 c 0
 593.453125 427.05859375 593.42578125 594.939453125 593.42578125 594.939453125 c 2
 593.42578125 610.829101562 609.575195312 624.600585938 630.475585938 624.600585938 c 0
 651.375 624.600585938 667.525390625 610.9375 667.525390625 595.171875 c 2
 667.525390625 595.171875 668.247070312 481.133789062 668.247070312 311.390625 c 0
 668.247070312 141.647460938 531.526367188 3.8564453125 363.5546875 3.8564453125 c 0
 273.48046875 3.8564453125 192.393554688 41.9013671875 136.555664062 102.3203125 c 1
 136.555664062 -36.181640625 l 2
 136.555664062 -51.6201171875 120.405273438 -65 99.505859375 -65 c 0
 78.60546875 -65 62.455078125 -51.1083984375 62.4560546875 -35.5478515625 c 2
 62.4560546875 526.145507812 l 2
EndSplineSet
EndChar

StartChar: paragraph
Encoding: 182 182 118
Width: 491
GlyphClass: 2
Flags: MW
HStem: 549.894 74.0996
VStem: 55.4883 265.649 247.038 74.0996 368.621 74.0996
LayerCount: 2
Back
Fore
SplineSet
442.720703125 594.380859375 m 2xd0
 442.719726562 29.6142578125 l 2
 442.719726562 13.75 426.569335938 0.0009765625 405.669921875 0.0009765625 c 0
 384.76953125 0.0009765625 368.619140625 14.078125 368.620117188 29.845703125 c 2
 368.620117188 29.845703125 368.47265625 411.732421875 368.540039062 549.89453125 c 1
 321.13671875 549.89453125 l 1
 321.13671875 29.845703125 l 2
 321.13671875 13.857421875 304.986328125 0.0009765625 284.086914062 0.0009765625 c 0
 263.186523438 0.0009765625 247.036132812 14.078125 247.037109375 29.845703125 c 2xb0
 247.037109375 29.845703125 246.986328125 167.254882812 246.959960938 307.044921875 c 1
 87.3046875 308.1484375 55.4873046875 433.41796875 55.4873046875 446.096679688 c 0
 55.4873046875 453.583007812 37.466796875 623.9921875 200.051757812 623.994140625 c 2
 405.421875 623.994140625 l 2
 426.461914062 623.994140625 442.291992188 610.245117188 442.720703125 594.380859375 c 2xd0
EndSplineSet
EndChar

StartChar: periodcentered
Encoding: 183 183 119
Width: 200
GlyphClass: 2
Flags: MW
HStem: 218.75 92.5<86.875 111.875>
VStem: 55.625 88.75<252.5 277.5>
LayerCount: 2
Back
Fore
SplineSet
55.625 265 m 0
 55.625 290 74.375 311.25 99.375 311.25 c 0
 124.375 311.25 144.375 290 144.375 265 c 0
 144.375 240 124.375 218.75 99.375 218.75 c 0
 74.375 218.75 55.625 240 55.625 265 c 0
EndSplineSet
EndChar

StartChar: cedilla
Encoding: 184 184 120
Width: 204
GlyphClass: 2
Flags: MW
HStem: -50.25 92.5<86.5098 102.871 86.5098 111.51>
VStem: 55.2601 88.75 120.303 32.457
LayerCount: 2
Back
Fore
SplineSet
55.259765625 -4 m 0xc0
 55.259765625 21 74.009765625 42.25 99.009765625 42.25 c 0
 106.731445312 42.25 113.9765625 40.22265625 120.302734375 36.68359375 c 1
 120.622070312 94.78515625 95.93359375 104.465820312 67.759765625 126.25 c 1
 102.758789062 120.046875 149.009765625 105.951171875 152.759765625 90.7275390625 c 0xa0
 159.009765625 68.7373046875 149.010742188 23.6494140625 144.009765625 -4 c 1
 144.009765625 -29 124.009765625 -50.25 99.009765625 -50.25 c 0
 74.009765625 -50.25 55.259765625 -29 55.259765625 -4 c 0xc0
EndSplineSet
EndChar

StartChar: uni00B9
Encoding: 185 185 121
Width: 198
GlyphClass: 2
Flags: MW
HStem: 405 295<134.395 139.804 134.395 140.274>
VStem: 116.524 37.0498
LayerCount: 2
Back
Fore
SplineSet
116.477539062 637.55859375 m 1
 81.6708984375 604.647460938 l 2
 76.0634765625 599.34375 65.1640625 600.458007812 57.3505859375 607.846679688 c 0
 49.5361328125 615.236328125 48.435546875 625.615234375 53.966796875 630.845703125 c 2
 53.966796875 630.845703125 110.961914062 685.93359375 111.072265625 686 c 0
 116.563476562 691.302734375 121.168945312 701 134.39453125 700 c 0
 145.212890625 700 153.353515625 693.5 153.57421875 686 c 2
 153.57421875 419 l 2
 153.57421875 411.5 145.499023438 405 135.049804688 405 c 0
 124.599609375 405 116.524414062 411.603515625 116.524414062 419 c 2
 116.524414062 419 116.477539062 557.180664062 116.477539062 637.55859375 c 1
EndSplineSet
EndChar

StartChar: ordmasculine
Encoding: 186 186 122
Width: 320
GlyphClass: 2
Flags: MW
HStem: 495.18 28.8652<139.698 186.023 139.698 193.619> 671.135 28.8652<139.698 186.023>
VStem: 51.2737 27.5557 246.892 27.5557
LayerCount: 2
Back
Fore
SplineSet
78.8291015625 597.58984375 m 0
 78.8291015625 558.557617188 116.53515625 524.044921875 162.860351562 524.044921875 c 0
 209.185546875 524.044921875 246.891601562 558.557617188 246.891601562 597.58984375 c 0
 246.891601562 636.622070312 209.185546875 671.134765625 162.860351562 671.134765625 c 0
 116.53515625 671.134765625 78.8291015625 636.622070312 78.8291015625 597.58984375 c 0
51.2734375 597.58984375 m 0
 51.2734375 654.115234375 101.34375 700 162.860351562 700 c 0
 224.376953125 700 274.447265625 654.115234375 274.447265625 597.58984375 c 0
 274.447265625 541.064453125 224.376953125 495.1796875 162.860351562 495.1796875 c 0
 101.34375 495.1796875 51.2734375 541.064453125 51.2734375 597.58984375 c 0
EndSplineSet
EndChar

StartChar: guillemotright
Encoding: 187 187 123
Width: 616
GlyphClass: 2
Flags: W
LayerCount: 2
Back
Fore
SplineSet
335.765625 360 m 0
 335.765625 337.24609375 322.017578125 314.452148438 306.154296875 308.442382812 c 0
 305.98828125 308.15234375 79.8427734375 152.439453125 79.8427734375 152.439453125 c 1
 64.19921875 147.993164062 50.232421875 157.2109375 50.232421875 174.27734375 c 0
 50.232421875 191.342773438 63.98046875 208.435546875 79.84375 212.943359375 c 1
 265.263671875 359.998046875 l 1
 79.84375 507.052734375 l 1
 63.98046875 511.560546875 50.232421875 528.653320312 50.232421875 545.71875 c 0
 50.232421875 562.78515625 64.19921875 572.002929688 79.8427734375 567.556640625 c 1
 79.8427734375 567.556640625 305.98828125 411.84375 306.154296875 411.553710938 c 0
 322.017578125 405.543945312 335.765625 382.75390625 335.765625 360 c 0
571.594726562 359.99609375 m 0
 571.594726562 337.2421875 557.846679688 314.448242188 541.983398438 308.438476562 c 0
 541.817382812 308.1484375 315.671875 152.435546875 315.671875 152.435546875 c 1
 300.028320312 147.989257812 286.061523438 157.20703125 286.061523438 174.2734375 c 0
 286.061523438 191.338867188 299.809570312 208.431640625 315.672851562 212.939453125 c 1
 501.092773438 359.994140625 l 1
 315.672851562 507.048828125 l 1
 299.809570312 511.556640625 286.061523438 528.649414062 286.061523438 545.71484375 c 0
 286.061523438 562.78125 300.028320312 571.999023438 315.671875 567.552734375 c 1
 315.671875 567.552734375 541.817382812 411.83984375 541.983398438 411.549804688 c 0
 557.846679688 405.540039062 571.594726562 382.75 571.594726562 359.99609375 c 0
EndSplineSet
EndChar

StartChar: onequarter
Encoding: 188 188 124
Width: 613
GlyphClass: 2
Flags: MW
HStem: 127.057 37.0861 271.461 37.3984
VStem: 120.458 37.0508 481.226 37.0498
LayerCount: 2
Back
Fore
SplineSet
503.024414062 622.42578125 m 2
 122.147460938 29.5390625 l 2
 111.981445312 13.71484375 86.2177734375 0 64.2783203125 0 c 0
 42.337890625 -0 34.3330078125 13.9326171875 44.359375 29.5390625 c 2
 44.359375 29.5390625 424.91015625 622.259765625 425.236328125 622.42578125 c 0
 435.40234375 638.25 461.165039062 651.96484375 483.10546875 651.96484375 c 0
 505.044921875 651.96484375 512.743164062 638.25 503.024414062 622.42578125 c 2
518.288085938 292.474609375 m 1
 518.286132812 164.142578125 l 1
 562.702148438 164.142578125 l 2
 570.633789062 164.142578125 577.5078125 156.067382812 577.5078125 145.6171875 c 0
 577.5078125 135.16796875 570.524414062 127.091796875 562.702148438 127.092773438 c 2
 562.702148438 127.092773438 545.283203125 127.071289062 518.272460938 127.056640625 c 1
 518.272460938 14.875 l 2
 518.272460938 6.90625 510.197265625 0 499.747070312 0 c 0
 489.296875 0 481.221679688 7.0166015625 481.22265625 14.8759765625 c 2
 481.22265625 14.8759765625 481.200195312 64.2841796875 481.185546875 127.044921875 c 1
 462.583984375 127.044921875 448.533203125 127.056640625 448.504882812 127.09375 c 0
 400.083007812 127.09375 376.365234375 126.65234375 296.709960938 126.98046875 c 1
 274.057617188 131.969726562 285.462890625 146.5859375 299.0546875 166.180664062 c 0
 352.977539062 243.928710938 400.090820312 306.782226562 447.060546875 308.860351562 c 0
 523.083007812 312.107421875 518.288085938 292.474609375 518.288085938 292.474609375 c 1
481.1953125 271.73046875 m 1
 473.1328125 271.73046875 462.49609375 271.635742188 448.505859375 271.459960938 c 0
 426.153320312 271.163085938 401.94140625 247.810546875 351.14453125 173.348632812 c 0
 343.893554688 162.721679688 371.03125 164.490234375 448.505859375 164.490234375 c 2
 448.505859375 164.490234375 451.90625 164.49609375 481.178710938 164.5 c 1
 481.171875 207.008789062 481.1953125 248.395507812 481.1953125 271.73046875 c 1
120.409179688 586.1484375 m 1
 85.603515625 551.178710938 l 2
 79.9951171875 545.54296875 69.0966796875 546.7265625 61.2822265625 554.578125 c 0
 53.4677734375 562.428710938 52.3671875 573.45703125 57.8984375 579.014648438 c 2
 57.8984375 579.014648438 114.893554688 637.546875 115.00390625 637.6171875 c 0
 120.495117188 643.251953125 125.100585938 653.555664062 138.326171875 652.493164062 c 0
 149.14453125 652.493164062 157.286132812 645.586914062 157.506835938 637.618164062 c 2
 157.506835938 353.923828125 l 2
 157.506835938 345.955078125 149.430664062 339.048828125 138.981445312 339.048828125 c 0
 128.53125 339.048828125 120.456054688 346.065429688 120.456054688 353.924804688 c 2
 120.456054688 353.924804688 120.409179688 500.74609375 120.409179688 586.1484375 c 1
EndSplineSet
EndChar

StartChar: onehalf
Encoding: 189 189 125
Width: 695
GlyphClass: 2
Flags: MW
HStem: 0 37.3984<469.173 527.63 469.173 541.462> 105.074 37.3984<412.454 429.727> 251.787 37.3984<474.798 533.255>
VStem: 125.607 37.0508 347.018 41.2354 614.173 41.2354
LayerCount: 2
Back
Fore
SplineSet
507.055664062 590 m 2
 127.107421875 28 l 2
 116.966796875 13 91.265625 0 69.37890625 0 c 0
 47.4912109375 0 39.505859375 13.20703125 49.5078125 28 c 2
 49.5078125 28 429.130859375 589.842773438 429.456054688 590 c 0
 439.596679688 605 465.296875 618 487.184570312 618 c 0
 509.071289062 618 516.750976562 605 507.055664062 590 c 2
640.025390625 0.361328125 m 2
 640.025390625 0.361328125 583.517578125 0 499.407226562 0 c 0
 415.296875 0 347.018554688 -9.330078125 347.018554688 68.736328125 c 0
 347.018554688 148.302734375 393.192382812 142.47265625 431.71484375 142.47265625 c 0
 516.358398438 142.47265625 573.224609375 142.111328125 573.224609375 142.111328125 c 2
 601.798828125 142.111328125 614.172851562 164.5 614.172851562 196.44921875 c 0
 614.172851562 255.8984375 562.483398438 251.787109375 504.026367188 251.787109375 c 0
 445.569335938 251.787109375 362.49609375 251.774414062 362.49609375 251.774414062 c 2
 354.6328125 251.774414062 347.818359375 259.849609375 347.818359375 270.298828125 c 0
 347.818359375 280.749023438 354.588867188 288.82421875 362.401367188 288.82421875 c 2
 362.401367188 288.82421875 418.909179688 289.185546875 503.01953125 289.185546875 c 0
 587.129882812 289.185546875 655.408203125 276.515625 655.408203125 196.44921875 c 0
 655.408203125 123.3828125 621.2890625 104.712890625 571.236328125 104.712890625 c 0
 486.592773438 104.712890625 429.7265625 105.07421875 429.7265625 105.07421875 c 2
 371.278320312 105.07421875 388.254882812 69.685546875 388.254882812 68.736328125 c 0
 388.254882812 37.787109375 439.944335938 37.3984375 498.401367188 37.3984375 c 0
 556.858398438 37.3984375 639.931640625 37.4111328125 639.931640625 37.4111328125 c 2
 647.793945312 37.4111328125 654.608398438 29.3359375 654.608398438 18.88671875 c 0
 654.608398438 8.4365234375 647.837890625 0.361328125 640.025390625 0.361328125 c 2
125.560546875 556.05859375 m 1
 90.75390625 523.147460938 l 2
 85.1455078125 517.84375 74.2470703125 518.958007812 66.4326171875 526.34765625 c 0
 58.6181640625 533.736328125 57.517578125 544.115234375 63.048828125 549.345703125 c 2
 63.048828125 549.345703125 120.043945312 604.43359375 120.154296875 604.5 c 0
 125.645507812 609.802734375 130.250976562 619.5 143.4765625 618.5 c 0
 154.295898438 618.5 162.4375 612 162.658203125 604.5 c 2
 162.658203125 337.5 l 2
 162.658203125 330 154.58203125 323.5 144.1328125 323.5 c 0
 133.682617188 323.5 125.607421875 330.103515625 125.607421875 337.5 c 2
 125.607421875 337.5 125.560546875 475.681640625 125.560546875 556.05859375 c 1
EndSplineSet
EndChar

StartChar: threequarters
Encoding: 190 190 126
Width: 703
GlyphClass: 2
Flags: MW
HStem: 129.005 37.0867 275.051 37.3984 347.45 37.3975 481.038 37.0498 614.603 37.3975
VStem: 311.399 41.2354 572.786 37.0498
LayerCount: 2
Back
Fore
SplineSet
594.584960938 622.459960938 m 2
 213.908203125 29.541015625 l 2
 203.748046875 13.7158203125 177.998046875 0.0009765625 156.069335938 0.0009765625 c 0
 134.139648438 0.0009765625 126.139648438 13.9345703125 136.16015625 29.541015625 c 2
 136.16015625 29.541015625 516.510742188 622.293945312 516.836914062 622.459960938 c 0
 526.997070312 638.28515625 552.74609375 652 574.67578125 652 c 0
 596.604492188 652 604.298828125 638.28515625 594.584960938 622.459960938 c 2
609.849609375 296.064453125 m 1
 609.84765625 166.09375 l 1
 654.263671875 166.09375 l 2
 662.1953125 166.09375 669.069335938 158.018554688 669.069335938 147.568359375 c 0
 669.069335938 137.119140625 662.0859375 129.04296875 654.263671875 129.043945312 c 2
 654.263671875 129.043945312 636.844726562 129.021484375 609.833984375 129.006835938 c 1
 609.833984375 15.1044921875 l 2
 609.833984375 7.013671875 601.758789062 0.0009765625 591.30859375 0.0009765625 c 0
 580.858398438 0.0009765625 572.783203125 7.125 572.784179688 15.1044921875 c 2
 572.784179688 15.1044921875 572.76171875 65.2705078125 572.747070312 128.993164062 c 1
 554.145507812 128.993164062 540.094726562 129.004882812 540.06640625 129.04296875 c 0
 491.64453125 129.04296875 467.926757812 128.595703125 388.271484375 128.928710938 c 1
 365.619140625 133.962890625 377.024414062 148.7109375 390.616210938 168.482421875 c 0
 444.5390625 246.932617188 491.65234375 310.353515625 538.622070312 312.450195312 c 0
 614.64453125 315.697265625 609.849609375 296.064453125 609.849609375 296.064453125 c 1
572.756835938 275.322265625 m 1
 564.694335938 275.322265625 554.057617188 275.229492188 540.067382812 275.053710938 c 0
 517.71484375 274.751953125 493.502929688 251.041015625 442.706054688 175.4375 c 0
 435.455078125 164.647460938 462.592773438 166.442382812 540.067382812 166.442382812 c 2
 540.067382812 166.442382812 543.467773438 166.448242188 572.740234375 166.452148438 c 1
 572.733398438 209.611328125 572.756835938 251.630859375 572.756835938 275.322265625 c 1
52.9453125 518.090820312 m 2
 221.092773438 518.090820312 l 2
 229.024414062 518.090820312 235.8984375 509.515625 235.8984375 499.06640625 c 0
 235.8984375 488.615234375 228.915039062 481.041015625 221.092773438 481.041015625 c 2
 52.9453125 481.041015625 l 2
 45.013671875 481.041015625 38.1396484375 489.115234375 38.1396484375 499.56640625 c 0
 38.1396484375 510.015625 45.013671875 517.877929688 52.9453125 518.090820312 c 2
97.5791015625 651.642578125 m 2
 97.5791015625 651.642578125 114.614257812 652.004882812 199.265625 652.004882812 c 0
 283.916992188 652.004882812 352.633789062 583.67578125 352.633789062 499.729492188 c 0
 352.633789062 415.783203125 283.916992188 347.454101562 199.265625 347.454101562 c 0
 114.614257812 347.454101562 97.5791015625 347.814453125 97.5791015625 347.814453125 c 2
 89.716796875 347.814453125 82.90234375 355.889648438 82.90234375 366.338867188 c 0
 82.90234375 376.790039062 89.7763671875 384.864257812 97.7080078125 384.864257812 c 2
 97.7080078125 384.864257812 141.3203125 384.850585938 200.288085938 384.850585938 c 0
 259.255859375 384.850585938 311.397460938 436.399414062 311.397460938 499.728515625 c 0
 311.397460938 563.057617188 259.255859375 614.606445312 200.288085938 614.606445312 c 0
 141.3203125 614.606445312 97.7080078125 614.592773438 97.7080078125 614.592773438 c 2
 89.7763671875 614.592773438 82.90234375 622.666992188 82.90234375 633.118164062 c 0
 82.90234375 643.567382812 89.716796875 651.642578125 97.5791015625 651.642578125 c 2
EndSplineSet
EndChar

StartChar: questiondown
Encoding: 191 191 127
Width: 617
GlyphClass: 2
Flags: MW
HStem: 0 64.3242 231.948 63.7998 535.041 79.5498
VStem: 320.833 76.3252 328.23 63.7256
LayerCount: 2
Back
Fore
SplineSet
328.229492188 295.748046875 m 1xe8
 328.229492188 476.735351562 l 2
 328.229492188 490.810546875 342.119140625 503.010742188 360.092773438 503.010742188 c 0
 378.06640625 503.010742188 391.956054688 490.876953125 391.955078125 477.287109375 c 2
 391.955078125 265.987304688 l 2
 391.955078125 246.787109375 380.313476562 232.340820312 366.879882812 231.94921875 c 2
 128.552734375 231.94921875 l 1
 156.26171875 138.341796875 219.741210938 64.3251953125 309.334960938 64.3251953125 c 0
 409.779296875 64.3251953125 552.516601562 64.3486328125 552.516601562 64.3486328125 c 2
 566.02734375 64.3486328125 577.735351562 50.4599609375 577.735351562 32.4853515625 c 0
 577.735351562 14.5107421875 566.008789062 0.62109375 552.477539062 0.62109375 c 2
 552.477539062 0.62109375 454.60546875 0.0009765625 308.92578125 0.0009765625 c 0
 163.24609375 0.0009765625 44.98828125 117.665039062 44.98828125 262.224609375 c 0
 44.98828125 281.091796875 56.982421875 295.671875 70.416015625 295.670898438 c 2
 70.416015625 295.670898438 245.803710938 295.78125 328.229492188 295.748046875 c 1xe8
397.158203125 574.818359375 m 0xf0
 397.158203125 553.318359375 381.033203125 535.04296875 359.533203125 535.04296875 c 0
 338.033203125 535.04296875 320.833007812 553.318359375 320.833007812 574.818359375 c 0
 320.833007812 596.318359375 338.033203125 614.592773438 359.533203125 614.592773438 c 0
 381.033203125 614.592773438 397.158203125 596.318359375 397.158203125 574.818359375 c 0xf0
EndSplineSet
EndChar

StartChar: Agrave
Encoding: 192 192 128
Width: 746
GlyphClass: 2
Flags: MW
HStem: 0 82.4707<310.004 426.501> 502.729 82.4707<310.004 442.359> 666 92.5<326.268 389.185>
VStem: 57.3607 78.7324 620.63 74.0996
LayerCount: 2
Back
Fore
SplineSet
694.729492188 10.470703125 m 2
 694.729492188 -4.529296875 620.629882812 -5.529296875 620.629882812 9.470703125 c 0
 620.629882812 40.0546875 620.63671875 70.638671875 620.63671875 101.221679688 c 1
 561.767578125 39.236328125 474.872070312 0 378.130859375 0 c 0
 201.295898438 0 57.3603515625 131.099609375 57.3603515625 292.599609375 c 0
 57.3603515625 454.099609375 200.481445312 585.19921875 376.314453125 585.19921875 c 0
 552.147460938 585.19921875 695.268554688 454.099609375 695.268554688 292.599609375 c 2
 694.729492188 10.470703125 l 2
136.09375 292.599609375 m 0
 136.09375 181.079101562 243.826171875 82.470703125 376.181640625 82.470703125 c 0
 508.537109375 82.470703125 616.26953125 181.079101562 616.26953125 292.599609375 c 0
 616.26953125 404.119140625 508.537109375 502.728515625 376.181640625 502.728515625 c 0
 243.826171875 502.728515625 136.09375 404.119140625 136.09375 292.599609375 c 0
316.02734375 712.25 m 0
 303.698242188 737.25 313.048828125 758.5 339.487304688 758.5 c 0
 365.92578125 758.5 397.555664062 737.25 409.884765625 712.25 c 1
 425.249023438 691.818359375 452.252929688 658.5 453.65625 642.25 c 0
 455.23828125 631 411.462890625 620.583984375 376.7109375 616 c 1
 399.840820312 629.514648438 422.987304688 635.520507812 404.874023438 671.56640625 c 1
 399.9296875 668.02734375 393.267578125 666 385.1015625 666 c 0
 358.663085938 666 328.35546875 687.25 316.02734375 712.25 c 0
EndSplineSet
EndChar

StartChar: Aacute
Encoding: 193 193 129
Width: 746
GlyphClass: 2
Flags: MW
HStem: 0 82.4707<310.004 426.501> 502.729 82.4707<310.004 442.359> 666 92.5<360.406 423.323>
VStem: 57.3607 78.7324 620.63 74.0996
LayerCount: 2
Back
Fore
SplineSet
694.729492188 10.470703125 m 2
 694.729492188 -4.529296875 620.629882812 -5.529296875 620.629882812 9.470703125 c 0
 620.629882812 40.0546875 620.63671875 70.638671875 620.63671875 101.221679688 c 1
 561.767578125 39.236328125 474.872070312 0 378.130859375 0 c 0
 201.295898438 0 57.3603515625 131.099609375 57.3603515625 292.599609375 c 0
 57.3603515625 454.099609375 200.481445312 585.19921875 376.314453125 585.19921875 c 0
 552.147460938 585.19921875 695.268554688 454.099609375 695.268554688 292.599609375 c 2
 694.729492188 10.470703125 l 2
136.09375 292.599609375 m 0
 136.09375 181.079101562 243.826171875 82.470703125 376.181640625 82.470703125 c 0
 508.537109375 82.470703125 616.26953125 181.079101562 616.26953125 292.599609375 c 0
 616.26953125 404.119140625 508.537109375 502.728515625 376.181640625 502.728515625 c 0
 243.826171875 502.728515625 136.09375 404.119140625 136.09375 292.599609375 c 0
433.5625 712.25 m 0
 421.234375 687.25 390.927734375 666 364.489257812 666 c 0
 356.323242188 666 349.661132812 668.02734375 344.716796875 671.56640625 c 1
 326.603515625 635.520507812 349.75 629.514648438 372.879882812 616 c 1
 338.127929688 620.583984375 294.352539062 631 295.934570312 642.25 c 0
 297.337890625 658.5 324.341796875 691.818359375 339.706054688 712.25 c 1
 352.03515625 737.25 383.665039062 758.5 410.103515625 758.5 c 0
 436.541992188 758.5 445.891601562 737.25 433.5625 712.25 c 0
EndSplineSet
EndChar

StartChar: Acircumflex
Encoding: 194 194 130
Width: 740
GlyphClass: 2
Flags: MW
HStem: 0 82.4707<307.879 422.655> 502.729 82.4707<307.879 438.617>
VStem: 57.3607 78.7324 259.457 51.0195 429.67 51.0195 614.759 74.0996
LayerCount: 2
Back
Fore
SplineSet
688.859375 10.470703125 m 2
 688.859375 -4.529296875 614.760742188 -5.529296875 614.760742188 9.470703125 c 0
 614.760742188 40.0546875 614.767578125 70.638671875 614.767578125 101.221679688 c 1
 556.51171875 39.236328125 470.521484375 0 374.7890625 0 c 0
 199.796875 0 57.361328125 131.099609375 57.361328125 292.599609375 c 0
 57.361328125 454.099609375 199.165039062 585.19921875 373.379882812 585.19921875 c 0
 547.594726562 585.19921875 689.3984375 454.099609375 689.3984375 292.599609375 c 2
 688.859375 10.470703125 l 2
136.094726562 292.599609375 m 0
 136.094726562 181.079101562 242.510742188 82.470703125 373.248046875 82.470703125 c 0
 503.985351562 82.470703125 610.401367188 181.079101562 610.401367188 292.599609375 c 0
 610.401367188 404.119140625 503.985351562 502.728515625 373.248046875 502.728515625 c 0
 242.510742188 502.728515625 136.094726562 404.119140625 136.094726562 292.599609375 c 0
370.075195312 763.31640625 m 0
 385.197265625 763.31640625 399.716796875 755.435546875 405.874023438 742.7734375 c 0
 413.712890625 731.5 478.97265625 636.80078125 478.997070312 636.765625 c 2
 480.154296875 635.087890625 l 1
 480.69140625 633.142578125 l 2
 482.810546875 625.461914062 481.45703125 616.75390625 475.66015625 610.5 c 0
 471.323242188 605.822265625 465.02734375 603.31640625 458.612304688 603.31640625 c 0
 444.846679688 603.31640625 434.0078125 613.009765625 429.671875 623.849609375 c 2
 370.075195312 697 l 1
 310.478515625 623.849609375 l 2
 305.732421875 611.984375 294.908203125 603.31640625 281.538085938 603.31640625 c 0
 275.4375 603.31640625 269.423828125 605.571289062 265.11328125 609.85546875 c 0
 258.8125 616.1171875 257.263671875 625.189453125 259.458984375 633.142578125 c 2
 259.99609375 635.087890625 l 1
 261.153320312 636.765625 l 1
 261.153320312 636.765625 327.078125 732.421875 334.275390625 742.7734375 c 0
 340.857421875 756.306640625 355.36328125 763.31640625 370.075195312 763.31640625 c 0
EndSplineSet
EndChar

StartChar: Atilde
Encoding: 195 195 131
Width: 746
GlyphClass: 2
Flags: MW
HStem: 0 82.4707<310.004 426.501> 502.729 82.4707<310.004 442.359>
VStem: 57.3607 78.7324 620.63 74.0996
LayerCount: 2
Back
Fore
SplineSet
694.729492188 10.470703125 m 2
 694.729492188 -4.529296875 620.629882812 -5.529296875 620.629882812 9.470703125 c 0
 620.629882812 40.0546875 620.63671875 70.638671875 620.63671875 101.221679688 c 1
 561.767578125 39.236328125 474.872070312 0 378.130859375 0 c 0
 201.295898438 0 57.3603515625 131.099609375 57.3603515625 292.599609375 c 0
 57.3603515625 454.099609375 200.481445312 585.19921875 376.314453125 585.19921875 c 0
 552.147460938 585.19921875 695.268554688 454.099609375 695.268554688 292.599609375 c 2
 694.729492188 10.470703125 l 2
136.09375 292.599609375 m 0
 136.09375 181.079101562 243.826171875 82.470703125 376.181640625 82.470703125 c 0
 508.537109375 82.470703125 616.26953125 181.079101562 616.26953125 292.599609375 c 0
 616.26953125 404.119140625 508.537109375 502.728515625 376.181640625 502.728515625 c 0
 243.826171875 502.728515625 136.09375 404.119140625 136.09375 292.599609375 c 0
398.749023438 730.993164062 m 1
 411.541992188 720.833007812 407.193359375 716.982421875 411.33984375 702.350585938 c 0
 415.249023438 688.553710938 426.23828125 677.030273438 456.227539062 684.62890625 c 0
 487.512695312 692.5546875 489.032226562 709.544921875 485.73046875 721.19921875 c 0
 484.45703125 725.690429688 491.8828125 766.98046875 504.517578125 751.1484375 c 1
 504.517578125 751.1484375 506.517578125 751.986328125 508.39453125 752.461914062 c 0
 521.694335938 755.83203125 539.807617188 751.70703125 544.251953125 736.02734375 c 0
 564.193359375 665.647460938 505.740234375 634.487304688 472.801757812 626.140625 c 0
 446.212890625 619.404296875 394.23828125 614.240234375 365.411132812 658.881835938 c 1
 352.618164062 669.041992188 356.966796875 672.892578125 352.8203125 687.524414062 c 0
 348.911132812 701.321289062 337.921875 712.844726562 307.932617188 705.24609375 c 0
 276.647460938 697.3203125 275.127929688 680.330078125 278.4296875 668.67578125 c 0
 279.703125 664.184570312 272.27734375 622.89453125 259.642578125 638.7265625 c 1
 259.642578125 638.7265625 257.642578125 637.888671875 255.765625 637.413085938 c 0
 242.465820312 634.04296875 224.352539062 638.16796875 219.908203125 653.84765625 c 0
 199.966796875 724.227539062 258.419921875 755.387695312 291.358398438 763.734375 c 0
 317.947265625 770.470703125 369.921875 775.634765625 398.749023438 730.993164062 c 1
EndSplineSet
EndChar

StartChar: Adieresis
Encoding: 196 196 132
Width: 735
GlyphClass: 2
Flags: MW
HStem: 0 82.4707<306.149 419.527> 502.729 82.4707<306.149 435.571> 631 88.75<276.947 301.947 427.611 452.611>
VStem: 57.3607 78.7324 243.197 92.5 393.861 92.5 609.987 74.0996
LayerCount: 2
Back
Fore
SplineSet
684.0859375 10.470703125 m 2
 684.0859375 -4.529296875 609.987304688 -5.529296875 609.987304688 9.470703125 c 0
 609.987304688 40.0546875 609.994140625 70.638671875 609.994140625 101.221679688 c 1
 552.237304688 39.236328125 466.983398438 0 372.0703125 0 c 0
 198.577148438 0 57.361328125 131.099609375 57.361328125 292.599609375 c 0
 57.361328125 454.099609375 198.09375 585.19921875 370.993164062 585.19921875 c 0
 543.892578125 585.19921875 684.625 454.099609375 684.625 292.599609375 c 2
 684.0859375 10.470703125 l 2
136.09375 292.599609375 m 0
 136.09375 181.079101562 241.438476562 82.470703125 370.860351562 82.470703125 c 0
 500.282226562 82.470703125 605.626953125 181.079101562 605.626953125 292.599609375 c 0
 605.626953125 404.119140625 500.282226562 502.728515625 370.860351562 502.728515625 c 0
 241.438476562 502.728515625 136.09375 404.119140625 136.09375 292.599609375 c 0
289.447265625 631 m 0
 264.447265625 631 243.197265625 649.75 243.197265625 674.75 c 0
 243.197265625 699.75 264.447265625 719.75 289.447265625 719.75 c 0
 314.447265625 719.75 335.697265625 699.75 335.697265625 674.75 c 0
 335.697265625 649.75 314.447265625 631 289.447265625 631 c 0
440.111328125 631 m 0
 415.111328125 631 393.861328125 649.75 393.861328125 674.75 c 0
 393.861328125 699.75 415.111328125 719.75 440.111328125 719.75 c 0
 465.111328125 719.75 486.361328125 699.75 486.361328125 674.75 c 0
 486.361328125 649.75 465.111328125 631 440.111328125 631 c 0
EndSplineSet
EndChar

StartChar: Aring
Encoding: 197 197 133
Width: 741
GlyphClass: 2
Flags: MW
HStem: 0 82.4707<308.149 423.146> 502.729 82.4707<308.149 439.093> 624.603 43.7129<364.783 385.629 364.783 397.896> 734.505 43.7129<364.783 385.629>
VStem: 57.3607 78.7324 292.888 44.5049 413.021 44.5049 615.509 74.0996
LayerCount: 2
Back
Fore
SplineSet
689.608398438 10.470703125 m 2
 689.608398438 -4.529296875 615.508789062 -5.529296875 615.508789062 9.470703125 c 0
 615.508789062 40.0546875 615.515625 70.638671875 615.515625 101.221679688 c 1
 557.181640625 39.236328125 471.076171875 0 375.21484375 0 c 0
 199.987304688 0 57.3603515625 131.099609375 57.3603515625 292.599609375 c 0
 57.3603515625 454.099609375 199.33203125 585.19921875 373.75390625 585.19921875 c 0
 548.17578125 585.19921875 690.147460938 454.099609375 690.147460938 292.599609375 c 2
 689.608398438 10.470703125 l 2
136.092773438 292.599609375 m 0
 136.092773438 181.079101562 242.676757812 82.470703125 373.62109375 82.470703125 c 0
 504.565429688 82.470703125 611.149414062 181.079101562 611.149414062 292.599609375 c 0
 611.149414062 404.119140625 504.565429688 502.728515625 373.62109375 502.728515625 c 0
 242.676757812 502.728515625 136.092773438 404.119140625 136.092773438 292.599609375 c 0
337.392578125 701.41015625 m 0
 337.392578125 683.845703125 354.360351562 668.315429688 375.206054688 668.315429688 c 0
 396.051757812 668.315429688 413.01953125 683.845703125 413.01953125 701.41015625 c 0
 413.01953125 718.974609375 396.051757812 734.504882812 375.206054688 734.504882812 c 0
 354.360351562 734.504882812 337.392578125 718.974609375 337.392578125 701.41015625 c 0
292.887695312 701.41015625 m 0
 292.887695312 743.8046875 329.825195312 778.217773438 375.206054688 778.217773438 c 0
 420.586914062 778.217773438 457.524414062 743.8046875 457.524414062 701.41015625 c 0
 457.524414062 659.015625 420.586914062 624.602539062 375.206054688 624.602539062 c 0
 329.825195312 624.602539062 292.887695312 659.015625 292.887695312 701.41015625 c 0
EndSplineSet
EndChar

StartChar: AE
Encoding: 198 198 134
Width: 1263
GlyphClass: 2
Flags: MW
HStem: 0 82.4707<299.035 415.53> 502.729 82.4707<299.035 424.478 278.148 425.972>
VStem: 46.3929 78.7324 609.662 74.1
LayerCount: 2
Back
Fore
SplineSet
125.125 292.599609375 m 0
 125.125 181.079101562 232.857421875 82.470703125 365.212890625 82.470703125 c 0
 488.428710938 82.470703125 590.3046875 167.930664062 603.787109375 269.708984375 c 0
 602.044921875 286.350585938 601.862304688 303.0703125 603.1796875 319.684570312 c 0
 587.494140625 419.60546875 486.731445312 502.728515625 365.212890625 502.728515625 c 0
 232.857421875 502.728515625 125.125 404.119140625 125.125 292.599609375 c 0
683.76171875 10.470703125 m 2
 683.76171875 -4.529296875 609.658203125 -5.529296875 609.658203125 9.470703125 c 0
 609.658203125 40.0546875 609.665039062 70.638671875 609.665039062 101.221679688 c 1
 550.795898438 39.236328125 463.900390625 0 367.159179688 0 c 0
 190.32421875 0 46.388671875 131.099609375 46.388671875 292.599609375 c 0
 46.388671875 454.099609375 189.95703125 585.19921875 366.33984375 585.19921875 c 0
 482.616210938 585.19921875 584.631835938 528.225585938 640.658203125 443.12890625 c 1
 668.669921875 491.209960938 710.80859375 533.250976562 765.154296875 563.0546875 c 0
 890.743164062 631.930664062 1043.32519531 614.508789062 1141.3046875 529.504882812 c 0
 1163.21875 510.493164062 1218.15625 474.65625 1193.94335938 453.65625 c 0
 1127.85253906 393.470703125 1058.39160156 336.862304688 986.66796875 282.65625 c 0
 974.16796875 273.420898438 950.303710938 269.752929688 936.696289062 286.22265625 c 0
 923.088867188 302.692382812 924.051757812 322.69140625 935.907226562 332.65625 c 0
 964.4609375 356.65625 1108.98046875 459.831054688 1083.96191406 471.022460938 c 0
 999.01953125 509.018554688 899.799804688 542.388671875 806.837890625 491.6328125 c 0
 732.666992188 451.137695312 689.259765625 379.754882812 683.83984375 308.24609375 c 0
 684.125976562 303.065429688 684.270507812 297.848632812 684.270507812 292.599609375 c 2
 684.235351562 273.30078125 l 2
 686.982421875 246.295898438 695.439453125 220.005859375 710.009765625 196.142578125 c 0
 768.977539062 99.5625 926.151367188 48.951171875 1029.04003906 127.6796875 c 2
 1158.63671875 226.84375 l 2
 1170.96875 236.280273438 1189.65136719 239.029296875 1206.63671875 225.65625 c 0
 1223.62304688 212.283203125 1226.9921875 187.952148438 1215.68652344 177.432617188 c 0
 1149.29785156 115.65625 1166.27832031 116.294921875 1072.65234375 61.2578125 c 0
 955.478515625 -7.6220703125 784.833007812 8.6015625 683.92578125 101.100585938 c 1
 683.76171875 10.470703125 l 2
EndSplineSet
EndChar

StartChar: Ccedilla
Encoding: 199 199 135
Width: 707
GlyphClass: 2
Flags: MW
HStem: -142.672 92.5 3.35985 74.7959 539.976 74.7959<293.403 410.107>
VStem: 49.3868 82.4707 340.856 88.75 405.899 32.457
LayerCount: 2
Back
Fore
SplineSet
634.490234375 614.049804688 m 2xf4
 650.08984375 614.049804688 663.609375 597.8984375 663.609375 576.999023438 c 0
 663.609375 556.09765625 650.004882812 539.948242188 634.307617188 539.948242188 c 2
 634.307617188 539.948242188 468.459960938 539.975585938 351.754882812 539.975585938 c 0
 235.05078125 539.975585938 131.857421875 436.361328125 131.857421875 309.065429688 c 0
 131.857421875 181.76953125 235.05078125 78.1552734375 351.754882812 78.1552734375 c 0
 468.459960938 78.1552734375 634.307617188 78.1826171875 634.307617188 78.1826171875 c 2
 650.004882812 78.1826171875 663.609375 62.033203125 663.609375 41.1318359375 c 0
 663.609375 20.2314453125 650.075195312 4.0810546875 634.458007812 4.0810546875 c 2
 634.458007812 4.0810546875 521.49609375 3.359375 353.35546875 3.359375 c 1
 388.354492188 -1.392578125 434.60546875 -12.1904296875 438.35546875 -23.853515625 c 0xf4
 444.60546875 -40.7001953125 434.606445312 -75.2412109375 429.60546875 -96.4228515625 c 1
 429.60546875 -121.422851562 409.60546875 -142.672851562 384.60546875 -142.672851562 c 0
 359.60546875 -142.672851562 340.85546875 -121.422851562 340.85546875 -96.4228515625 c 0xf8
 340.85546875 -71.4228515625 359.60546875 -50.1728515625 384.60546875 -50.1728515625 c 0
 392.327148438 -50.1728515625 399.572265625 -52.2001953125 405.8984375 -55.7392578125 c 1
 406.228515625 -17.40234375 380.7265625 -11.0146484375 351.625 3.359375 c 1
 184.8046875 3.359375 49.38671875 140.53515625 49.38671875 309.065429688 c 0
 49.38671875 477.595703125 185.73046875 614.771484375 353.690429688 614.771484375 c 0
 521.650390625 614.771484375 634.490234375 614.049804688 634.490234375 614.049804688 c 2xf4
EndSplineSet
EndChar

StartChar: Egrave
Encoding: 200 200 136
Width: 708
GlyphClass: 2
Flags: MW
HStem: 670 92.5<269.987 332.903>
LayerCount: 2
Back
Fore
SplineSet
662.44921875 156.776367188 m 0
 596.05859375 95 613.038085938 95.638671875 519.408203125 40.6015625 c 0
 381.672851562 -40.361328125 170.057617188 -3.7431640625 84.662109375 136.120117188 c 0
 -0.7333984375 275.983398438 55.6005859375 458.119140625 209.975585938 542.3984375 c 0
 336.133789062 611.274414062 489.407226562 593.852539062 587.831054688 508.848632812 c 0
 609.84375 489.836914062 665.030273438 454 640.70703125 433 c 0
 574.616210938 372.814453125 505.155273438 316.206054688 433.431640625 262 c 0
 420.931640625 252.764648438 397.067382812 249.096679688 383.459960938 265.56640625 c 0
 369.852539062 282.036132812 370.815429688 302.03515625 382.670898438 312 c 0
 411.224609375 336 555.744140625 439.174804688 530.725585938 450.366210938 c 0
 445.778320312 488.362304688 346.552734375 521.732421875 253.584960938 470.9765625 c 0
 138.961914062 408.399414062 97.8037109375 272.065429688 156.771484375 175.486328125 c 0
 215.739257812 78.90625 372.913085938 28.294921875 475.802734375 107.0234375 c 2
 605.399414062 206.1875 l 2
 617.731445312 215.624023438 636.4140625 218.373046875 653.399414062 205 c 0
 670.385742188 191.626953125 673.754882812 167.295898438 662.44921875 156.776367188 c 0
259.74609375 716.25 m 0
 247.416992188 741.25 256.767578125 762.5 283.206054688 762.5 c 0
 309.64453125 762.5 341.274414062 741.25 353.603515625 716.25 c 1
 368.967773438 695.818359375 395.971679688 662.5 397.375 646.25 c 0
 398.95703125 635 355.181640625 624.583984375 320.4296875 620 c 1
 343.559570312 633.514648438 366.706054688 639.520507812 348.592773438 675.56640625 c 1
 343.6484375 672.02734375 336.986328125 670 328.8203125 670 c 0
 302.381835938 670 272.07421875 691.25 259.74609375 716.25 c 0
EndSplineSet
EndChar

